<svg width="24" height="25" viewBox="0 0 24 25" fill="none" xmlns="http://www.w3.org/2000/svg">
<rect y="0.923828" width="24" height="24" rx="12" fill="#F79A38"/>
<path d="M15.7434 14.5999C16.0582 14.2851 16.1032 13.8353 15.8333 13.3856C15.6084 13.0257 15.2037 12.8458 14.7539 12.9358C14.574 12.9808 14.3941 13.0707 14.2142 13.2056C12.8199 14.1502 10.9309 14.1052 9.5366 13.1607C9.44664 13.1157 9.35669 13.0707 9.26673 13.0257C8.77199 12.8009 8.27725 12.8908 8.00739 13.3406C7.69256 13.7903 7.73753 14.2851 8.14232 14.6899C8.23227 14.7798 8.32223 14.8248 8.3672 14.9148L8.41218 14.9597C9.04185 15.4545 9.80646 15.7693 10.7959 15.9042L10.2112 16.4889C9.7165 16.9837 9.17679 17.5234 8.68204 18.0181C8.54711 18.1531 8.3672 18.378 8.3672 18.6928C8.3672 19.0976 8.59209 19.5024 8.99688 19.6823C9.13181 19.7722 9.26674 19.7722 9.40167 19.7722C9.62655 19.7722 9.89641 19.6823 10.0763 19.4574C10.751 18.7827 11.2907 18.243 11.8304 17.7033C11.8754 17.6583 11.8754 17.6583 11.8754 17.6583C11.8754 17.6583 11.9204 17.6583 11.9204 17.7033C12.2802 18.1081 12.685 18.4679 13.0448 18.8727C13.2247 19.0526 13.4046 19.2325 13.5845 19.4124C13.8094 19.6373 13.9893 19.7273 14.2591 19.7273C14.6639 19.7722 15.1137 19.5024 15.2936 19.0976C15.4735 18.7378 15.3836 18.288 15.0687 18.0181C14.619 17.5684 14.1692 17.0736 13.6744 16.6239L12.9098 15.8593C13.3146 15.8143 13.7644 15.7243 14.1692 15.5444C14.8438 15.3195 15.3386 15.0047 15.7434 14.5999Z" fill="white"/>
<path d="M11.8754 13.3406C13.8094 13.3406 15.3836 11.8114 15.3836 9.87737C15.3836 8.93286 15.0237 8.03333 14.3491 7.35868C13.6744 6.68403 12.8199 6.32422 11.9204 6.32422C9.98636 6.32422 8.45716 7.8984 8.41218 9.78742C8.41218 10.7319 8.772 11.5865 9.44664 12.2611C10.0763 12.9808 10.9309 13.3406 11.8754 13.3406ZM10.8859 8.84291C11.1558 8.57305 11.5156 8.43812 11.8754 8.43812C12.685 8.43812 13.2697 9.06779 13.2697 9.8324C13.2697 10.642 12.64 11.2267 11.8754 11.2267C11.0658 11.2267 10.4811 10.597 10.4811 9.8324C10.4811 9.47258 10.616 9.11277 10.8859 8.84291Z" fill="white"/>
<path d="M15.7434 14.5999C16.0582 14.2851 16.1032 13.8353 15.8333 13.3856C15.6084 13.0257 15.2037 12.8458 14.7539 12.9358C14.574 12.9808 14.3941 13.0707 14.2142 13.2056C12.8199 14.1502 10.9309 14.1052 9.5366 13.1607C9.44664 13.1157 9.35669 13.0707 9.26673 13.0257C8.77199 12.8009 8.27725 12.8908 8.00739 13.3406C7.69256 13.7903 7.73753 14.2851 8.14232 14.6899C8.23227 14.7798 8.32223 14.8248 8.3672 14.9148L8.41218 14.9597C9.04185 15.4545 9.80646 15.7693 10.7959 15.9042L10.2112 16.4889C9.7165 16.9837 9.17679 17.5234 8.68204 18.0181C8.54711 18.1531 8.3672 18.378 8.3672 18.6928C8.3672 19.0976 8.59209 19.5024 8.99688 19.6823C9.13181 19.7722 9.26674 19.7722 9.40167 19.7722C9.62655 19.7722 9.89641 19.6823 10.0763 19.4574C10.751 18.7827 11.2907 18.243 11.8304 17.7033C11.8754 17.6583 11.8754 17.6583 11.8754 17.6583C11.8754 17.6583 11.9204 17.6583 11.9204 17.7033C12.2802 18.1081 12.685 18.4679 13.0448 18.8727C13.2247 19.0526 13.4046 19.2325 13.5845 19.4124C13.8094 19.6373 13.9893 19.7273 14.2591 19.7273C14.6639 19.7722 15.1137 19.5024 15.2936 19.0976C15.4735 18.7378 15.3836 18.288 15.0687 18.0181C14.619 17.5684 14.1692 17.0736 13.6744 16.6239L12.9098 15.8593C13.3146 15.8143 13.7644 15.7243 14.1692 15.5444C14.8438 15.3195 15.3386 15.0047 15.7434 14.5999Z" fill="white"/>
</svg>
