<svg width="24" height="25" viewBox="0 0 24 25" fill="none" xmlns="http://www.w3.org/2000/svg">
<rect y="0.923828" width="24" height="24" rx="12" fill="#0077FF"/>
<path d="M12.5899 17.1246C8.07997 17.1246 5.50757 13.9715 5.40039 8.72461H7.65948C7.73368 12.5757 9.39914 14.2069 10.7183 14.5432L10.7183 8.72461H12.8455L12.8455 12.0459C14.1482 11.903 15.5168 10.3895 15.9785 8.72461H18.1057C17.9317 9.58806 17.5849 10.4056 17.087 11.1261C16.589 11.8466 15.9506 12.4546 15.2118 12.912C16.0365 13.3299 16.765 13.9215 17.3491 14.6477C17.9332 15.3738 18.3597 16.218 18.6004 17.1246H16.2589C16.0428 16.3372 15.6036 15.6323 14.9964 15.0983C14.3892 14.5643 13.641 14.225 12.8455 14.1228L12.8455 17.1246H12.5899Z" fill="white"/>
</svg>
