<svg width="106" height="120" viewBox="0 0 106 120" fill="none" xmlns="http://www.w3.org/2000/svg">
<g style="mix-blend-mode:hard-light" filter="url(#filter0_f_54_6686)">
<ellipse cx="53.2501" cy="60.1248" rx="17.7579" ry="24.7342" fill="white" fill-opacity="0.05"/>
</g>
<g style="mix-blend-mode:hard-light" filter="url(#filter1_f_54_6686)">
<path d="M69.5805 47.2514L69.4906 47.139H69.4869C69.2059 47.4012 68.9025 47.6485 68.5766 47.8658C68.5766 47.8658 77.5262 60.1157 73.5927 70.1292C71.4986 75.46 66.3925 79.6333 59.0126 80.4986L50.6399 50.7353C50.6399 50.7353 51.494 48.5176 53.3372 45.9103C53.3671 45.9065 53.3896 45.884 53.4046 45.8466C53.4083 45.8372 53.4111 45.8278 53.4139 45.8185C53.4168 45.8091 53.4196 45.7998 53.4233 45.7904C55.0679 43.4902 57.4767 40.9129 60.7471 39.287L61.0842 39.1185C62.4029 38.5003 63.8526 38.0358 65.4448 37.8073L59.4134 34.5369C59.4134 34.5369 58.1809 31.9633 60.0278 30.6147C61.6274 29.4459 63.8714 30.004 64.8828 31.7797C65.3474 32.6001 65.4448 33.4543 65.4448 33.4543C65.4448 33.4543 67.5726 32.1056 69.7716 33.3906C71.5434 34.4255 71.5155 35.9516 71.4897 37.361C71.4866 37.528 71.4836 37.6933 71.4836 37.856V39.583L74.8439 42.0742L71.4349 43.7L72.319 45.1535C72.3714 45.2247 72.4164 45.3034 72.4576 45.3821C72.5213 45.5169 72.5737 45.663 72.5999 45.8166C72.761 46.7269 72.1204 47.596 71.1689 47.7646C70.5583 47.8733 69.9664 47.6597 69.5805 47.2514Z" fill="#FF5F2D" fill-opacity="0.15"/>
<path d="M45.5714 44.5056C46.1108 44.3744 46.6615 44.7041 46.7926 45.2436L59.3273 90.0664C59.3302 90.0787 59.333 90.0908 59.3359 90.1027C59.3479 90.1531 59.3594 90.2016 59.3685 90.25H55.9108C55.9108 90.25 54.9817 87.2156 54.7008 86.2978C54.4685 85.5336 53.8504 83.5219 53.8504 83.5219C53.2136 81.7462 52.4943 81.0157 51.1906 80.3901C49.8655 79.7544 48.6479 79.4432 47.0483 79.0345C46.414 78.8724 45.7195 78.6949 44.9345 78.4758C41.769 77.5917 37.0226 74.9207 35.4043 69.234C34.906 67.4845 31.0288 45.7268 31.0288 45.7268C30.8976 45.1874 31.2273 44.6367 31.7667 44.5056C32.3062 44.3744 32.8569 44.7041 32.988 45.2436L37.3897 64.2404H39.0118L35.7339 45.7268C35.6028 45.1874 35.9325 44.6367 36.4719 44.5056C37.0114 44.3744 37.5621 44.7041 37.6932 45.2436L42.2935 64.2404H44.1441L40.1282 45.7268C39.9971 45.1874 40.3267 44.6367 40.8662 44.5056C41.4056 44.3744 41.9563 44.7041 42.0874 45.2436L47.3808 64.2404H49.0965L44.8334 45.7268C44.7023 45.1874 45.0319 44.6367 45.5714 44.5056Z" fill="#FF5F2D" fill-opacity="0.15"/>
<path d="M73.1273 69.9464C71.1461 74.9899 66.3602 78.996 59.3772 79.9484L51.1676 50.7648C51.1914 50.7077 51.2223 50.6352 51.2602 50.5486C51.3658 50.3074 51.5263 49.957 51.7438 49.5257C52.1691 48.6822 52.8108 47.5323 53.6838 46.2865C53.7827 46.2061 53.8403 46.1036 53.8688 46.0323C53.8703 46.0285 53.8718 46.0247 53.8732 46.021C55.4884 43.7758 57.8259 41.2977 60.9697 39.7348L60.9707 39.7343L61.3021 39.5685C62.5784 38.9709 63.9789 38.5228 65.5158 38.3022L67.0107 38.0877L65.6831 37.3678L59.8052 34.1805C59.782 34.1215 59.7539 34.0459 59.7245 33.9568C59.6457 33.7184 59.5599 33.3924 59.5258 33.0342C59.4574 32.3151 59.598 31.5476 60.3227 31.0185L60.3228 31.0184C61.6595 30.0416 63.5706 30.4869 64.4481 32.0267C64.6523 32.3875 64.7789 32.762 64.8542 33.0508C64.8915 33.1941 64.9155 33.3132 64.9299 33.3949C64.9371 33.4356 64.9419 33.4668 64.9447 33.4868L64.9476 33.508L64.948 33.5109L64.948 33.5111L64.948 33.5113L64.9481 33.5116L64.9481 33.5118L64.9481 33.512L65.0384 34.3038L65.711 33.8775L65.7113 33.8773L65.7118 33.877L65.7121 33.8768L65.7124 33.8766L65.7125 33.8766L65.7243 33.8695C65.736 33.8625 65.7552 33.8514 65.7815 33.8369C65.834 33.808 65.9144 33.7661 66.0186 33.7187C66.2278 33.6236 66.5286 33.5082 66.8904 33.429C67.6122 33.2711 68.5573 33.2601 69.5193 33.8223L69.5194 33.8223C70.2969 34.2765 70.6524 34.815 70.8268 35.3823C71.0106 35.9802 71.0029 36.6324 70.9897 37.3518L70.9897 37.3535C70.9867 37.5192 70.9836 37.6885 70.9836 37.856V39.583V39.8347L71.1858 39.9846L73.8783 41.9808L71.2197 43.2487L70.7201 43.487L71.0077 43.9599L71.8918 45.4134L71.9033 45.4323L71.9165 45.4501C71.9455 45.4895 71.9753 45.5396 72.0097 45.6047C72.0575 45.7073 72.0909 45.8062 72.1071 45.9007L72.1076 45.9037C72.2167 46.5202 71.7838 47.1479 71.0817 47.2723L71.0813 47.2723C70.6457 47.3499 70.2291 47.2004 69.957 46.9215L69.8811 46.8267L69.7309 46.639H69.4906H69.4869H69.2898L69.1457 46.7735C68.8812 47.0204 68.5989 47.2499 68.2992 47.4497L67.8649 47.7393L68.1728 48.1606L68.1728 48.1607L68.1729 48.1608L68.1738 48.162L68.1779 48.1677L68.1956 48.1923C68.2114 48.2144 68.2353 48.2481 68.2666 48.2927C68.3293 48.3821 68.4214 48.5155 68.5378 48.6896C68.7706 49.0378 69.1001 49.5481 69.4839 50.1922C70.2522 51.4814 71.2353 53.3024 72.0962 55.43C73.8262 59.7055 75.0231 65.1202 73.1273 69.9464ZM46.3068 45.3616L46.3088 45.37L46.3111 45.3782L58.7196 89.75H56.2806L56.2393 89.6152L55.8892 88.4717L55.1792 86.1524C55.1791 86.1521 55.179 86.1519 55.1789 86.1516C55.0625 85.7686 54.8499 85.0746 54.6665 84.4766L54.4286 83.7014L54.3554 83.463L54.3354 83.3978L54.3301 83.3808L54.3288 83.3765L54.3285 83.3754L54.3284 83.3751L54.3284 83.3751L53.8504 83.5219L54.3283 83.375L54.3249 83.364L54.321 83.3531C53.9905 82.4314 53.625 81.7419 53.1469 81.1955C52.6657 80.6455 52.0968 80.2703 51.4069 79.9393L51.4069 79.9393C50.0372 79.2821 48.778 78.9604 47.1955 78.556L47.1721 78.55C46.5375 78.3879 45.8481 78.2117 45.069 77.9942C42.0017 77.1376 37.439 74.5572 35.8852 69.0971L35.8852 69.0971C35.7685 68.6876 35.4381 67.031 35.0016 64.7298C34.5684 62.4457 34.0373 59.5634 33.5216 56.7347C33.0059 53.9062 32.5057 51.1323 32.1345 49.0654C31.9489 48.032 31.7955 47.1754 31.6885 46.5771L31.5646 45.8837L31.5321 45.7015L31.5238 45.6548L31.5217 45.643L31.5212 45.6401L31.521 45.6393C31.521 45.6392 31.521 45.6391 31.0288 45.7268L31.521 45.6391L31.5183 45.6238L31.5146 45.6087C31.4477 45.3333 31.618 45.0563 31.8848 44.9914C32.1595 44.9247 32.4358 45.0939 32.5016 45.3595C32.5018 45.3602 32.502 45.3609 32.5021 45.3616L36.9026 64.3532L36.9923 64.7404H37.3897H39.0118H39.6081L39.5042 64.1532L36.2263 45.6396L36.2235 45.6241L36.2198 45.6087C36.1528 45.3333 36.3232 45.0563 36.59 44.9914C36.8653 44.9245 37.1423 45.0947 37.2073 45.3614C37.2073 45.3615 37.2073 45.3615 37.2073 45.3616L41.8075 64.358L41.9001 64.7404H42.2935H44.1441H44.7642L44.6327 64.1344L40.6168 45.6208L40.617 45.6208L40.614 45.6087C40.5471 45.3333 40.7174 45.0563 40.9843 44.9914C41.2597 44.9245 41.5367 45.0948 41.6016 45.3616L41.6035 45.3697L41.6058 45.3778L46.8991 64.3746L47.001 64.7404H47.3808H49.0965H49.7247L49.5838 64.1282L45.3206 45.6146L45.3207 45.6146L45.3192 45.6087C45.2523 45.3333 45.4226 45.0563 45.6895 44.9914C45.9649 44.9245 46.2419 45.0948 46.3068 45.3616Z" stroke="#FF5F2D"/>
</g>
<g style="mix-blend-mode:hard-light" filter="url(#filter2_f_54_6686)">
<mask id="path-4-inside-1_54_6686" fill="white">
<path d="M69.5805 47.2514L69.4906 47.139H69.4869C69.2059 47.4012 68.9025 47.6485 68.5766 47.8658C68.5766 47.8658 77.5262 60.1157 73.5927 70.1292C71.4986 75.46 66.3925 79.6333 59.0126 80.4986L50.6399 50.7353C50.6399 50.7353 51.494 48.5176 53.3372 45.9103C53.3671 45.9065 53.3896 45.884 53.4046 45.8466C53.4083 45.8372 53.4111 45.8278 53.4139 45.8185C53.4168 45.8091 53.4196 45.7998 53.4233 45.7904C55.0679 43.4902 57.4767 40.9129 60.7471 39.287L61.0842 39.1185C62.4029 38.5003 63.8526 38.0358 65.4448 37.8073L59.4134 34.5369C59.4134 34.5369 58.1809 31.9633 60.0278 30.6147C61.6274 29.4459 63.8714 30.004 64.8828 31.7797C65.3474 32.6001 65.4448 33.4543 65.4448 33.4543C65.4448 33.4543 67.5726 32.1056 69.7716 33.3906C71.5434 34.4255 71.5155 35.9516 71.4897 37.361C71.4866 37.528 71.4836 37.6933 71.4836 37.856V39.583L74.8439 42.0742L71.4349 43.7L72.319 45.1535C72.3714 45.2247 72.4164 45.3034 72.4576 45.3821C72.5213 45.5169 72.5737 45.663 72.5999 45.8166C72.761 46.7269 72.1204 47.596 71.1689 47.7646C70.5583 47.8733 69.9664 47.6597 69.5805 47.2514Z"/>
<path d="M45.5714 44.5056C46.1108 44.3744 46.6615 44.7041 46.7926 45.2436L59.3273 90.0664C59.3302 90.0787 59.333 90.0908 59.3359 90.1027C59.3479 90.1531 59.3594 90.2016 59.3685 90.25H55.9108C55.9108 90.25 54.9817 87.2156 54.7008 86.2978C54.4685 85.5336 53.8504 83.5219 53.8504 83.5219C53.2136 81.7462 52.4943 81.0157 51.1906 80.3901C49.8655 79.7544 48.6479 79.4432 47.0483 79.0345C46.414 78.8724 45.7195 78.6949 44.9345 78.4758C41.769 77.5917 37.0226 74.9207 35.4043 69.234C34.906 67.4845 31.0288 45.7268 31.0288 45.7268C30.8976 45.1874 31.2273 44.6367 31.7667 44.5056C32.3062 44.3744 32.8569 44.7041 32.988 45.2436L37.3897 64.2404H39.0118L35.7339 45.7268C35.6028 45.1874 35.9325 44.6367 36.4719 44.5056C37.0114 44.3744 37.5621 44.7041 37.6932 45.2436L42.2935 64.2404H44.1441L40.1282 45.7268C39.9971 45.1874 40.3267 44.6367 40.8662 44.5056C41.4056 44.3744 41.9563 44.7041 42.0874 45.2436L47.3808 64.2404H49.0965L44.8334 45.7268C44.7023 45.1874 45.0319 44.6367 45.5714 44.5056Z"/>
</mask>
<path d="M69.5805 47.2514L69.4906 47.139H69.4869C69.2059 47.4012 68.9025 47.6485 68.5766 47.8658C68.5766 47.8658 77.5262 60.1157 73.5927 70.1292C71.4986 75.46 66.3925 79.6333 59.0126 80.4986L50.6399 50.7353C50.6399 50.7353 51.494 48.5176 53.3372 45.9103C53.3671 45.9065 53.3896 45.884 53.4046 45.8466C53.4083 45.8372 53.4111 45.8278 53.4139 45.8185C53.4168 45.8091 53.4196 45.7998 53.4233 45.7904C55.0679 43.4902 57.4767 40.9129 60.7471 39.287L61.0842 39.1185C62.4029 38.5003 63.8526 38.0358 65.4448 37.8073L59.4134 34.5369C59.4134 34.5369 58.1809 31.9633 60.0278 30.6147C61.6274 29.4459 63.8714 30.004 64.8828 31.7797C65.3474 32.6001 65.4448 33.4543 65.4448 33.4543C65.4448 33.4543 67.5726 32.1056 69.7716 33.3906C71.5434 34.4255 71.5155 35.9516 71.4897 37.361C71.4866 37.528 71.4836 37.6933 71.4836 37.856V39.583L74.8439 42.0742L71.4349 43.7L72.319 45.1535C72.3714 45.2247 72.4164 45.3034 72.4576 45.3821C72.5213 45.5169 72.5737 45.663 72.5999 45.8166C72.761 46.7269 72.1204 47.596 71.1689 47.7646C70.5583 47.8733 69.9664 47.6597 69.5805 47.2514Z" fill="#FF5F2D" fill-opacity="0.05"/>
<path d="M45.5714 44.5056C46.1108 44.3744 46.6615 44.7041 46.7926 45.2436L59.3273 90.0664C59.3302 90.0787 59.333 90.0908 59.3359 90.1027C59.3479 90.1531 59.3594 90.2016 59.3685 90.25H55.9108C55.9108 90.25 54.9817 87.2156 54.7008 86.2978C54.4685 85.5336 53.8504 83.5219 53.8504 83.5219C53.2136 81.7462 52.4943 81.0157 51.1906 80.3901C49.8655 79.7544 48.6479 79.4432 47.0483 79.0345C46.414 78.8724 45.7195 78.6949 44.9345 78.4758C41.769 77.5917 37.0226 74.9207 35.4043 69.234C34.906 67.4845 31.0288 45.7268 31.0288 45.7268C30.8976 45.1874 31.2273 44.6367 31.7667 44.5056C32.3062 44.3744 32.8569 44.7041 32.988 45.2436L37.3897 64.2404H39.0118L35.7339 45.7268C35.6028 45.1874 35.9325 44.6367 36.4719 44.5056C37.0114 44.3744 37.5621 44.7041 37.6932 45.2436L42.2935 64.2404H44.1441L40.1282 45.7268C39.9971 45.1874 40.3267 44.6367 40.8662 44.5056C41.4056 44.3744 41.9563 44.7041 42.0874 45.2436L47.3808 64.2404H49.0965L44.8334 45.7268C44.7023 45.1874 45.0319 44.6367 45.5714 44.5056Z" fill="#FF5F2D" fill-opacity="0.05"/>
<path d="M69.4906 47.139L71.0524 45.8896L70.4519 45.139H69.4906V47.139ZM69.5805 47.2514L68.0188 48.5008L68.0703 48.5651L68.1269 48.625L69.5805 47.2514ZM69.4869 47.139V45.139H68.6986L68.1222 45.6769L69.4869 47.139ZM68.5766 47.8658L67.4672 46.2017L65.73 47.3598L66.9616 49.0456L68.5766 47.8658ZM73.5927 70.1292L75.4542 70.8605L75.4542 70.8605L73.5927 70.1292ZM59.0126 80.4986L57.0873 81.0402L57.5497 82.6839L59.2455 82.485L59.0126 80.4986ZM50.6399 50.7353L48.7735 50.0165L48.5346 50.6369L48.7146 51.2769L50.6399 50.7353ZM53.3372 45.9103L53.0891 43.9257L52.2134 44.0351L51.704 44.7558L53.3372 45.9103ZM53.4046 45.8466L51.5477 45.1037L51.5476 45.1039L53.4046 45.8466ZM53.4139 45.8185L51.4983 45.2439L51.4982 45.244L53.4139 45.8185ZM53.4233 45.7904L51.7964 44.6272L51.656 44.8235L51.5664 45.0476L53.4233 45.7904ZM60.7471 39.287L61.6374 41.0779L61.6415 41.0759L60.7471 39.287ZM61.0842 39.1185L60.2354 37.3075L60.2124 37.3183L60.1898 37.3296L61.0842 39.1185ZM65.4448 37.8073L65.7289 39.787L71.7087 38.9287L66.3981 36.0491L65.4448 37.8073ZM59.4134 34.5369L57.6096 35.4007L57.8898 35.9858L58.4601 36.2951L59.4134 34.5369ZM60.0278 30.6147L61.2073 32.2299L61.2077 32.2295L60.0278 30.6147ZM64.8828 31.7797L66.6232 30.7943L66.6207 30.7898L64.8828 31.7797ZM65.4448 33.4543L63.4576 33.6809L63.8193 36.8523L66.5154 35.1435L65.4448 33.4543ZM69.7716 33.3906L68.7626 35.1174L68.7628 35.1175L69.7716 33.3906ZM71.4897 37.361L73.4893 37.3976V37.3976L71.4897 37.361ZM71.4836 39.583H69.4836V40.5899L70.2925 41.1896L71.4836 39.583ZM74.8439 42.0742L75.7048 43.8794L78.7063 42.4479L76.035 40.4676L74.8439 42.0742ZM71.4349 43.7L70.5739 41.8948L68.5756 42.8479L69.7262 44.7394L71.4349 43.7ZM72.319 45.1535L70.6102 46.1929L70.6563 46.2686L70.7089 46.3399L72.319 45.1535ZM72.4576 45.3821L74.2661 44.528L74.2484 44.4906L74.2292 44.454L72.4576 45.3821ZM72.5999 45.8166L70.6284 46.1532L70.6305 46.1651L72.5999 45.8166ZM71.1689 47.7646L70.82 45.7953L70.8186 45.7955L71.1689 47.7646ZM46.7926 45.2436L44.8492 45.7159L44.8573 45.7492L44.8665 45.7822L46.7926 45.2436ZM59.3273 90.0664L61.2741 89.6084L61.2646 89.5679L61.2534 89.5278L59.3273 90.0664ZM59.3359 90.1027L61.2815 89.6396L61.2815 89.6396L59.3359 90.1027ZM59.3685 90.25V92.25H61.7783L61.3343 89.8815L59.3685 90.25ZM55.9108 90.25L53.9984 90.8355L54.4315 92.25H55.9108V90.25ZM54.7008 86.2978L52.7872 86.8794L52.7884 86.8832L54.7008 86.2978ZM53.8504 83.5219L55.7622 82.9345L55.7486 82.8902L55.733 82.8467L53.8504 83.5219ZM51.1906 80.3901L52.0559 78.587L52.0557 78.5869L51.1906 80.3901ZM47.0483 79.0345L47.5434 77.0967H47.5434L47.0483 79.0345ZM44.9345 78.4758L44.3965 80.4021L44.3968 80.4022L44.9345 78.4758ZM35.4043 69.234L37.3279 68.6866L37.3278 68.6862L35.4043 69.234ZM31.0288 45.7268L32.9977 45.3759L32.9868 45.3148L32.9722 45.2545L31.0288 45.7268ZM31.7667 44.5056L32.2391 46.449L31.7667 44.5056ZM32.988 45.2436L34.9364 44.7921L34.934 44.7816L34.9314 44.7712L32.988 45.2436ZM37.3897 64.2404L35.4414 64.6918L35.8002 66.2404H37.3897V64.2404ZM39.0118 64.2404V66.2404H41.397L40.9812 63.8917L39.0118 64.2404ZM35.7339 45.7268L37.7033 45.3781L37.6923 45.3159L37.6774 45.2545L35.7339 45.7268ZM37.6932 45.2436L39.637 44.7728L39.6366 44.7712L37.6932 45.2436ZM42.2935 64.2404L40.3497 64.7111L40.72 66.2404H42.2935V64.2404ZM44.1441 64.2404V66.2404H46.6244L46.0986 63.8164L44.1441 64.2404ZM40.1282 45.7268L42.0827 45.3028L42.0775 45.2786L42.0716 45.2545L40.1282 45.7268ZM40.8662 44.5056L40.3938 42.5621L40.3938 42.5621L40.8662 44.5056ZM42.0874 45.2436L40.144 45.7159L40.1519 45.7483L40.1608 45.7804L42.0874 45.2436ZM47.3808 64.2404L45.4542 64.7772L45.8619 66.2404H47.3808V64.2404ZM49.0965 64.2404V66.2404H51.6094L51.0455 63.7916L49.0965 64.2404ZM44.8334 45.7268L46.7824 45.278L46.7797 45.2662L46.7768 45.2545L44.8334 45.7268ZM67.9289 48.3884L68.0188 48.5008L71.1423 46.002L71.0524 45.8896L67.9289 48.3884ZM69.4869 49.139H69.4906V45.139H69.4869V49.139ZM69.686 49.5299C70.1168 49.2427 70.5049 48.9246 70.8515 48.6011L68.1222 45.6769C67.9069 45.8779 67.6882 46.0543 67.4672 46.2017L69.686 49.5299ZM75.4542 70.8605C77.7046 65.1316 76.222 58.9612 74.4136 54.4922C73.493 52.2171 72.4465 50.2801 71.6316 48.9125C71.2231 48.2269 70.87 47.6799 70.616 47.3001C70.489 47.11 70.3865 46.9615 70.314 46.858C70.2777 46.8063 70.2489 46.7657 70.2283 46.7369C70.218 46.7225 70.2097 46.711 70.2035 46.7025C70.2004 46.6982 70.1979 46.6947 70.1959 46.692C70.1949 46.6906 70.194 46.6894 70.1933 46.6884C70.1929 46.6879 70.1925 46.6873 70.1923 46.687C70.1919 46.6864 70.1915 46.6859 68.5766 47.8658C66.9616 49.0456 66.9613 49.0452 66.961 49.0448C66.961 49.0447 66.9608 49.0444 66.9607 49.0443C66.9605 49.044 66.9604 49.0439 66.9605 49.044C66.9606 49.0442 66.9613 49.0452 66.9625 49.0469C66.9649 49.0502 66.9694 49.0564 66.9759 49.0655C66.9889 49.0836 67.0099 49.1131 67.0382 49.1536C67.0949 49.2344 67.1809 49.3588 67.2908 49.5233C67.5109 49.8525 67.8263 50.3407 68.1954 50.9601C68.9356 52.2022 69.8806 53.9536 70.7057 55.9926C72.3888 60.1521 73.4142 65.1134 71.7311 69.398L75.4542 70.8605ZM59.2455 82.485C67.2944 81.5412 73.0676 76.936 75.4542 70.8605L71.7312 69.398C69.9296 73.9841 65.4907 77.7253 58.7797 78.5122L59.2455 82.485ZM48.7146 51.2769L57.0873 81.0402L60.9379 79.957L52.5652 50.1937L48.7146 51.2769ZM51.704 44.7558C50.7139 46.1564 49.9901 47.451 49.5116 48.4C49.2718 48.8756 49.0921 49.2673 48.9701 49.5459C48.9091 49.6852 48.8624 49.7965 48.8298 49.8761C48.8134 49.9159 48.8006 49.9478 48.7913 49.9714C48.7866 49.9832 48.7828 49.9928 48.7798 50.0004C48.7783 50.0042 48.7771 50.0074 48.776 50.0101C48.7755 50.0114 48.775 50.0126 48.7746 50.0137C48.7744 50.0142 48.7742 50.0147 48.774 50.0152C48.774 50.0155 48.7738 50.0158 48.7738 50.0159C48.7737 50.0162 48.7735 50.0165 50.6399 50.7353C52.5063 51.4541 52.5062 51.4544 52.5061 51.4547C52.506 51.4548 52.5059 51.4551 52.5059 51.4552C52.5057 51.4556 52.5056 51.4559 52.5055 51.4561C52.5053 51.4567 52.5051 51.4571 52.505 51.4573C52.5048 51.4579 52.5048 51.4579 52.505 51.4574C52.5054 51.4564 52.5066 51.4533 52.5087 51.4482C52.5127 51.438 52.52 51.4197 52.5307 51.3937C52.552 51.3419 52.5864 51.2595 52.6342 51.1502C52.73 50.9315 52.8791 50.6058 53.0832 50.201C53.4925 49.3894 54.1173 48.2715 54.9703 47.0647L51.704 44.7558ZM51.5476 45.1039C51.6119 44.9432 51.7406 44.6887 51.9927 44.4471C52.2668 44.1844 52.6437 43.9814 53.0891 43.9257L53.5852 47.8948C54.6353 47.7636 55.1099 46.9685 55.2616 46.5893L51.5476 45.1039ZM51.4982 45.244C51.4958 45.252 51.5009 45.2349 51.5076 45.2143C51.5152 45.191 51.5284 45.1518 51.5477 45.1037L55.2615 46.5894C55.2845 46.532 55.301 46.4835 55.3117 46.4508C55.3214 46.4208 55.3293 46.3943 55.3297 46.393L51.4982 45.244ZM51.5664 45.0476C51.5434 45.105 51.5269 45.1535 51.5162 45.1862C51.5065 45.2162 51.4987 45.2426 51.4983 45.2439L55.3296 46.393C55.3321 46.385 55.327 46.4021 55.3203 46.4227C55.3127 46.446 55.2995 46.4852 55.2803 46.5332L51.5664 45.0476ZM59.8567 37.4961C56.1923 39.3179 53.5529 42.1704 51.7964 44.6272L55.0502 46.9536C56.5828 44.8101 58.761 42.5079 61.6374 41.0779L59.8567 37.4961ZM60.1898 37.3296L59.8526 37.4982L61.6415 41.0759L61.9787 40.9073L60.1898 37.3296ZM65.1606 35.8276C63.3569 36.0865 61.7176 36.6128 60.2354 37.3075L61.9331 40.9294C63.0882 40.3879 64.3484 39.9852 65.7289 39.787L65.1606 35.8276ZM58.4601 36.2951L64.4914 39.5655L66.3981 36.0491L60.3668 32.7787L58.4601 36.2951ZM58.8483 28.9995C57.1298 30.2544 56.9244 32.0873 57.037 33.271C57.0938 33.8679 57.2324 34.3832 57.3507 34.7412C57.411 34.9237 57.4692 35.0747 57.515 35.1859C57.538 35.2417 57.5582 35.2881 57.5743 35.3241C57.5823 35.3421 57.5894 35.3576 57.5953 35.3704C57.5983 35.3768 57.601 35.3825 57.6034 35.3876C57.6046 35.3901 57.6057 35.3925 57.6067 35.3947C57.6072 35.3958 57.6077 35.3968 57.6082 35.3978C57.6085 35.3983 57.6088 35.3991 57.6089 35.3993C57.6093 35.4 57.6096 35.4007 59.4134 34.5369C61.2173 33.6731 61.2176 33.6737 61.2179 33.6744C61.218 33.6746 61.2183 33.6753 61.2185 33.6757C61.2189 33.6766 61.2193 33.6774 61.2197 33.6782C61.2204 33.6798 61.2211 33.6812 61.2217 33.6825C61.2229 33.6851 61.2239 33.6871 61.2246 33.6886C61.226 33.6916 61.2263 33.6924 61.2258 33.6912C61.2248 33.6889 61.2202 33.6787 61.2132 33.6615C61.1988 33.6266 61.1751 33.566 61.1487 33.4862C61.0936 33.3195 61.0395 33.1071 61.0191 32.8921C60.9772 32.4518 61.079 32.3236 61.2073 32.2299L58.8483 28.9995ZM66.6207 30.7898C65.0726 28.0721 61.4983 27.0632 58.8479 28.9998L61.2077 32.2295C61.7565 31.8285 62.6701 31.9359 63.145 32.7696L66.6207 30.7898ZM65.4448 33.4543C67.4319 33.2277 67.4318 33.2272 67.4318 33.2268C67.4318 33.2267 67.4317 33.2262 67.4317 33.2259C67.4316 33.2254 67.4316 33.2248 67.4315 33.2242C67.4313 33.2229 67.4312 33.2217 67.431 33.2203C67.4307 33.2177 67.4304 33.2148 67.43 33.2117C67.4293 33.2054 67.4284 33.1984 67.4274 33.1904C67.4253 33.1745 67.4227 33.1552 67.4195 33.1327C67.4131 33.0877 67.4041 33.0297 67.3919 32.9605C67.3675 32.8227 67.3299 32.6372 67.2733 32.42C67.1626 31.9954 66.9668 31.4011 66.6232 30.7943L63.1425 32.7651C63.2634 32.9787 63.3486 33.2217 63.4027 33.4293C63.4285 33.5282 63.4442 33.6075 63.4527 33.6555C63.4569 33.6792 63.4591 33.6943 63.4598 33.6992C63.4602 33.7017 63.4601 33.7015 63.4598 33.6985C63.4596 33.697 63.4593 33.6948 63.4589 33.6919C63.4588 33.6904 63.4586 33.6888 63.4583 33.6869C63.4582 33.686 63.4581 33.6851 63.458 33.684C63.458 33.6835 63.4579 33.683 63.4578 33.6825C63.4578 33.6822 63.4578 33.6818 63.4577 33.6817C63.4577 33.6813 63.4576 33.6809 65.4448 33.4543ZM70.7806 31.6638C69.1312 30.6999 67.5031 30.7358 66.3561 30.9868C65.7862 31.1115 65.3161 31.2918 64.9836 31.4431C64.8158 31.5194 64.6787 31.5903 64.5766 31.6464C64.5254 31.6746 64.4826 31.6993 64.4488 31.7193C64.4318 31.7294 64.4171 31.7383 64.4047 31.7459C64.3984 31.7498 64.3928 31.7533 64.3877 31.7564C64.3851 31.758 64.3827 31.7595 64.3805 31.761C64.3793 31.7617 64.3782 31.7624 64.3772 31.763C64.3766 31.7634 64.3759 31.7639 64.3756 31.764C64.3748 31.7645 64.3741 31.765 65.4448 33.4543C66.5154 35.1435 66.5147 35.144 66.514 35.1445C66.5137 35.1446 66.513 35.1451 66.5126 35.1454C66.5116 35.1459 66.5107 35.1465 66.5099 35.1471C66.5081 35.1482 66.5065 35.1492 66.505 35.1501C66.5019 35.152 66.4993 35.1536 66.4972 35.1549C66.4929 35.1575 66.4904 35.159 66.4896 35.1595C66.488 35.1605 66.4931 35.1574 66.5044 35.1512C66.5272 35.1386 66.5735 35.1142 66.6396 35.0842C66.7747 35.0227 66.9741 34.9462 67.211 34.8943C67.6776 34.7923 68.213 34.7963 68.7626 35.1174L70.7806 31.6638ZM73.4893 37.3976C73.5012 36.7517 73.5374 35.6915 73.2164 34.6475C72.8578 33.4814 72.0998 32.4343 70.7803 31.6636L68.7628 35.1175C69.2152 35.3818 69.3291 35.6152 69.3931 35.8232C69.4946 36.1534 69.504 36.5609 69.49 37.3244L73.4893 37.3976ZM73.4836 37.856C73.4836 37.7148 73.4862 37.5679 73.4893 37.3976L69.49 37.3244C69.487 37.488 69.4836 37.6719 69.4836 37.856H73.4836ZM73.4836 39.583V37.856H69.4836V39.583H73.4836ZM76.035 40.4676L72.6747 37.9763L70.2925 41.1896L73.6528 43.6808L76.035 40.4676ZM72.2958 45.5052L75.7048 43.8794L73.9829 40.269L70.5739 41.8948L72.2958 45.5052ZM74.0277 44.1142L73.1436 42.6607L69.7262 44.7394L70.6102 46.1929L74.0277 44.1142ZM74.2292 44.454C74.1691 44.3393 74.0696 44.1579 73.9291 43.9672L70.7089 46.3399C70.6889 46.3128 70.6779 46.2946 70.6757 46.2909C70.6735 46.2872 70.6763 46.2917 70.6859 46.3101L74.2292 44.454ZM74.5714 45.48C74.5068 45.1015 74.3846 44.779 74.2661 44.528L70.6491 46.2361C70.6527 46.2437 70.6508 46.2408 70.6467 46.2284C70.6425 46.2159 70.6348 46.1904 70.6285 46.1532L74.5714 45.48ZM71.5178 49.7339C73.4669 49.3886 74.9384 47.5537 74.5693 45.4681L70.6305 46.1651C70.6097 46.0475 70.6465 45.9436 70.6904 45.8839C70.7327 45.8265 70.7845 45.8016 70.82 45.7953L71.5178 49.7339ZM68.1269 48.625C68.9693 49.5165 70.2366 49.9619 71.5192 49.7337L70.8186 45.7955C70.8799 45.7846 70.9635 45.803 71.0342 45.8778L68.1269 48.625ZM48.736 44.7712C48.3399 43.1413 46.6946 42.1743 45.099 42.5621L46.0437 46.449C45.5271 46.5746 44.9831 46.2669 44.8492 45.7159L48.736 44.7712ZM61.2534 89.5278L48.7187 44.7049L44.8665 45.7822L57.4012 90.6051L61.2534 89.5278ZM61.2815 89.6396C61.2786 89.6274 61.2763 89.6177 61.2741 89.6084L57.3805 90.5245C57.384 90.5396 57.3875 90.5541 57.3903 90.5659L61.2815 89.6396ZM61.3343 89.8815C61.3147 89.7773 61.2915 89.6814 61.2815 89.6396L57.3903 90.5658C57.3934 90.5789 57.3957 90.5885 57.3978 90.5976C57.3998 90.6063 57.4012 90.6125 57.4023 90.617C57.4044 90.6265 57.4041 90.6256 57.4027 90.6185L61.3343 89.8815ZM55.9108 92.25H59.3685V88.25H55.9108V92.25ZM52.7884 86.8832C52.9289 87.3422 53.2314 88.3303 53.4988 89.2036C53.6325 89.6403 53.7574 90.0482 53.8489 90.347C53.8946 90.4965 53.932 90.6186 53.9579 90.7033C53.9709 90.7457 53.981 90.7788 53.9879 90.8012C53.9914 90.8124 53.994 90.821 53.9957 90.8268C53.9966 90.8297 53.9973 90.8319 53.9977 90.8333C53.998 90.834 53.9981 90.8346 53.9982 90.835C53.9983 90.8352 53.9983 90.8353 53.9984 90.8354C53.9984 90.8354 53.9984 90.8355 53.9984 90.8355C53.9984 90.8355 53.9984 90.8355 55.9108 90.25C57.8232 89.6645 57.8232 89.6645 57.8232 89.6644C57.8231 89.6644 57.8231 89.6644 57.8231 89.6643C57.8231 89.6643 57.823 89.6641 57.823 89.6639C57.8229 89.6636 57.8227 89.663 57.8225 89.6623C57.822 89.6608 57.8214 89.6586 57.8205 89.6558C57.8187 89.65 57.8161 89.6414 57.8127 89.6302C57.8058 89.6077 57.7957 89.5747 57.7827 89.5323C57.7567 89.4475 57.7194 89.3254 57.6736 89.176C57.5821 88.8772 57.4572 88.4692 57.3235 88.0326C57.0561 87.1592 56.7536 86.1712 56.6132 85.7124L52.7884 86.8832ZM53.8504 83.5219C51.9386 84.1093 51.9386 84.1093 51.9386 84.1093C51.9386 84.1093 51.9386 84.1094 51.9386 84.1094C51.9387 84.1095 51.9387 84.1095 51.9387 84.1097C51.9388 84.1099 51.9389 84.1103 51.9391 84.1107C51.9393 84.1117 51.9398 84.1132 51.9404 84.1151C51.9416 84.1189 51.9433 84.1246 51.9456 84.132C51.9502 84.1469 51.9569 84.1689 51.9656 84.1971C51.9829 84.2535 52.0079 84.335 52.0387 84.4352C52.1002 84.6356 52.1847 84.9108 52.2764 85.2097C52.4601 85.8087 52.672 86.5002 52.7872 86.8794L56.6144 85.7162C56.4973 85.3312 56.284 84.6347 56.1006 84.0368C56.0087 83.7373 55.9241 83.4618 55.8625 83.2611C55.8317 83.1607 55.8066 83.0791 55.7892 83.0226C55.7806 82.9943 55.7738 82.9723 55.7692 82.9573C55.7669 82.9498 55.7652 82.9441 55.764 82.9403C55.7634 82.9384 55.7629 82.9369 55.7626 82.9359C55.7625 82.9355 55.7624 82.9351 55.7623 82.9348C55.7623 82.9347 55.7622 82.9346 55.7622 82.9346C55.7622 82.9345 55.7622 82.9345 55.7622 82.9345C55.7622 82.9345 55.7622 82.9345 53.8504 83.5219ZM50.3253 82.1932C50.8253 82.4331 51.078 82.6275 51.2653 82.8416C51.4649 83.0698 51.698 83.4447 51.9678 84.1971L55.733 82.8467C55.366 81.8234 54.921 80.9452 54.2758 80.2078C53.6184 79.4564 52.8597 78.9727 52.0559 78.587L50.3253 82.1932ZM46.5531 80.9722C48.1773 81.3872 49.2058 81.6561 50.3255 82.1933L52.0557 78.5869C50.5251 77.8526 49.1185 77.4992 47.5434 77.0967L46.5531 80.9722ZM44.3968 80.4022C45.2057 80.6279 45.9198 80.8104 46.5531 80.9722L47.5434 77.0967C46.9081 76.9344 46.2334 76.7619 45.4722 76.5494L44.3968 80.4022ZM33.4807 69.7814C35.3569 76.3745 40.8383 79.4083 44.3965 80.4021L45.4725 76.5495C42.6998 75.7751 38.6883 73.4669 37.3279 68.6866L33.4807 69.7814ZM31.0288 45.7268C29.0598 46.0777 29.0598 46.0778 29.0598 46.078C29.0598 46.0781 29.0599 46.0784 29.06 46.0787C29.0601 46.0794 29.0603 46.0804 29.0605 46.0817C29.061 46.0844 29.0617 46.0883 29.0626 46.0936C29.0645 46.1041 29.0673 46.1198 29.071 46.1404C29.0783 46.1817 29.0893 46.243 29.1035 46.323C29.1321 46.483 29.174 46.7178 29.2276 47.0172C29.3346 47.616 29.4881 48.4732 29.6739 49.5074C30.0453 51.5755 30.5459 54.3517 31.0621 57.1831C31.5782 60.0136 32.1105 62.9028 32.5454 65.1957C32.9673 67.4199 33.3244 69.2327 33.4808 69.7818L37.3278 68.6862C37.235 68.3605 36.9206 66.7976 36.4754 64.4502C36.0431 62.1715 35.5128 59.2932 34.9972 56.4656C34.4819 53.6389 33.982 50.8663 33.6109 48.8002C33.4253 47.7672 33.272 46.911 33.1651 46.3131C33.1116 46.0141 33.0698 45.7798 33.0413 45.6202C33.0271 45.5404 33.0162 45.4793 33.0088 45.4381C33.0052 45.4176 33.0024 45.402 33.0005 45.3916C32.9996 45.3864 32.9989 45.3824 32.9984 45.3798C32.9982 45.3785 32.998 45.3775 32.9979 45.3769C32.9978 45.3766 32.9978 45.3763 32.9978 45.3762C32.9977 45.376 32.9977 45.3759 31.0288 45.7268ZM31.2944 42.5621C29.6645 42.9583 28.6975 44.6036 29.0853 46.1992L32.9722 45.2545C33.0977 45.7711 32.7901 46.3151 32.2391 46.449L31.2944 42.5621ZM34.9314 44.7712C34.5353 43.1413 32.89 42.1743 31.2944 42.5621L32.2391 46.449C31.7224 46.5746 31.1785 46.2669 31.0446 45.7159L34.9314 44.7712ZM39.3381 63.7889L34.9364 44.7921L31.0396 45.695L35.4414 64.6918L39.3381 63.7889ZM39.0118 62.2404H37.3897V66.2404H39.0118V62.2404ZM33.7646 46.0755L37.0425 64.5891L40.9812 63.8917L37.7033 45.3781L33.7646 46.0755ZM35.9996 42.5621C34.3697 42.9583 33.4027 44.6036 33.7905 46.1992L37.6774 45.2545C37.8029 45.7711 37.4953 46.3151 36.9443 46.449L35.9996 42.5621ZM39.6366 44.7712C39.2404 43.1413 37.5951 42.1743 35.9996 42.5621L36.9443 46.449C36.4276 46.5746 35.8837 46.2669 35.7498 45.7159L39.6366 44.7712ZM44.2373 63.7696L39.637 44.7728L35.7494 45.7143L40.3497 64.7111L44.2373 63.7696ZM44.1441 62.2404H42.2935V66.2404H44.1441V62.2404ZM38.1736 46.1508L42.1895 64.6643L46.0986 63.8164L42.0827 45.3028L38.1736 46.1508ZM40.3938 42.5621C38.7639 42.9583 37.797 44.6036 38.1848 46.1992L42.0716 45.2545C42.1972 45.7711 41.8895 46.3151 41.3385 46.449L40.3938 42.5621ZM44.0309 44.7712C43.6347 43.1413 41.9894 42.1743 40.3938 42.5621L41.3385 46.449C40.8219 46.5746 40.2779 46.2669 40.144 45.7159L44.0309 44.7712ZM49.3074 63.7035L44.014 44.7067L40.1608 45.7804L45.4542 64.7772L49.3074 63.7035ZM49.0965 62.2404H47.3808V66.2404H49.0965V62.2404ZM42.8844 46.1756L47.1475 64.6892L51.0455 63.7916L46.7824 45.278L42.8844 46.1756ZM45.099 42.5621C43.4691 42.9583 42.5021 44.6036 42.89 46.1992L46.7768 45.2545C46.9024 45.7711 46.5947 46.3151 46.0437 46.449L45.099 42.5621Z" fill="#FF5F2D" mask="url(#path-4-inside-1_54_6686)"/>
</g>
<g style="mix-blend-mode:hard-light">
<mask id="path-6-inside-2_54_6686" fill="white">
<path d="M69.5805 47.2514L69.4906 47.139H69.4869C69.2059 47.4012 68.9025 47.6485 68.5766 47.8658C68.5766 47.8658 77.5262 60.1157 73.5927 70.1292C71.4986 75.46 66.3925 79.6333 59.0126 80.4986L50.6399 50.7353C50.6399 50.7353 51.494 48.5176 53.3372 45.9103C53.3671 45.9065 53.3896 45.884 53.4046 45.8466C53.4083 45.8372 53.4111 45.8278 53.4139 45.8185C53.4168 45.8091 53.4196 45.7998 53.4233 45.7904C55.0679 43.4902 57.4767 40.9129 60.7471 39.287L61.0842 39.1185C62.4029 38.5003 63.8526 38.0358 65.4448 37.8073L59.4134 34.5369C59.4134 34.5369 58.1809 31.9633 60.0278 30.6147C61.6274 29.4459 63.8714 30.004 64.8828 31.7797C65.3474 32.6001 65.4448 33.4543 65.4448 33.4543C65.4448 33.4543 67.5726 32.1056 69.7716 33.3906C71.5434 34.4255 71.5155 35.9516 71.4897 37.361C71.4866 37.528 71.4836 37.6933 71.4836 37.856V39.583L74.8439 42.0742L71.4349 43.7L72.319 45.1535C72.3714 45.2247 72.4164 45.3034 72.4576 45.3821C72.5213 45.5169 72.5737 45.663 72.5999 45.8166C72.761 46.7269 72.1204 47.596 71.1689 47.7646C70.5583 47.8733 69.9664 47.6597 69.5805 47.2514Z"/>
<path d="M45.5714 44.5056C46.1108 44.3744 46.6615 44.7041 46.7926 45.2436L59.3273 90.0664C59.3302 90.0787 59.333 90.0908 59.3359 90.1027C59.3479 90.1531 59.3594 90.2016 59.3685 90.25H55.9108C55.9108 90.25 54.9817 87.2156 54.7008 86.2978C54.4685 85.5336 53.8504 83.5219 53.8504 83.5219C53.2136 81.7462 52.4943 81.0157 51.1906 80.3901C49.8655 79.7544 48.6479 79.4432 47.0483 79.0345C46.414 78.8724 45.7195 78.6949 44.9345 78.4758C41.769 77.5917 37.0226 74.9207 35.4043 69.234C34.906 67.4845 31.0288 45.7268 31.0288 45.7268C30.8976 45.1874 31.2273 44.6367 31.7667 44.5056C32.3062 44.3744 32.8569 44.7041 32.988 45.2436L37.3897 64.2404H39.0118L35.7339 45.7268C35.6028 45.1874 35.9325 44.6367 36.4719 44.5056C37.0114 44.3744 37.5621 44.7041 37.6932 45.2436L42.2935 64.2404H44.1441L40.1282 45.7268C39.9971 45.1874 40.3267 44.6367 40.8662 44.5056C41.4056 44.3744 41.9563 44.7041 42.0874 45.2436L47.3808 64.2404H49.0965L44.8334 45.7268C44.7023 45.1874 45.0319 44.6367 45.5714 44.5056Z"/>
</mask>
<path d="M69.5805 47.2514L69.4906 47.139H69.4869C69.2059 47.4012 68.9025 47.6485 68.5766 47.8658C68.5766 47.8658 77.5262 60.1157 73.5927 70.1292C71.4986 75.46 66.3925 79.6333 59.0126 80.4986L50.6399 50.7353C50.6399 50.7353 51.494 48.5176 53.3372 45.9103C53.3671 45.9065 53.3896 45.884 53.4046 45.8466C53.4083 45.8372 53.4111 45.8278 53.4139 45.8185C53.4168 45.8091 53.4196 45.7998 53.4233 45.7904C55.0679 43.4902 57.4767 40.9129 60.7471 39.287L61.0842 39.1185C62.4029 38.5003 63.8526 38.0358 65.4448 37.8073L59.4134 34.5369C59.4134 34.5369 58.1809 31.9633 60.0278 30.6147C61.6274 29.4459 63.8714 30.004 64.8828 31.7797C65.3474 32.6001 65.4448 33.4543 65.4448 33.4543C65.4448 33.4543 67.5726 32.1056 69.7716 33.3906C71.5434 34.4255 71.5155 35.9516 71.4897 37.361C71.4866 37.528 71.4836 37.6933 71.4836 37.856V39.583L74.8439 42.0742L71.4349 43.7L72.319 45.1535C72.3714 45.2247 72.4164 45.3034 72.4576 45.3821C72.5213 45.5169 72.5737 45.663 72.5999 45.8166C72.761 46.7269 72.1204 47.596 71.1689 47.7646C70.5583 47.8733 69.9664 47.6597 69.5805 47.2514Z" fill="#FF5F2D" fill-opacity="0.05"/>
<path d="M45.5714 44.5056C46.1108 44.3744 46.6615 44.7041 46.7926 45.2436L59.3273 90.0664C59.3302 90.0787 59.333 90.0908 59.3359 90.1027C59.3479 90.1531 59.3594 90.2016 59.3685 90.25H55.9108C55.9108 90.25 54.9817 87.2156 54.7008 86.2978C54.4685 85.5336 53.8504 83.5219 53.8504 83.5219C53.2136 81.7462 52.4943 81.0157 51.1906 80.3901C49.8655 79.7544 48.6479 79.4432 47.0483 79.0345C46.414 78.8724 45.7195 78.6949 44.9345 78.4758C41.769 77.5917 37.0226 74.9207 35.4043 69.234C34.906 67.4845 31.0288 45.7268 31.0288 45.7268C30.8976 45.1874 31.2273 44.6367 31.7667 44.5056C32.3062 44.3744 32.8569 44.7041 32.988 45.2436L37.3897 64.2404H39.0118L35.7339 45.7268C35.6028 45.1874 35.9325 44.6367 36.4719 44.5056C37.0114 44.3744 37.5621 44.7041 37.6932 45.2436L42.2935 64.2404H44.1441L40.1282 45.7268C39.9971 45.1874 40.3267 44.6367 40.8662 44.5056C41.4056 44.3744 41.9563 44.7041 42.0874 45.2436L47.3808 64.2404H49.0965L44.8334 45.7268C44.7023 45.1874 45.0319 44.6367 45.5714 44.5056Z" fill="#FF5F2D" fill-opacity="0.05"/>
<path d="M69.4906 47.139L71.0524 45.8896L70.4519 45.139H69.4906V47.139ZM69.5805 47.2514L68.0188 48.5008L68.0703 48.5651L68.1269 48.625L69.5805 47.2514ZM69.4869 47.139V45.139H68.6986L68.1222 45.6769L69.4869 47.139ZM68.5766 47.8658L67.4672 46.2017L65.73 47.3598L66.9616 49.0456L68.5766 47.8658ZM73.5927 70.1292L75.4542 70.8605L75.4542 70.8605L73.5927 70.1292ZM59.0126 80.4986L57.0873 81.0402L57.5497 82.6839L59.2455 82.485L59.0126 80.4986ZM50.6399 50.7353L48.7735 50.0165L48.5346 50.6369L48.7146 51.2769L50.6399 50.7353ZM53.3372 45.9103L53.0891 43.9257L52.2134 44.0351L51.704 44.7558L53.3372 45.9103ZM53.4046 45.8466L51.5477 45.1037L51.5476 45.1039L53.4046 45.8466ZM53.4139 45.8185L51.4983 45.2439L51.4982 45.244L53.4139 45.8185ZM53.4233 45.7904L51.7964 44.6272L51.656 44.8235L51.5664 45.0476L53.4233 45.7904ZM60.7471 39.287L61.6374 41.0779L61.6415 41.0759L60.7471 39.287ZM61.0842 39.1185L60.2354 37.3075L60.2124 37.3183L60.1898 37.3296L61.0842 39.1185ZM65.4448 37.8073L65.7289 39.787L71.7087 38.9287L66.3981 36.0491L65.4448 37.8073ZM59.4134 34.5369L57.6096 35.4007L57.8898 35.9858L58.4601 36.2951L59.4134 34.5369ZM60.0278 30.6147L61.2073 32.2299L61.2077 32.2295L60.0278 30.6147ZM64.8828 31.7797L66.6232 30.7943L66.6207 30.7898L64.8828 31.7797ZM65.4448 33.4543L63.4576 33.6809L63.8193 36.8523L66.5154 35.1435L65.4448 33.4543ZM69.7716 33.3906L68.7626 35.1174L68.7628 35.1175L69.7716 33.3906ZM71.4897 37.361L73.4893 37.3976V37.3976L71.4897 37.361ZM71.4836 39.583H69.4836V40.5899L70.2925 41.1896L71.4836 39.583ZM74.8439 42.0742L75.7048 43.8794L78.7063 42.4479L76.035 40.4676L74.8439 42.0742ZM71.4349 43.7L70.5739 41.8948L68.5756 42.8479L69.7262 44.7394L71.4349 43.7ZM72.319 45.1535L70.6102 46.1929L70.6563 46.2686L70.7089 46.3399L72.319 45.1535ZM72.4576 45.3821L74.2661 44.528L74.2484 44.4906L74.2292 44.454L72.4576 45.3821ZM72.5999 45.8166L70.6284 46.1532L70.6305 46.1651L72.5999 45.8166ZM71.1689 47.7646L70.82 45.7953L70.8186 45.7955L71.1689 47.7646ZM46.7926 45.2436L44.8492 45.7159L44.8573 45.7492L44.8665 45.7822L46.7926 45.2436ZM59.3273 90.0664L61.2741 89.6084L61.2646 89.5679L61.2534 89.5278L59.3273 90.0664ZM59.3359 90.1027L61.2815 89.6396L61.2815 89.6396L59.3359 90.1027ZM59.3685 90.25V92.25H61.7783L61.3343 89.8815L59.3685 90.25ZM55.9108 90.25L53.9984 90.8355L54.4315 92.25H55.9108V90.25ZM54.7008 86.2978L52.7872 86.8794L52.7884 86.8832L54.7008 86.2978ZM53.8504 83.5219L55.7622 82.9345L55.7486 82.8902L55.733 82.8467L53.8504 83.5219ZM51.1906 80.3901L52.0559 78.587L52.0557 78.5869L51.1906 80.3901ZM47.0483 79.0345L47.5434 77.0967H47.5434L47.0483 79.0345ZM44.9345 78.4758L44.3965 80.4021L44.3968 80.4022L44.9345 78.4758ZM35.4043 69.234L37.3279 68.6866L37.3278 68.6862L35.4043 69.234ZM31.0288 45.7268L32.9977 45.3759L32.9868 45.3148L32.9722 45.2545L31.0288 45.7268ZM31.7667 44.5056L32.2391 46.449L31.7667 44.5056ZM32.988 45.2436L34.9364 44.7921L34.934 44.7816L34.9314 44.7712L32.988 45.2436ZM37.3897 64.2404L35.4414 64.6918L35.8002 66.2404H37.3897V64.2404ZM39.0118 64.2404V66.2404H41.397L40.9812 63.8917L39.0118 64.2404ZM35.7339 45.7268L37.7033 45.3781L37.6923 45.3159L37.6774 45.2545L35.7339 45.7268ZM37.6932 45.2436L39.637 44.7728L39.6366 44.7712L37.6932 45.2436ZM42.2935 64.2404L40.3497 64.7111L40.72 66.2404H42.2935V64.2404ZM44.1441 64.2404V66.2404H46.6244L46.0986 63.8164L44.1441 64.2404ZM40.1282 45.7268L42.0827 45.3028L42.0775 45.2786L42.0716 45.2545L40.1282 45.7268ZM40.8662 44.5056L40.3938 42.5621L40.3938 42.5621L40.8662 44.5056ZM42.0874 45.2436L40.144 45.7159L40.1519 45.7483L40.1608 45.7804L42.0874 45.2436ZM47.3808 64.2404L45.4542 64.7772L45.8619 66.2404H47.3808V64.2404ZM49.0965 64.2404V66.2404H51.6094L51.0455 63.7916L49.0965 64.2404ZM44.8334 45.7268L46.7824 45.278L46.7797 45.2662L46.7768 45.2545L44.8334 45.7268ZM67.9289 48.3884L68.0188 48.5008L71.1423 46.002L71.0524 45.8896L67.9289 48.3884ZM69.4869 49.139H69.4906V45.139H69.4869V49.139ZM69.686 49.5299C70.1168 49.2427 70.5049 48.9246 70.8515 48.6011L68.1222 45.6769C67.9069 45.8779 67.6882 46.0543 67.4672 46.2017L69.686 49.5299ZM75.4542 70.8605C77.7046 65.1316 76.222 58.9612 74.4136 54.4922C73.493 52.2171 72.4465 50.2801 71.6316 48.9125C71.2231 48.2269 70.87 47.6799 70.616 47.3001C70.489 47.11 70.3865 46.9615 70.314 46.858C70.2777 46.8063 70.2489 46.7657 70.2283 46.7369C70.218 46.7225 70.2097 46.711 70.2035 46.7025C70.2004 46.6982 70.1979 46.6947 70.1959 46.692C70.1949 46.6906 70.194 46.6894 70.1933 46.6884C70.1929 46.6879 70.1925 46.6873 70.1923 46.687C70.1919 46.6864 70.1915 46.6859 68.5766 47.8658C66.9616 49.0456 66.9613 49.0452 66.961 49.0448C66.961 49.0447 66.9608 49.0444 66.9607 49.0443C66.9605 49.044 66.9604 49.0439 66.9605 49.044C66.9606 49.0442 66.9613 49.0452 66.9625 49.0469C66.9649 49.0502 66.9694 49.0564 66.9759 49.0655C66.9889 49.0836 67.0099 49.1131 67.0382 49.1536C67.0949 49.2344 67.1809 49.3588 67.2908 49.5233C67.5109 49.8525 67.8263 50.3407 68.1954 50.9601C68.9356 52.2022 69.8806 53.9536 70.7057 55.9926C72.3888 60.1521 73.4142 65.1134 71.7311 69.398L75.4542 70.8605ZM59.2455 82.485C67.2944 81.5412 73.0676 76.936 75.4542 70.8605L71.7312 69.398C69.9296 73.9841 65.4907 77.7253 58.7797 78.5122L59.2455 82.485ZM48.7146 51.2769L57.0873 81.0402L60.9379 79.957L52.5652 50.1937L48.7146 51.2769ZM51.704 44.7558C50.7139 46.1564 49.9901 47.451 49.5116 48.4C49.2718 48.8756 49.0921 49.2673 48.9701 49.5459C48.9091 49.6852 48.8624 49.7965 48.8298 49.8761C48.8134 49.9159 48.8006 49.9478 48.7913 49.9714C48.7866 49.9832 48.7828 49.9928 48.7798 50.0004C48.7783 50.0042 48.7771 50.0074 48.776 50.0101C48.7755 50.0114 48.775 50.0126 48.7746 50.0137C48.7744 50.0142 48.7742 50.0147 48.774 50.0152C48.774 50.0155 48.7738 50.0158 48.7738 50.0159C48.7737 50.0162 48.7735 50.0165 50.6399 50.7353C52.5063 51.4541 52.5062 51.4544 52.5061 51.4547C52.506 51.4548 52.5059 51.4551 52.5059 51.4552C52.5057 51.4556 52.5056 51.4559 52.5055 51.4561C52.5053 51.4567 52.5051 51.4571 52.505 51.4573C52.5048 51.4579 52.5048 51.4579 52.505 51.4574C52.5054 51.4564 52.5066 51.4533 52.5087 51.4482C52.5127 51.438 52.52 51.4197 52.5307 51.3937C52.552 51.3419 52.5864 51.2595 52.6342 51.1502C52.73 50.9315 52.8791 50.6058 53.0832 50.201C53.4925 49.3894 54.1173 48.2715 54.9703 47.0647L51.704 44.7558ZM51.5476 45.1039C51.6119 44.9432 51.7406 44.6887 51.9927 44.4471C52.2668 44.1844 52.6437 43.9814 53.0891 43.9257L53.5852 47.8948C54.6353 47.7636 55.1099 46.9685 55.2616 46.5893L51.5476 45.1039ZM51.4982 45.244C51.4958 45.252 51.5009 45.2349 51.5076 45.2143C51.5152 45.191 51.5284 45.1518 51.5477 45.1037L55.2615 46.5894C55.2845 46.532 55.301 46.4835 55.3117 46.4508C55.3214 46.4208 55.3293 46.3943 55.3297 46.393L51.4982 45.244ZM51.5664 45.0476C51.5434 45.105 51.5269 45.1535 51.5162 45.1862C51.5065 45.2162 51.4987 45.2426 51.4983 45.2439L55.3296 46.393C55.3321 46.385 55.327 46.4021 55.3203 46.4227C55.3127 46.446 55.2995 46.4852 55.2803 46.5332L51.5664 45.0476ZM59.8567 37.4961C56.1923 39.3179 53.5529 42.1704 51.7964 44.6272L55.0502 46.9536C56.5828 44.8101 58.761 42.5079 61.6374 41.0779L59.8567 37.4961ZM60.1898 37.3296L59.8526 37.4982L61.6415 41.0759L61.9787 40.9073L60.1898 37.3296ZM65.1606 35.8276C63.3569 36.0865 61.7176 36.6128 60.2354 37.3075L61.9331 40.9294C63.0882 40.3879 64.3484 39.9852 65.7289 39.787L65.1606 35.8276ZM58.4601 36.2951L64.4914 39.5655L66.3981 36.0491L60.3668 32.7787L58.4601 36.2951ZM58.8483 28.9995C57.1298 30.2544 56.9244 32.0873 57.037 33.271C57.0938 33.8679 57.2324 34.3832 57.3507 34.7412C57.411 34.9237 57.4692 35.0747 57.515 35.1859C57.538 35.2417 57.5582 35.2881 57.5743 35.3241C57.5823 35.3421 57.5894 35.3576 57.5953 35.3704C57.5983 35.3768 57.601 35.3825 57.6034 35.3876C57.6046 35.3901 57.6057 35.3925 57.6067 35.3947C57.6072 35.3958 57.6077 35.3968 57.6082 35.3978C57.6085 35.3983 57.6088 35.3991 57.6089 35.3993C57.6093 35.4 57.6096 35.4007 59.4134 34.5369C61.2173 33.6731 61.2176 33.6737 61.2179 33.6744C61.218 33.6746 61.2183 33.6753 61.2185 33.6757C61.2189 33.6766 61.2193 33.6774 61.2197 33.6782C61.2204 33.6798 61.2211 33.6812 61.2217 33.6825C61.2229 33.6851 61.2239 33.6871 61.2246 33.6886C61.226 33.6916 61.2263 33.6924 61.2258 33.6912C61.2248 33.6889 61.2202 33.6787 61.2132 33.6615C61.1988 33.6266 61.1751 33.566 61.1487 33.4862C61.0936 33.3195 61.0395 33.1071 61.0191 32.8921C60.9772 32.4518 61.079 32.3236 61.2073 32.2299L58.8483 28.9995ZM66.6207 30.7898C65.0726 28.0721 61.4983 27.0632 58.8479 28.9998L61.2077 32.2295C61.7565 31.8285 62.6701 31.9359 63.145 32.7696L66.6207 30.7898ZM65.4448 33.4543C67.4319 33.2277 67.4318 33.2272 67.4318 33.2268C67.4318 33.2267 67.4317 33.2262 67.4317 33.2259C67.4316 33.2254 67.4316 33.2248 67.4315 33.2242C67.4313 33.2229 67.4312 33.2217 67.431 33.2203C67.4307 33.2177 67.4304 33.2148 67.43 33.2117C67.4293 33.2054 67.4284 33.1984 67.4274 33.1904C67.4253 33.1745 67.4227 33.1552 67.4195 33.1327C67.4131 33.0877 67.4041 33.0297 67.3919 32.9605C67.3675 32.8227 67.3299 32.6372 67.2733 32.42C67.1626 31.9954 66.9668 31.4011 66.6232 30.7943L63.1425 32.7651C63.2634 32.9787 63.3486 33.2217 63.4027 33.4293C63.4285 33.5282 63.4442 33.6075 63.4527 33.6555C63.4569 33.6792 63.4591 33.6943 63.4598 33.6992C63.4602 33.7017 63.4601 33.7015 63.4598 33.6985C63.4596 33.697 63.4593 33.6948 63.4589 33.6919C63.4588 33.6904 63.4586 33.6888 63.4583 33.6869C63.4582 33.686 63.4581 33.6851 63.458 33.684C63.458 33.6835 63.4579 33.683 63.4578 33.6825C63.4578 33.6822 63.4578 33.6818 63.4577 33.6817C63.4577 33.6813 63.4576 33.6809 65.4448 33.4543ZM70.7806 31.6638C69.1312 30.6999 67.5031 30.7358 66.3561 30.9868C65.7862 31.1115 65.3161 31.2918 64.9836 31.4431C64.8158 31.5194 64.6787 31.5903 64.5766 31.6464C64.5254 31.6746 64.4826 31.6993 64.4488 31.7193C64.4318 31.7294 64.4171 31.7383 64.4047 31.7459C64.3984 31.7498 64.3928 31.7533 64.3877 31.7564C64.3851 31.758 64.3827 31.7595 64.3805 31.761C64.3793 31.7617 64.3782 31.7624 64.3772 31.763C64.3766 31.7634 64.3759 31.7639 64.3756 31.764C64.3748 31.7645 64.3741 31.765 65.4448 33.4543C66.5154 35.1435 66.5147 35.144 66.514 35.1445C66.5137 35.1446 66.513 35.1451 66.5126 35.1454C66.5116 35.1459 66.5107 35.1465 66.5099 35.1471C66.5081 35.1482 66.5065 35.1492 66.505 35.1501C66.5019 35.152 66.4993 35.1536 66.4972 35.1549C66.4929 35.1575 66.4904 35.159 66.4896 35.1595C66.488 35.1605 66.4931 35.1574 66.5044 35.1512C66.5272 35.1386 66.5735 35.1142 66.6396 35.0842C66.7747 35.0227 66.9741 34.9462 67.211 34.8943C67.6776 34.7923 68.213 34.7963 68.7626 35.1174L70.7806 31.6638ZM73.4893 37.3976C73.5012 36.7517 73.5374 35.6915 73.2164 34.6475C72.8578 33.4814 72.0998 32.4343 70.7803 31.6636L68.7628 35.1175C69.2152 35.3818 69.3291 35.6152 69.3931 35.8232C69.4946 36.1534 69.504 36.5609 69.49 37.3244L73.4893 37.3976ZM73.4836 37.856C73.4836 37.7148 73.4862 37.5679 73.4893 37.3976L69.49 37.3244C69.487 37.488 69.4836 37.6719 69.4836 37.856H73.4836ZM73.4836 39.583V37.856H69.4836V39.583H73.4836ZM76.035 40.4676L72.6747 37.9763L70.2925 41.1896L73.6528 43.6808L76.035 40.4676ZM72.2958 45.5052L75.7048 43.8794L73.9829 40.269L70.5739 41.8948L72.2958 45.5052ZM74.0277 44.1142L73.1436 42.6607L69.7262 44.7394L70.6102 46.1929L74.0277 44.1142ZM74.2292 44.454C74.1691 44.3393 74.0696 44.1579 73.9291 43.9672L70.7089 46.3399C70.6889 46.3128 70.6779 46.2946 70.6757 46.2909C70.6735 46.2872 70.6763 46.2917 70.6859 46.3101L74.2292 44.454ZM74.5714 45.48C74.5068 45.1015 74.3846 44.779 74.2661 44.528L70.6491 46.2361C70.6527 46.2437 70.6508 46.2408 70.6467 46.2284C70.6425 46.2159 70.6348 46.1904 70.6285 46.1532L74.5714 45.48ZM71.5178 49.7339C73.4669 49.3886 74.9384 47.5537 74.5693 45.4681L70.6305 46.1651C70.6097 46.0475 70.6465 45.9436 70.6904 45.8839C70.7327 45.8265 70.7845 45.8016 70.82 45.7953L71.5178 49.7339ZM68.1269 48.625C68.9693 49.5165 70.2366 49.9619 71.5192 49.7337L70.8186 45.7955C70.8799 45.7846 70.9635 45.803 71.0342 45.8778L68.1269 48.625ZM48.736 44.7712C48.3399 43.1413 46.6946 42.1743 45.099 42.5621L46.0437 46.449C45.5271 46.5746 44.9831 46.2669 44.8492 45.7159L48.736 44.7712ZM61.2534 89.5278L48.7187 44.7049L44.8665 45.7822L57.4012 90.6051L61.2534 89.5278ZM61.2815 89.6396C61.2786 89.6274 61.2763 89.6177 61.2741 89.6084L57.3805 90.5245C57.384 90.5396 57.3875 90.5541 57.3903 90.5659L61.2815 89.6396ZM61.3343 89.8815C61.3147 89.7773 61.2915 89.6814 61.2815 89.6396L57.3903 90.5658C57.3934 90.5789 57.3957 90.5885 57.3978 90.5976C57.3998 90.6063 57.4012 90.6125 57.4023 90.617C57.4044 90.6265 57.4041 90.6256 57.4027 90.6185L61.3343 89.8815ZM55.9108 92.25H59.3685V88.25H55.9108V92.25ZM52.7884 86.8832C52.9289 87.3422 53.2314 88.3303 53.4988 89.2036C53.6325 89.6403 53.7574 90.0482 53.8489 90.347C53.8946 90.4965 53.932 90.6186 53.9579 90.7033C53.9709 90.7457 53.981 90.7788 53.9879 90.8012C53.9914 90.8124 53.994 90.821 53.9957 90.8268C53.9966 90.8297 53.9973 90.8319 53.9977 90.8333C53.998 90.834 53.9981 90.8346 53.9982 90.835C53.9983 90.8352 53.9983 90.8353 53.9984 90.8354C53.9984 90.8354 53.9984 90.8355 53.9984 90.8355C53.9984 90.8355 53.9984 90.8355 55.9108 90.25C57.8232 89.6645 57.8232 89.6645 57.8232 89.6644C57.8231 89.6644 57.8231 89.6644 57.8231 89.6643C57.8231 89.6643 57.823 89.6641 57.823 89.6639C57.8229 89.6636 57.8227 89.663 57.8225 89.6623C57.822 89.6608 57.8214 89.6586 57.8205 89.6558C57.8187 89.65 57.8161 89.6414 57.8127 89.6302C57.8058 89.6077 57.7957 89.5747 57.7827 89.5323C57.7567 89.4475 57.7194 89.3254 57.6736 89.176C57.5821 88.8772 57.4572 88.4692 57.3235 88.0326C57.0561 87.1592 56.7536 86.1712 56.6132 85.7124L52.7884 86.8832ZM53.8504 83.5219C51.9386 84.1093 51.9386 84.1093 51.9386 84.1093C51.9386 84.1093 51.9386 84.1094 51.9386 84.1094C51.9387 84.1095 51.9387 84.1095 51.9387 84.1097C51.9388 84.1099 51.9389 84.1103 51.9391 84.1107C51.9393 84.1117 51.9398 84.1132 51.9404 84.1151C51.9416 84.1189 51.9433 84.1246 51.9456 84.132C51.9502 84.1469 51.9569 84.1689 51.9656 84.1971C51.9829 84.2535 52.0079 84.335 52.0387 84.4352C52.1002 84.6356 52.1847 84.9108 52.2764 85.2097C52.4601 85.8087 52.672 86.5002 52.7872 86.8794L56.6144 85.7162C56.4973 85.3312 56.284 84.6347 56.1006 84.0368C56.0087 83.7373 55.9241 83.4618 55.8625 83.2611C55.8317 83.1607 55.8066 83.0791 55.7892 83.0226C55.7806 82.9943 55.7738 82.9723 55.7692 82.9573C55.7669 82.9498 55.7652 82.9441 55.764 82.9403C55.7634 82.9384 55.7629 82.9369 55.7626 82.9359C55.7625 82.9355 55.7624 82.9351 55.7623 82.9348C55.7623 82.9347 55.7622 82.9346 55.7622 82.9346C55.7622 82.9345 55.7622 82.9345 55.7622 82.9345C55.7622 82.9345 55.7622 82.9345 53.8504 83.5219ZM50.3253 82.1932C50.8253 82.4331 51.078 82.6275 51.2653 82.8416C51.4649 83.0698 51.698 83.4447 51.9678 84.1971L55.733 82.8467C55.366 81.8234 54.921 80.9452 54.2758 80.2078C53.6184 79.4564 52.8597 78.9727 52.0559 78.587L50.3253 82.1932ZM46.5531 80.9722C48.1773 81.3872 49.2058 81.6561 50.3255 82.1933L52.0557 78.5869C50.5251 77.8526 49.1185 77.4992 47.5434 77.0967L46.5531 80.9722ZM44.3968 80.4022C45.2057 80.6279 45.9198 80.8104 46.5531 80.9722L47.5434 77.0967C46.9081 76.9344 46.2334 76.7619 45.4722 76.5494L44.3968 80.4022ZM33.4807 69.7814C35.3569 76.3745 40.8383 79.4083 44.3965 80.4021L45.4725 76.5495C42.6998 75.7751 38.6883 73.4669 37.3279 68.6866L33.4807 69.7814ZM31.0288 45.7268C29.0598 46.0777 29.0598 46.0778 29.0598 46.078C29.0598 46.0781 29.0599 46.0784 29.06 46.0787C29.0601 46.0794 29.0603 46.0804 29.0605 46.0817C29.061 46.0844 29.0617 46.0883 29.0626 46.0936C29.0645 46.1041 29.0673 46.1198 29.071 46.1404C29.0783 46.1817 29.0893 46.243 29.1035 46.323C29.1321 46.483 29.174 46.7178 29.2276 47.0172C29.3346 47.616 29.4881 48.4732 29.6739 49.5074C30.0453 51.5755 30.5459 54.3517 31.0621 57.1831C31.5782 60.0136 32.1105 62.9028 32.5454 65.1957C32.9673 67.4199 33.3244 69.2327 33.4808 69.7818L37.3278 68.6862C37.235 68.3605 36.9206 66.7976 36.4754 64.4502C36.0431 62.1715 35.5128 59.2932 34.9972 56.4656C34.4819 53.6389 33.982 50.8663 33.6109 48.8002C33.4253 47.7672 33.272 46.911 33.1651 46.3131C33.1116 46.0141 33.0698 45.7798 33.0413 45.6202C33.0271 45.5404 33.0162 45.4793 33.0088 45.4381C33.0052 45.4176 33.0024 45.402 33.0005 45.3916C32.9996 45.3864 32.9989 45.3824 32.9984 45.3798C32.9982 45.3785 32.998 45.3775 32.9979 45.3769C32.9978 45.3766 32.9978 45.3763 32.9978 45.3762C32.9977 45.376 32.9977 45.3759 31.0288 45.7268ZM31.2944 42.5621C29.6645 42.9583 28.6975 44.6036 29.0853 46.1992L32.9722 45.2545C33.0977 45.7711 32.7901 46.3151 32.2391 46.449L31.2944 42.5621ZM34.9314 44.7712C34.5353 43.1413 32.89 42.1743 31.2944 42.5621L32.2391 46.449C31.7224 46.5746 31.1785 46.2669 31.0446 45.7159L34.9314 44.7712ZM39.3381 63.7889L34.9364 44.7921L31.0396 45.695L35.4414 64.6918L39.3381 63.7889ZM39.0118 62.2404H37.3897V66.2404H39.0118V62.2404ZM33.7646 46.0755L37.0425 64.5891L40.9812 63.8917L37.7033 45.3781L33.7646 46.0755ZM35.9996 42.5621C34.3697 42.9583 33.4027 44.6036 33.7905 46.1992L37.6774 45.2545C37.8029 45.7711 37.4953 46.3151 36.9443 46.449L35.9996 42.5621ZM39.6366 44.7712C39.2404 43.1413 37.5951 42.1743 35.9996 42.5621L36.9443 46.449C36.4276 46.5746 35.8837 46.2669 35.7498 45.7159L39.6366 44.7712ZM44.2373 63.7696L39.637 44.7728L35.7494 45.7143L40.3497 64.7111L44.2373 63.7696ZM44.1441 62.2404H42.2935V66.2404H44.1441V62.2404ZM38.1736 46.1508L42.1895 64.6643L46.0986 63.8164L42.0827 45.3028L38.1736 46.1508ZM40.3938 42.5621C38.7639 42.9583 37.797 44.6036 38.1848 46.1992L42.0716 45.2545C42.1972 45.7711 41.8895 46.3151 41.3385 46.449L40.3938 42.5621ZM44.0309 44.7712C43.6347 43.1413 41.9894 42.1743 40.3938 42.5621L41.3385 46.449C40.8219 46.5746 40.2779 46.2669 40.144 45.7159L44.0309 44.7712ZM49.3074 63.7035L44.014 44.7067L40.1608 45.7804L45.4542 64.7772L49.3074 63.7035ZM49.0965 62.2404H47.3808V66.2404H49.0965V62.2404ZM42.8844 46.1756L47.1475 64.6892L51.0455 63.7916L46.7824 45.278L42.8844 46.1756ZM45.099 42.5621C43.4691 42.9583 42.5021 44.6036 42.89 46.1992L46.7768 45.2545C46.9024 45.7711 46.5947 46.3151 46.0437 46.449L45.099 42.5621Z" fill="#FF5F2D" fill-opacity="0.1" mask="url(#path-6-inside-2_54_6686)"/>
</g>
<g filter="url(#filter3_f_54_6686)">
<path d="M69.5805 47.2514L69.4906 47.139H69.4869C69.2059 47.4012 68.9025 47.6485 68.5766 47.8658C68.5766 47.8658 77.5262 60.1157 73.5927 70.1292C71.4986 75.46 66.3925 79.6333 59.0126 80.4986L50.6399 50.7353C50.6399 50.7353 51.494 48.5176 53.3372 45.9103C53.3671 45.9065 53.3896 45.884 53.4046 45.8466C53.4083 45.8372 53.4111 45.8278 53.4139 45.8185C53.4168 45.8091 53.4196 45.7998 53.4233 45.7904C55.0679 43.4902 57.4767 40.9129 60.7471 39.287L61.0842 39.1185C62.4029 38.5003 63.8526 38.0358 65.4448 37.8073L59.4134 34.5369C59.4134 34.5369 58.1809 31.9633 60.0278 30.6147C61.6274 29.4459 63.8714 30.004 64.8828 31.7797C65.3474 32.6001 65.4448 33.4543 65.4448 33.4543C65.4448 33.4543 67.5726 32.1056 69.7716 33.3906C71.5434 34.4255 71.5155 35.9516 71.4897 37.361C71.4866 37.528 71.4836 37.6933 71.4836 37.856V39.583L74.8439 42.0742L71.4349 43.7L72.319 45.1535C72.3714 45.2247 72.4164 45.3034 72.4576 45.3821C72.5213 45.5169 72.5737 45.663 72.5999 45.8166C72.761 46.7269 72.1204 47.596 71.1689 47.7646C70.5583 47.8733 69.9664 47.6597 69.5805 47.2514Z" fill="#FF5F2D" fill-opacity="0.05"/>
<path d="M45.5714 44.5056C46.1108 44.3744 46.6615 44.7041 46.7926 45.2436L59.3273 90.0664C59.3302 90.0787 59.333 90.0908 59.3359 90.1027C59.3479 90.1531 59.3594 90.2016 59.3685 90.25H55.9108C55.9108 90.25 54.9817 87.2156 54.7008 86.2978C54.4685 85.5336 53.8504 83.5219 53.8504 83.5219C53.2136 81.7462 52.4943 81.0157 51.1906 80.3901C49.8655 79.7544 48.6479 79.4432 47.0483 79.0345C46.414 78.8724 45.7195 78.6949 44.9345 78.4758C41.769 77.5917 37.0226 74.9207 35.4043 69.234C34.906 67.4845 31.0288 45.7268 31.0288 45.7268C30.8976 45.1874 31.2273 44.6367 31.7667 44.5056C32.3062 44.3744 32.8569 44.7041 32.988 45.2436L37.3897 64.2404H39.0118L35.7339 45.7268C35.6028 45.1874 35.9325 44.6367 36.4719 44.5056C37.0114 44.3744 37.5621 44.7041 37.6932 45.2436L42.2935 64.2404H44.1441L40.1282 45.7268C39.9971 45.1874 40.3267 44.6367 40.8662 44.5056C41.4056 44.3744 41.9563 44.7041 42.0874 45.2436L47.3808 64.2404H49.0965L44.8334 45.7268C44.7023 45.1874 45.0319 44.6367 45.5714 44.5056Z" fill="#FF5F2D" fill-opacity="0.05"/>
<path d="M73.1273 69.9464C71.1461 74.9899 66.3602 78.996 59.3772 79.9484L51.1676 50.7648C51.1914 50.7077 51.2223 50.6352 51.2602 50.5486C51.3658 50.3074 51.5263 49.957 51.7438 49.5257C52.1691 48.6822 52.8108 47.5323 53.6838 46.2865C53.7827 46.2061 53.8403 46.1036 53.8688 46.0323C53.8703 46.0285 53.8718 46.0247 53.8732 46.021C55.4884 43.7758 57.8259 41.2977 60.9697 39.7348L60.9707 39.7343L61.3021 39.5685C62.5784 38.9709 63.9789 38.5228 65.5158 38.3022L67.0107 38.0877L65.6831 37.3678L59.8052 34.1805C59.782 34.1215 59.7539 34.0459 59.7245 33.9568C59.6457 33.7184 59.5599 33.3924 59.5258 33.0342C59.4574 32.3151 59.598 31.5476 60.3227 31.0185L60.3228 31.0184C61.6595 30.0416 63.5706 30.4869 64.4481 32.0267C64.6523 32.3875 64.7789 32.762 64.8542 33.0508C64.8915 33.1941 64.9155 33.3132 64.9299 33.3949C64.9371 33.4356 64.9419 33.4668 64.9447 33.4868L64.9476 33.508L64.948 33.5109L64.948 33.5111L64.948 33.5113L64.9481 33.5116L64.9481 33.5118L64.9481 33.512L65.0384 34.3038L65.711 33.8775L65.7113 33.8773L65.7118 33.877L65.7121 33.8768L65.7124 33.8766L65.7125 33.8766L65.7243 33.8695C65.736 33.8625 65.7552 33.8514 65.7815 33.8369C65.834 33.808 65.9144 33.7661 66.0186 33.7187C66.2278 33.6236 66.5286 33.5082 66.8904 33.429C67.6122 33.2711 68.5573 33.2601 69.5193 33.8223L69.5194 33.8223C70.2969 34.2765 70.6524 34.815 70.8268 35.3823C71.0106 35.9802 71.0029 36.6324 70.9897 37.3518L70.9897 37.3535C70.9867 37.5192 70.9836 37.6885 70.9836 37.856V39.583V39.8347L71.1858 39.9846L73.8783 41.9808L71.2197 43.2487L70.7201 43.487L71.0077 43.9599L71.8918 45.4134L71.9033 45.4323L71.9165 45.4501C71.9455 45.4895 71.9753 45.5396 72.0097 45.6047C72.0575 45.7073 72.0909 45.8062 72.1071 45.9007L72.1076 45.9037C72.2167 46.5202 71.7838 47.1479 71.0817 47.2723L71.0813 47.2723C70.6457 47.3499 70.2291 47.2004 69.957 46.9215L69.8811 46.8267L69.7309 46.639H69.4906H69.4869H69.2898L69.1457 46.7735C68.8812 47.0204 68.5989 47.2499 68.2992 47.4497L67.8649 47.7393L68.1728 48.1606L68.1728 48.1607L68.1729 48.1608L68.1738 48.162L68.1779 48.1677L68.1956 48.1923C68.2114 48.2144 68.2353 48.2481 68.2666 48.2927C68.3293 48.3821 68.4214 48.5155 68.5378 48.6896C68.7706 49.0378 69.1001 49.5481 69.4839 50.1922C70.2522 51.4814 71.2353 53.3024 72.0962 55.43C73.8262 59.7055 75.0231 65.1202 73.1273 69.9464ZM46.3068 45.3616L46.3088 45.37L46.3111 45.3782L58.7196 89.75H56.2806L56.2393 89.6152L55.8892 88.4717L55.1792 86.1524C55.1791 86.1521 55.179 86.1519 55.1789 86.1516C55.0625 85.7686 54.8499 85.0746 54.6665 84.4766L54.4286 83.7014L54.3554 83.463L54.3354 83.3978L54.3301 83.3808L54.3288 83.3765L54.3285 83.3754L54.3284 83.3751L54.3284 83.3751L53.8504 83.5219L54.3283 83.375L54.3249 83.364L54.321 83.3531C53.9905 82.4314 53.625 81.7419 53.1469 81.1955C52.6657 80.6455 52.0968 80.2703 51.4069 79.9393L51.4069 79.9393C50.0372 79.2821 48.778 78.9604 47.1955 78.556L47.1721 78.55C46.5375 78.3879 45.8481 78.2117 45.069 77.9942C42.0017 77.1376 37.439 74.5572 35.8852 69.0971L35.8852 69.0971C35.7685 68.6876 35.4381 67.031 35.0016 64.7298C34.5684 62.4457 34.0373 59.5634 33.5216 56.7347C33.0059 53.9062 32.5057 51.1323 32.1345 49.0654C31.9489 48.032 31.7955 47.1754 31.6885 46.5771L31.5646 45.8837L31.5321 45.7015L31.5238 45.6548L31.5217 45.643L31.5212 45.6401L31.521 45.6393C31.521 45.6392 31.521 45.6391 31.0288 45.7268L31.521 45.6391L31.5183 45.6238L31.5146 45.6087C31.4477 45.3333 31.618 45.0563 31.8848 44.9914C32.1595 44.9247 32.4358 45.0939 32.5016 45.3595C32.5018 45.3602 32.502 45.3609 32.5021 45.3616L36.9026 64.3532L36.9923 64.7404H37.3897H39.0118H39.6081L39.5042 64.1532L36.2263 45.6396L36.2235 45.6241L36.2198 45.6087C36.1528 45.3333 36.3232 45.0563 36.59 44.9914C36.8653 44.9245 37.1423 45.0947 37.2073 45.3614C37.2073 45.3615 37.2073 45.3615 37.2073 45.3616L41.8075 64.358L41.9001 64.7404H42.2935H44.1441H44.7642L44.6327 64.1344L40.6168 45.6208L40.617 45.6208L40.614 45.6087C40.5471 45.3333 40.7174 45.0563 40.9843 44.9914C41.2597 44.9245 41.5367 45.0948 41.6016 45.3616L41.6035 45.3697L41.6058 45.3778L46.8991 64.3746L47.001 64.7404H47.3808H49.0965H49.7247L49.5838 64.1282L45.3206 45.6146L45.3207 45.6146L45.3192 45.6087C45.2523 45.3333 45.4226 45.0563 45.6895 44.9914C45.9649 44.9245 46.2419 45.0948 46.3068 45.3616Z" stroke="#FF774D"/>
</g>
<g filter="url(#filter4_f_54_6686)">
<path d="M69.5805 47.2514L69.4906 47.139H69.4869C69.2059 47.4012 68.9025 47.6485 68.5766 47.8658C68.5766 47.8658 77.5262 60.1157 73.5927 70.1292C71.4986 75.46 66.3925 79.6333 59.0126 80.4986L50.6399 50.7353C50.6399 50.7353 51.494 48.5176 53.3372 45.9103C53.3671 45.9065 53.3896 45.884 53.4046 45.8466C53.4083 45.8372 53.4111 45.8278 53.4139 45.8185C53.4168 45.8091 53.4196 45.7998 53.4233 45.7904C55.0679 43.4902 57.4767 40.9129 60.7471 39.287L61.0842 39.1185C62.4029 38.5003 63.8526 38.0358 65.4448 37.8073L59.4134 34.5369C59.4134 34.5369 58.1809 31.9633 60.0278 30.6147C61.6274 29.4459 63.8714 30.004 64.8828 31.7797C65.3474 32.6001 65.4448 33.4543 65.4448 33.4543C65.4448 33.4543 67.5726 32.1056 69.7716 33.3906C71.5434 34.4255 71.5155 35.9516 71.4897 37.361C71.4866 37.528 71.4836 37.6933 71.4836 37.856V39.583L74.8439 42.0742L71.4349 43.7L72.319 45.1535C72.3714 45.2247 72.4164 45.3034 72.4576 45.3821C72.5213 45.5169 72.5737 45.663 72.5999 45.8166C72.761 46.7269 72.1204 47.596 71.1689 47.7646C70.5583 47.8733 69.9664 47.6597 69.5805 47.2514Z" fill="#FF5F2D" fill-opacity="0.15"/>
<path d="M45.5714 44.5056C46.1108 44.3744 46.6615 44.7041 46.7926 45.2436L59.3273 90.0664C59.3302 90.0787 59.333 90.0908 59.3359 90.1027C59.3479 90.1531 59.3594 90.2016 59.3685 90.25H55.9108C55.9108 90.25 54.9817 87.2156 54.7008 86.2978C54.4685 85.5336 53.8504 83.5219 53.8504 83.5219C53.2136 81.7462 52.4943 81.0157 51.1906 80.3901C49.8655 79.7544 48.6479 79.4432 47.0483 79.0345C46.414 78.8724 45.7195 78.6949 44.9345 78.4758C41.769 77.5917 37.0226 74.9207 35.4043 69.234C34.906 67.4845 31.0288 45.7268 31.0288 45.7268C30.8976 45.1874 31.2273 44.6367 31.7667 44.5056C32.3062 44.3744 32.8569 44.7041 32.988 45.2436L37.3897 64.2404H39.0118L35.7339 45.7268C35.6028 45.1874 35.9325 44.6367 36.4719 44.5056C37.0114 44.3744 37.5621 44.7041 37.6932 45.2436L42.2935 64.2404H44.1441L40.1282 45.7268C39.9971 45.1874 40.3267 44.6367 40.8662 44.5056C41.4056 44.3744 41.9563 44.7041 42.0874 45.2436L47.3808 64.2404H49.0965L44.8334 45.7268C44.7023 45.1874 45.0319 44.6367 45.5714 44.5056Z" fill="#FF5F2D" fill-opacity="0.15"/>
<path d="M73.36 70.0378C71.3224 75.2247 66.377 79.3147 59.1952 80.2245L50.9035 50.7493C50.9061 50.7432 50.9087 50.7367 50.9115 50.7298C50.9378 50.6658 50.9776 50.5708 51.0312 50.4483C51.1384 50.2034 51.3009 49.8489 51.5206 49.4131C51.954 48.5537 52.6095 47.3798 53.5027 46.1093C53.5739 46.0622 53.6155 45.9924 53.6367 45.9394C53.6419 45.9265 53.6461 45.9141 53.6491 45.9045C55.279 43.632 57.6519 41.1049 60.8584 39.5109L60.8589 39.5106L61.1932 39.3435C62.4906 38.7356 63.9158 38.2793 65.4803 38.0548L66.2278 37.9475L65.5639 37.5875L59.6075 34.3577C59.6037 34.3487 59.5996 34.339 59.5952 34.3284C59.5671 34.2602 59.5283 34.16 59.4871 34.0353C59.4044 33.7849 59.3133 33.44 59.2769 33.0578C59.2041 32.2923 59.3512 31.4183 60.1752 30.8166L60.1753 30.8165C61.6434 29.7438 63.7207 30.2454 64.6653 31.9029C64.8836 32.2885 65.0172 32.6852 65.0961 32.9877C65.1354 33.1384 65.1607 33.2641 65.1761 33.3514C65.1838 33.395 65.189 33.4289 65.1922 33.4514L65.1956 33.4762L65.1963 33.4818L65.1964 33.4826L65.1964 33.4827L65.1964 33.4828L65.1964 33.4828L65.1964 33.4828L65.2416 33.879L65.5782 33.6656L65.5783 33.6656L65.5784 33.6655L65.5786 33.6654L65.5786 33.6654L65.5817 33.6635L65.5967 33.6544C65.6107 33.6462 65.6322 33.6337 65.661 33.6179C65.7185 33.5862 65.8045 33.5415 65.9151 33.4912C66.1366 33.3904 66.4544 33.2685 66.837 33.1848C67.6013 33.0176 68.6147 33.0041 69.6455 33.6064L69.6455 33.6064C70.4772 34.0923 70.8729 34.6817 71.0658 35.3088C71.2633 35.9513 71.2527 36.6444 71.2397 37.3564L71.2397 37.3569C71.2366 37.5233 71.2336 37.6908 71.2336 37.856V39.583V39.7089L71.3347 39.7838L74.3611 42.0275L71.3273 43.4744L71.0775 43.5935L71.2213 43.8299L72.1054 45.2835L72.1111 45.2929L72.1177 45.3018C72.1583 45.3569 72.1957 45.4211 72.2337 45.4934C72.2895 45.6123 72.3324 45.7348 72.3535 45.8587L72.3538 45.8602C72.4889 46.6236 71.9521 47.372 71.1253 47.5184L71.1251 47.5185C70.6021 47.6115 70.098 47.4302 69.7691 47.0868L69.6858 46.9828L69.6108 46.889H69.4906H69.4869H69.3883L69.3163 46.9562C69.0435 47.2108 68.7507 47.4492 68.4379 47.6578L68.2207 47.8025L68.3747 48.0132L68.5766 47.8658L68.3747 48.0133L68.3749 48.0136L68.376 48.015L68.3805 48.0212L68.3988 48.0467C68.4152 48.0696 68.4396 48.1039 68.4714 48.1493C68.535 48.24 68.6282 48.375 68.7456 48.5506C68.9805 48.902 69.3124 49.4159 69.6987 50.0643C70.4716 51.3613 71.461 53.1939 72.3279 55.3362C74.0658 59.631 75.2913 65.1213 73.36 70.0378ZM46.5497 45.3026L46.5496 45.3026L46.5519 45.3109L59.0491 90H56.0957L56.0003 89.6884L55.6502 88.5449L54.94 86.2251C54.94 86.2251 54.9399 86.225 54.9399 86.225C54.8237 85.8425 54.611 85.1483 54.4275 84.5499L54.1896 83.7748L54.1164 83.5364L54.0964 83.4712L54.0912 83.4543L54.0898 83.4499L54.0895 83.4488L54.0894 83.4486L54.0894 83.4485L54.0896 83.4484L54.0857 83.4375C53.7612 82.5327 53.409 81.8747 52.9587 81.3601C52.507 80.8437 51.9696 80.4866 51.2988 80.1647L51.1906 80.3901C49.8655 79.7544 48.6479 79.4432 47.0483 79.0345L47.0481 79.0344C46.4138 78.8723 45.7195 78.6949 44.9345 78.4758L45.0018 78.235C45.0018 78.235 45.0017 78.235 45.0017 78.235C41.8853 77.3646 37.2308 74.7389 35.6447 69.1656L35.6447 69.1655C35.5241 68.7421 35.191 67.0699 34.756 64.7764C34.3226 62.4914 33.7914 59.6084 33.2756 56.7795C32.7599 53.9508 32.2597 51.1766 31.8884 49.1096C31.7028 48.0761 31.5494 47.2194 31.4424 46.6211L31.3185 45.9277L31.286 45.7454L31.2777 45.6987L31.2756 45.6869L31.275 45.6839L31.2749 45.6832C31.2749 45.683 31.2749 45.683 31.0288 45.7268L31.2749 45.683L31.2735 45.6753L31.2717 45.6678C31.1726 45.2603 31.4226 44.8465 31.8258 44.7485C32.2328 44.6496 32.6462 44.899 32.7448 45.3014C32.7449 45.3018 32.745 45.3022 32.7451 45.3026L37.1462 64.2968L37.191 64.4904H37.3897H39.0118H39.31L39.258 64.1968L35.9801 45.6832L35.9787 45.6754L35.9769 45.6678C35.8778 45.2603 36.1278 44.8465 36.531 44.7485C36.9384 44.6495 37.3523 44.8995 37.4503 45.3026L42.0505 64.2992L42.0968 64.4904H42.2935H44.1441H44.4541L44.3884 64.1874L40.3725 45.6738L40.3726 45.6738L40.3711 45.6678C40.2721 45.2603 40.5221 44.8465 40.9252 44.7485C41.3327 44.6495 41.7465 44.8995 41.8445 45.3026L41.8444 45.3026L41.8466 45.3107L47.1399 64.3075L47.1909 64.4904H47.3808H49.0965H49.4106L49.3401 64.1843L45.077 45.6707L45.077 45.6707L45.0763 45.6678C44.9773 45.2603 45.2273 44.8465 45.6304 44.7485C46.0378 44.6495 46.4517 44.8995 46.5497 45.3026Z" stroke="white" stroke-width="0.5"/>
</g>
<defs>
<filter id="filter0_f_54_6686" x="0.599937" y="0.498375" width="105.3" height="119.253" filterUnits="userSpaceOnUse" color-interpolation-filters="sRGB">
<feFlood flood-opacity="0" result="BackgroundImageFix"/>
<feBlend mode="normal" in="SourceGraphic" in2="BackgroundImageFix" result="shape"/>
<feGaussianBlur stdDeviation="17.4461" result="effect1_foregroundBlur_54_6686"/>
</filter>
<filter id="filter1_f_54_6686" x="14.8199" y="13.8199" width="76.2039" height="92.6101" filterUnits="userSpaceOnUse" color-interpolation-filters="sRGB">
<feFlood flood-opacity="0" result="BackgroundImageFix"/>
<feBlend mode="normal" in="SourceGraphic" in2="BackgroundImageFix" result="shape"/>
<feGaussianBlur stdDeviation="8.09003" result="effect1_foregroundBlur_54_6686"/>
</filter>
<filter id="filter2_f_54_6686" x="29" y="28" width="47.8438" height="64.25" filterUnits="userSpaceOnUse" color-interpolation-filters="sRGB">
<feFlood flood-opacity="0" result="BackgroundImageFix"/>
<feBlend mode="normal" in="SourceGraphic" in2="BackgroundImageFix" result="shape"/>
<feGaussianBlur stdDeviation="1" result="effect1_foregroundBlur_54_6686"/>
</filter>
<filter id="filter3_f_54_6686" x="30.8" y="29.8" width="44.2438" height="60.65" filterUnits="userSpaceOnUse" color-interpolation-filters="sRGB">
<feFlood flood-opacity="0" result="BackgroundImageFix"/>
<feBlend mode="normal" in="SourceGraphic" in2="BackgroundImageFix" result="shape"/>
<feGaussianBlur stdDeviation="0.1" result="effect1_foregroundBlur_54_6686"/>
</filter>
<filter id="filter4_f_54_6686" x="30.6404" y="29.6404" width="44.5629" height="60.9691" filterUnits="userSpaceOnUse" color-interpolation-filters="sRGB">
<feFlood flood-opacity="0" result="BackgroundImageFix"/>
<feBlend mode="normal" in="SourceGraphic" in2="BackgroundImageFix" result="shape"/>
<feGaussianBlur stdDeviation="0.179779" result="effect1_foregroundBlur_54_6686"/>
</filter>
</defs>
</svg>
