<svg width="92" height="115" viewBox="0 0 92 115" fill="none" xmlns="http://www.w3.org/2000/svg">
<g style="mix-blend-mode:hard-light" filter="url(#filter0_f_54_6672)">
<ellipse cx="46" cy="57.2258" rx="30" ry="41.2258" fill="#FAAD19" fill-opacity="0.2"/>
</g>
<g style="mix-blend-mode:hard-light" filter="url(#filter1_f_54_6672)">
<mask id="path-2-inside-1_54_6672" fill="white">
<path d="M64.9976 42.5447L64.8951 42.4166H64.8908C64.5704 42.7156 64.2243 42.9976 63.8527 43.2454C63.8527 43.2454 74.0589 57.2153 69.5731 68.6348C67.185 74.7141 61.362 79.4733 52.9458 80.4601L43.3975 46.5178C43.3975 46.5178 44.3716 43.9887 46.4735 41.0153C46.5077 41.011 46.5333 40.9854 46.5504 40.9427C46.5547 40.932 46.5579 40.9213 46.5611 40.9106C46.5643 40.8999 46.5675 40.8893 46.5718 40.8786C48.4472 38.2555 51.1943 35.3162 54.9239 33.4621L55.3083 33.2699C56.8121 32.565 58.4655 32.0352 60.2811 31.7746L53.403 28.045C53.403 28.045 51.9974 25.11 54.1036 23.5721C55.9278 22.2391 58.4868 22.8757 59.6403 24.9007C60.1701 25.8363 60.2811 26.8104 60.2811 26.8104C60.2811 26.8104 62.7077 25.2724 65.2155 26.7377C67.2361 27.918 67.2042 29.6583 67.1748 31.2656C67.1713 31.4561 67.1679 31.6446 67.1679 31.8301V33.7996L71 36.6406L67.1123 38.4947L68.1206 40.1523C68.1804 40.2335 68.2316 40.3232 68.2786 40.4129C68.3513 40.5667 68.4111 40.7333 68.441 40.9085C68.6247 41.9466 67.8941 42.9378 66.809 43.13C66.1126 43.2539 65.4377 43.0104 64.9976 42.5447Z"/>
<path d="M37.6173 39.4134C38.2325 39.2638 38.8605 39.6398 39.0101 40.255L53.3047 91.3714C53.308 91.3853 53.3113 91.3991 53.3145 91.4128C53.3282 91.4702 53.3414 91.5255 53.3517 91.5807H49.4085C49.4085 91.5807 48.349 88.1203 48.0286 87.0736C47.7637 86.202 47.0588 83.9079 47.0588 83.9079C46.3326 81.8829 45.5123 81.0498 44.0256 80.3364C42.5144 79.6114 41.1259 79.2566 39.3016 78.7904C38.5782 78.6056 37.7863 78.4032 36.8911 78.1533C33.2811 77.1451 27.8683 74.099 26.0227 67.6139C25.4545 65.6188 21.0328 40.8061 21.0328 40.8061C20.8833 40.1909 21.2592 39.5629 21.8744 39.4134C22.4896 39.2638 23.1176 39.6398 23.2671 40.255L28.2869 61.9191H30.1368L26.3986 40.8061C26.2491 40.1909 26.6251 39.5629 27.2402 39.4134C27.8554 39.2638 28.4834 39.6398 28.633 40.255L33.8792 61.9191H35.9896L31.4099 40.8061C31.2604 40.1909 31.6363 39.5629 32.2515 39.4134C32.8667 39.2638 33.4947 39.6398 33.6442 40.255L39.6808 61.9191H41.6374L36.7757 40.8061C36.6262 40.1909 37.0021 39.5629 37.6173 39.4134Z"/>
</mask>
<path d="M64.8951 42.4166L66.1504 41.4123L65.6677 40.809H64.8951V42.4166ZM64.9976 42.5447L63.7424 43.5489L63.7837 43.6007L63.8292 43.6488L64.9976 42.5447ZM64.8908 42.4166V40.809H64.2572L63.794 41.2414L64.8908 42.4166ZM63.8527 43.2454L62.961 41.9078L61.5647 42.8387L62.5547 44.1937L63.8527 43.2454ZM69.5731 68.6348L71.0693 69.2226L71.0693 69.2226L69.5731 68.6348ZM52.9458 80.4601L51.3984 80.8955L51.77 82.2166L53.1331 82.0567L52.9458 80.4601ZM43.3975 46.5178L41.8974 45.9401L41.7054 46.4387L41.8501 46.9531L43.3975 46.5178ZM46.4735 41.0153L46.2742 39.4202L45.5703 39.5081L45.1608 40.0874L46.4735 41.0153ZM46.5504 40.9427L45.0579 40.3456L45.0578 40.3457L46.5504 40.9427ZM46.5611 40.9106L45.0213 40.4488L45.0213 40.4489L46.5611 40.9106ZM46.5718 40.8786L45.2641 39.9436L45.1513 40.1014L45.0792 40.2816L46.5718 40.8786ZM54.9239 33.4621L55.6395 34.9016L55.6428 34.8999L54.9239 33.4621ZM55.3083 33.2699L54.6261 31.8143L54.6076 31.823L54.5894 31.8321L55.3083 33.2699ZM60.2811 31.7746L60.5095 33.3658L65.3159 32.676L61.0474 30.3615L60.2811 31.7746ZM53.403 28.045L51.9531 28.7393L52.1783 29.2096L52.6367 29.4582L53.403 28.045ZM54.1036 23.5721L55.0516 24.8703L55.052 24.87L54.1036 23.5721ZM59.6403 24.9007L61.0392 24.1087L61.0371 24.1051L59.6403 24.9007ZM60.2811 26.8104L58.684 26.9925L58.9747 29.5416L61.1417 28.1681L60.2811 26.8104ZM65.2155 26.7377L64.4045 28.1257L64.4047 28.1258L65.2155 26.7377ZM67.1748 31.2656L68.7821 31.2951V31.295L67.1748 31.2656ZM67.1679 33.7996H65.5603V34.609L66.2105 35.091L67.1679 33.7996ZM71 36.6406L71.692 38.0916L74.1045 36.941L71.9574 35.3492L71 36.6406ZM67.1123 38.4947L66.4203 37.0438L64.8142 37.8098L65.7389 39.3301L67.1123 38.4947ZM68.1206 40.1523L66.7472 40.9877L66.7842 41.0485L66.8264 41.1059L68.1206 40.1523ZM68.2786 40.4129L69.7322 39.7265L69.718 39.6964L69.7026 39.667L68.2786 40.4129ZM68.441 40.9085L66.8563 41.179L66.858 41.1886L68.441 40.9085ZM66.809 43.13L66.5286 41.5471L66.5274 41.5473L66.809 43.13ZM39.0101 40.255L37.448 40.6346L37.4545 40.6614L37.4619 40.6879L39.0101 40.255ZM53.3047 91.3714L54.8695 91.0032L54.8619 90.9706L54.8529 90.9384L53.3047 91.3714ZM53.3145 91.4128L54.8784 91.0405L54.8784 91.0405L53.3145 91.4128ZM53.3517 91.5807V93.1882H55.2886L54.9317 91.2845L53.3517 91.5807ZM49.4085 91.5807L47.8714 92.0513L48.2195 93.1882H49.4085V91.5807ZM48.0286 87.0736L46.4905 87.541L46.4915 87.5441L48.0286 87.0736ZM47.0588 83.9079L48.5954 83.4358L48.5845 83.4002L48.572 83.3652L47.0588 83.9079ZM44.0256 80.3364L44.7211 78.8871L44.7209 78.887L44.0256 80.3364ZM39.3016 78.7904L39.6996 77.2329H39.6996L39.3016 78.7904ZM36.8911 78.1533L36.4586 79.7016L36.4589 79.7016L36.8911 78.1533ZM26.0227 67.6139L27.5688 67.1739L27.5687 67.1736L26.0227 67.6139ZM21.0328 40.8061L22.6154 40.5241L22.6066 40.4749L22.5948 40.4264L21.0328 40.8061ZM21.8744 39.4134L22.2541 40.9754L21.8744 39.4134ZM23.2671 40.255L24.8332 39.8921L24.8312 39.8837L24.8292 39.8753L23.2671 40.255ZM28.2869 61.9191L26.7209 62.282L27.0093 63.5266H28.2869V61.9191ZM30.1368 61.9191V63.5266H32.0539L31.7197 61.6388L30.1368 61.9191ZM26.3986 40.8061L27.9815 40.5258L27.9727 40.4758L27.9607 40.4264L26.3986 40.8061ZM28.633 40.255L30.1953 39.8766L30.195 39.8753L28.633 40.255ZM33.8792 61.9191L32.3168 62.2974L32.6145 63.5266H33.8792V61.9191ZM35.9896 61.9191V63.5266H37.9832L37.5606 61.5783L35.9896 61.9191ZM31.4099 40.8061L32.9809 40.4653L32.9766 40.4458L32.9719 40.4264L31.4099 40.8061ZM32.2515 39.4134L31.8718 37.8513L31.8718 37.8513L32.2515 39.4134ZM33.6442 40.255L32.0822 40.6346L32.0885 40.6607L32.0957 40.6865L33.6442 40.255ZM39.6808 61.9191L38.1323 62.3506L38.4599 63.5266H39.6808V61.9191ZM41.6374 61.9191V63.5266H43.6572L43.204 61.5584L41.6374 61.9191ZM36.7757 40.8061L38.3422 40.4454L38.3401 40.4359L38.3378 40.4264L36.7757 40.8061ZM63.6398 43.4208L63.7424 43.5489L66.2529 41.5405L66.1504 41.4123L63.6398 43.4208ZM64.8908 44.0241H64.8951V40.809H64.8908V44.0241ZM64.7444 44.5829C65.2003 44.2789 65.6145 43.94 65.9877 43.5917L63.794 41.2414C63.5263 41.4912 63.2484 41.7162 62.961 41.9078L64.7444 44.5829ZM71.0693 69.2226C73.5402 62.9324 71.9264 56.0991 69.8852 51.0548C68.8514 48.5 67.675 46.3223 66.7582 44.7837C66.299 44.013 65.9027 43.3991 65.6188 42.9744C65.4768 42.762 65.3627 42.5967 65.2827 42.4825C65.2426 42.4254 65.2111 42.381 65.1889 42.35C65.1778 42.3344 65.1689 42.3222 65.1626 42.3134C65.1594 42.309 65.1568 42.3054 65.1548 42.3027C65.1538 42.3013 65.153 42.3001 65.1523 42.2992C65.1519 42.2987 65.1515 42.2982 65.1514 42.298C65.151 42.2975 65.1507 42.2971 63.8527 43.2454C62.5547 44.1937 62.5544 44.1933 62.5542 44.1931C62.5542 44.193 62.554 44.1928 62.554 44.1928C62.554 44.1927 62.554 44.1928 62.5543 44.1932C62.5548 44.1938 62.5559 44.1953 62.5576 44.1977C62.5609 44.2024 62.5667 44.2103 62.5748 44.2216C62.5909 44.2441 62.6161 44.2796 62.6497 44.3276C62.717 44.4236 62.8178 44.5696 62.9461 44.7614C63.2028 45.1453 63.5688 45.712 63.9964 46.4295C64.8531 47.8672 65.9479 49.8957 66.9049 52.2608C68.8454 57.0563 70.0918 62.9178 68.0769 68.0471L71.0693 69.2226ZM53.1331 82.0567C62.0869 81.0068 68.4461 75.9004 71.0693 69.2226L68.0769 68.047C65.9239 73.5278 60.6372 77.9397 52.7586 78.8636L53.1331 82.0567ZM41.8501 46.9531L51.3984 80.8955L54.4933 80.0248L44.945 46.0825L41.8501 46.9531ZM45.1608 40.0874C44.0548 41.652 43.246 43.0986 42.712 44.1578C42.4445 44.6882 42.2447 45.1238 42.11 45.4314C42.0427 45.5853 41.9915 45.7074 41.9562 45.7935C41.9385 45.8365 41.9248 45.8706 41.915 45.8952C41.9102 45.9075 41.9063 45.9174 41.9033 45.9249C41.9019 45.9287 41.9006 45.9318 41.8996 45.9344C41.8992 45.9356 41.8987 45.9367 41.8984 45.9377C41.8982 45.9382 41.898 45.9386 41.8979 45.939C41.8978 45.9392 41.8977 45.9395 41.8976 45.9396C41.8975 45.9398 41.8974 45.9401 43.3975 46.5178C44.8977 47.0956 44.8976 47.0958 44.8975 47.096C44.8975 47.0961 44.8974 47.0963 44.8973 47.0964C44.8972 47.0967 44.8972 47.0969 44.8971 47.0971C44.897 47.0974 44.8969 47.0976 44.8969 47.0976C44.8969 47.0977 44.8971 47.0972 44.8975 47.096C44.8984 47.0938 44.9002 47.0892 44.903 47.0822C44.9085 47.0683 44.9178 47.0452 44.9308 47.0133C44.957 46.9494 44.9984 46.8507 45.0551 46.721C45.1688 46.4614 45.3439 46.0789 45.5827 45.6054C46.0611 44.6566 46.7903 43.352 47.7862 41.9432L45.1608 40.0874ZM45.0578 40.3457C45.107 40.2229 45.2072 40.0234 45.4061 39.8328C45.6226 39.6253 45.9212 39.4643 46.2742 39.4202L46.6729 42.6104C47.527 42.5037 47.916 41.857 48.043 41.5396L45.0578 40.3457ZM45.0213 40.4489C45.0189 40.4569 45.0225 40.4447 45.0274 40.4297C45.0329 40.4125 45.0431 40.3826 45.0579 40.3456L48.0429 41.5397C48.078 41.452 48.1005 41.3735 48.1009 41.3724L45.0213 40.4489ZM45.0792 40.2816C45.0441 40.3693 45.0217 40.4477 45.0213 40.4488L48.1009 41.3724C48.1033 41.3644 48.0997 41.3765 48.0948 41.3915C48.0892 41.4087 48.0791 41.4386 48.0643 41.4756L45.0792 40.2816ZM54.2082 32.0227C50.1619 34.0342 47.2296 37.1946 45.2641 39.9436L47.8794 41.8135C49.6649 39.3163 52.2266 36.5982 55.6395 34.9016L54.2082 32.0227ZM54.5894 31.8321L54.2049 32.0243L55.6428 34.8999L56.0273 34.7077L54.5894 31.8321ZM60.0528 30.1834C58.067 30.4684 56.2613 31.0478 54.6261 31.8143L55.9906 34.7254C57.363 34.0821 58.8639 33.602 60.5095 33.3658L60.0528 30.1834ZM52.6367 29.4582L59.5149 33.1878L61.0474 30.3615L54.1692 26.6319L52.6367 29.4582ZM53.1556 22.2738C51.4634 23.5095 51.2466 25.3128 51.3632 26.5376C51.4218 27.154 51.5656 27.6907 51.6899 28.0668C51.753 28.2576 51.8135 28.4146 51.8605 28.5285C51.884 28.5857 51.9044 28.6325 51.9202 28.6679C51.9281 28.6856 51.9349 28.7005 51.9405 28.7124C51.9432 28.7184 51.9457 28.7236 51.9478 28.7281C51.9489 28.7304 51.9498 28.7324 51.9507 28.7343C51.9512 28.7352 51.9516 28.7361 51.952 28.737C51.9522 28.7374 51.9525 28.738 51.9526 28.7382C51.9528 28.7388 51.9531 28.7393 53.403 28.045C54.8528 27.3507 54.8531 27.3512 54.8533 27.3518C54.8534 27.3519 54.8537 27.3525 54.8538 27.3528C54.8541 27.3535 54.8544 27.3541 54.8547 27.3547C54.8552 27.3558 54.8557 27.3568 54.8561 27.3576C54.8569 27.3593 54.8573 27.3603 54.8575 27.3607C54.8579 27.3614 54.857 27.3596 54.8552 27.3555C54.8514 27.3471 54.8437 27.3294 54.8329 27.3033C54.8112 27.2507 54.7784 27.1663 54.7426 27.058C54.6691 26.8357 54.5932 26.5425 54.5638 26.233C54.5041 25.6058 54.6376 25.1726 55.0516 24.8703L53.1556 22.2738ZM61.0371 24.1051C59.4524 21.3229 55.824 20.3241 53.1552 22.2741L55.052 24.87C56.0316 24.1542 57.5213 24.4285 58.2435 25.6964L61.0371 24.1051ZM60.2811 26.8104C61.8783 26.6282 61.8783 26.6279 61.8782 26.6275C61.8782 26.6274 61.8782 26.6271 61.8782 26.6268C61.8781 26.6264 61.878 26.6259 61.878 26.6254C61.8779 26.6243 61.8777 26.6233 61.8776 26.6221C61.8773 26.6198 61.877 26.6173 61.8767 26.6145C61.876 26.609 61.8752 26.6025 61.8743 26.595C61.8724 26.5801 61.8699 26.5613 61.8667 26.539C61.8603 26.4945 61.8512 26.4355 61.8386 26.3642C61.8135 26.2222 61.7743 26.0285 61.7149 25.8008C61.5982 25.3531 61.3935 24.7345 61.0392 24.1087L58.2415 25.6927C58.4169 26.0025 58.5326 26.3388 58.6039 26.612C58.6385 26.7447 58.6601 26.853 58.6724 26.9229C58.6786 26.9575 58.6822 26.982 58.684 26.9943C58.6849 27.0005 58.6853 27.0036 58.6853 27.0034C58.6852 27.0033 58.6851 27.0023 58.6849 27.0005C58.6848 26.9996 58.6847 26.9985 58.6845 26.9972C58.6844 26.9965 58.6843 26.9958 58.6843 26.995C58.6842 26.9946 58.6842 26.9942 58.6841 26.9938C58.6841 26.9936 58.6841 26.9933 58.684 26.9932C58.684 26.9928 58.684 26.9925 60.2811 26.8104ZM66.0265 25.3498C64.3306 24.3588 62.6579 24.393 61.4643 24.6542C60.8705 24.7841 60.38 24.9723 60.034 25.1297C59.8597 25.2089 59.7187 25.2819 59.6155 25.3386C59.5639 25.367 59.5214 25.3915 59.4888 25.4109C59.4725 25.4206 59.4586 25.429 59.4472 25.436C59.4415 25.4395 59.4365 25.4426 59.432 25.4454C59.4298 25.4468 59.4277 25.4481 59.4258 25.4493C59.4249 25.4499 59.424 25.4504 59.4231 25.451C59.4226 25.4513 59.422 25.4517 59.4218 25.4518C59.4212 25.4522 59.4206 25.4526 60.2811 26.8104C61.1417 28.1681 61.1411 28.1685 61.1405 28.1689C61.1404 28.169 61.1398 28.1694 61.1394 28.1696C61.1387 28.17 61.138 28.1705 61.1374 28.1709C61.136 28.1717 61.1349 28.1725 61.1338 28.1731C61.1317 28.1744 61.1302 28.1754 61.1291 28.176C61.1271 28.1773 61.1271 28.1772 61.1292 28.176C61.1333 28.1735 61.1455 28.1664 61.1651 28.1556C61.2045 28.134 61.2725 28.0983 61.365 28.0562C61.5523 27.971 61.8252 27.8663 62.1515 27.7949C62.7982 27.6534 63.5926 27.6513 64.4045 28.1257L66.0265 25.3498ZM68.7821 31.295C68.7959 30.5387 68.8296 29.4394 68.5004 28.3691C68.1411 27.2004 67.3851 26.1433 66.0263 25.3497L64.4047 28.1258C65.0665 28.5124 65.3049 28.9156 65.4274 29.314C65.5801 29.8107 65.5831 30.3853 65.5676 31.2362L68.7821 31.295ZM68.7754 31.8301C68.7754 31.6618 68.7785 31.4881 68.7821 31.2951L65.5676 31.2362C65.5641 31.424 65.5603 31.6274 65.5603 31.8301H68.7754ZM68.7754 33.7996V31.8301H65.5603V33.7996H68.7754ZM71.9574 35.3492L68.1252 32.5083L66.2105 35.091L70.0426 37.932L71.9574 35.3492ZM67.8043 39.9457L71.692 38.0916L70.308 35.1896L66.4203 37.0438L67.8043 39.9457ZM69.494 39.3169L68.4858 37.6593L65.7389 39.3301L66.7472 40.9877L69.494 39.3169ZM69.7026 39.667C69.6404 39.5483 69.5453 39.376 69.4147 39.1987L66.8264 41.1059C66.8192 41.0961 66.8186 41.0941 66.8245 41.104C66.8305 41.114 66.84 41.1308 66.8547 41.1589L69.7026 39.667ZM70.0256 40.638C69.9648 40.282 69.8489 39.9736 69.7322 39.7265L66.825 41.0993C66.8386 41.1281 66.8469 41.1495 66.8518 41.164C66.8566 41.1784 66.8571 41.1831 66.8564 41.179L70.0256 40.638ZM67.0894 44.7129C68.9764 44.3786 70.3748 42.6111 70.0239 40.6284L66.858 41.1886C66.8746 41.2821 66.8119 41.4969 66.5286 41.5471L67.0894 44.7129ZM63.8292 43.6488C64.6362 44.5028 65.8541 44.9327 67.0906 44.7127L66.5274 41.5473C66.3712 41.5751 66.2391 41.518 66.166 41.4406L63.8292 43.6488ZM40.5721 39.8753C40.2096 38.3837 38.7017 37.4955 37.2377 37.8513L37.997 40.9754C37.7633 41.0322 37.5115 40.8959 37.448 40.6346L40.5721 39.8753ZM54.8529 90.9384L40.5582 39.822L37.4619 40.6879L51.7566 91.8043L54.8529 90.9384ZM54.8784 91.0405C54.8751 91.0266 54.8722 91.0148 54.8695 91.0032L51.7399 91.7395C51.7438 91.7558 51.7475 91.7716 51.7507 91.785L54.8784 91.0405ZM54.9317 91.2845C54.913 91.1845 54.8904 91.0911 54.8784 91.0405L51.7507 91.785C51.766 91.8494 51.7698 91.8665 51.7717 91.8769L54.9317 91.2845ZM49.4085 93.1882H53.3517V89.9732H49.4085V93.1882ZM46.4915 87.5441C46.6517 88.0675 46.9967 89.1943 47.3016 90.1902C47.4541 90.6882 47.5965 91.1535 47.7009 91.4943C47.753 91.6646 47.7957 91.8039 47.8253 91.9006C47.8401 91.9489 47.8516 91.9866 47.8594 92.0122C47.8634 92.025 47.8664 92.0348 47.8684 92.0414C47.8694 92.0446 47.8701 92.0471 47.8706 92.0488C47.8709 92.0496 47.8711 92.0503 47.8712 92.0507C47.8713 92.0509 47.8713 92.0511 47.8714 92.0512C47.8714 92.0512 47.8714 92.0513 47.8714 92.0513C47.8714 92.0513 47.8714 92.0513 49.4085 91.5807C50.9456 91.1101 50.9456 91.1101 50.9456 91.11C50.9456 91.11 50.9456 91.11 50.9456 91.1099C50.9455 91.1098 50.9455 91.1097 50.9454 91.1095C50.9453 91.109 50.9451 91.1084 50.9448 91.1076C50.9443 91.1059 50.9436 91.1034 50.9426 91.1001C50.9405 91.0935 50.9375 91.0838 50.9336 91.071C50.9258 91.0454 50.9143 91.0077 50.8995 90.9594C50.8699 90.8627 50.8272 90.7234 50.7751 90.553C50.6707 90.2123 50.5283 89.747 50.3758 89.249C50.0709 88.2531 49.7259 87.1263 49.5657 86.603L46.4915 87.5441ZM47.0588 83.9079C45.5222 84.38 45.5222 84.3801 45.5222 84.3801C45.5222 84.3801 45.5222 84.3801 45.5222 84.3801C45.5222 84.3802 45.5223 84.3803 45.5223 84.3805C45.5224 84.3807 45.5225 84.3811 45.5227 84.3817C45.523 84.3828 45.5235 84.3844 45.5242 84.3866C45.5256 84.391 45.5275 84.3975 45.5302 84.406C45.5354 84.423 45.5431 84.448 45.553 84.4802C45.5727 84.5446 45.6013 84.6376 45.6364 84.7518C45.7066 84.9804 45.8029 85.2943 45.9075 85.6353C46.117 86.3182 46.3588 87.1076 46.4905 87.541L49.5667 86.6061C49.4335 86.168 49.1905 85.3746 48.9812 84.6925C48.8765 84.3511 48.7801 84.0369 48.7098 83.8081C48.6747 83.6937 48.6461 83.6006 48.6263 83.5362C48.6164 83.5039 48.6087 83.4788 48.6034 83.4618C48.6008 83.4533 48.5988 83.4468 48.5975 83.4424C48.5968 83.4402 48.5963 83.4385 48.596 83.4374C48.5958 83.4369 48.5957 83.4365 48.5956 83.4362C48.5955 83.436 48.5955 83.4359 48.5955 83.4359C48.5955 83.4358 48.5955 83.4358 48.5955 83.4358C48.5954 83.4358 48.5954 83.4358 47.0588 83.9079ZM43.3301 81.7857C43.9514 82.0838 44.3247 82.3541 44.6175 82.6888C44.9201 83.0347 45.2216 83.547 45.5457 84.4506L48.572 83.3652C48.1698 82.2438 47.698 81.3271 47.0372 80.5718C46.3666 79.8053 45.5865 79.3024 44.7211 78.8871L43.3301 81.7857ZM38.9036 80.3479C40.7476 80.8191 41.9842 81.14 43.3302 81.7857L44.7209 78.887C43.0446 78.0828 41.5041 77.694 39.6996 77.2329L38.9036 80.3479ZM36.4589 79.7016C37.3733 79.9569 38.181 80.1632 38.9036 80.3479L39.6996 77.2329C38.9754 77.0479 38.1994 76.8495 37.3233 76.605L36.4589 79.7016ZM24.4765 68.0539C26.5294 75.2675 32.533 78.6052 36.4586 79.7016L37.3235 76.605C34.0292 75.685 29.2071 72.9305 27.5688 67.1739L24.4765 68.0539ZM21.0328 40.8061C19.4502 41.0881 19.4502 41.0882 19.4502 41.0884C19.4503 41.0886 19.4503 41.0889 19.4504 41.0893C19.4505 41.09 19.4507 41.0912 19.451 41.0927C19.4515 41.0957 19.4524 41.1002 19.4534 41.1062C19.4556 41.1182 19.4587 41.136 19.4629 41.1596C19.4713 41.2066 19.4838 41.2765 19.5001 41.3677C19.5326 41.5501 19.5804 41.8177 19.6415 42.1591C19.7635 42.8418 19.9386 43.8193 20.1503 44.9984C20.5739 47.3566 21.1446 50.522 21.7332 53.7502C22.3216 56.9776 22.9284 60.2707 23.4239 62.883C23.909 65.4403 24.309 67.4656 24.4766 68.0542L27.5687 67.1736C27.4522 66.7646 27.0865 64.9402 26.5827 62.2839C26.0893 59.6828 25.4841 56.3986 24.8961 53.1735C24.3082 49.9491 23.738 46.7866 23.3148 44.4301C23.1031 43.2518 22.9283 42.2752 22.8063 41.5932C22.7453 41.2522 22.6976 40.9848 22.6651 40.8028C22.6489 40.7117 22.6364 40.642 22.628 40.5951C22.6239 40.5716 22.6207 40.5538 22.6186 40.5419C22.6175 40.536 22.6167 40.5315 22.6162 40.5285C22.6159 40.527 22.6157 40.5259 22.6156 40.5252C22.6155 40.5248 22.6155 40.5245 22.6154 40.5243C22.6154 40.5241 22.6154 40.5241 21.0328 40.8061ZM21.4947 37.8513C20.0031 38.2139 19.1149 39.7217 19.4707 41.1857L22.5948 40.4264C22.6516 40.6601 22.5153 40.9119 22.2541 40.9754L21.4947 37.8513ZM24.8292 39.8753C24.4666 38.3837 22.9588 37.4955 21.4947 37.8513L22.2541 40.9754C22.0204 41.0322 21.7686 40.8959 21.7051 40.6346L24.8292 39.8753ZM29.853 61.5562L24.8332 39.8921L21.7011 40.6178L26.7209 62.282L29.853 61.5562ZM30.1368 60.3116H28.2869V63.5266H30.1368V60.3116ZM24.8157 41.0863L28.5539 62.1994L31.7197 61.6388L27.9815 40.5258L24.8157 41.0863ZM26.8606 37.8513C25.3689 38.2139 24.4807 39.7217 24.8366 41.1857L27.9607 40.4264C28.0175 40.6601 27.8812 40.9119 27.6199 40.9754L26.8606 37.8513ZM30.195 39.8753C29.8325 38.3837 28.3246 37.4955 26.8606 37.8513L27.6199 40.9754C27.3862 41.0322 27.1344 40.8959 27.0709 40.6346L30.195 39.8753ZM35.4416 61.5407L30.1953 39.8766L27.0706 40.6333L32.3168 62.2974L35.4416 61.5407ZM35.9896 60.3116H33.8792V63.5266H35.9896V60.3116ZM29.8389 41.1469L34.4186 62.2599L37.5606 61.5783L32.9809 40.4653L29.8389 41.1469ZM31.8718 37.8513C30.3802 38.2139 29.492 39.7217 29.8478 41.1857L32.9719 40.4264C33.0287 40.6601 32.8924 40.9119 32.6312 40.9754L31.8718 37.8513ZM35.2063 39.8753C34.8437 38.3837 33.3359 37.4955 31.8718 37.8513L32.6312 40.9754C32.3975 41.0322 32.1457 40.8959 32.0822 40.6346L35.2063 39.8753ZM41.2293 61.4876L35.1928 39.8235L32.0957 40.6865L38.1323 62.3506L41.2293 61.4876ZM41.6374 60.3116H39.6808V63.5266H41.6374V60.3116ZM35.2092 41.1668L40.0709 62.2798L43.204 61.5584L38.3422 40.4454L35.2092 41.1668ZM37.2377 37.8513C35.746 38.2139 34.8578 39.7217 35.2137 41.1857L38.3378 40.4264C38.3946 40.6601 38.2583 40.9119 37.997 40.9754L37.2377 37.8513Z" fill="#FAAD19" mask="url(#path-2-inside-1_54_6672)"/>
</g>
<g style="mix-blend-mode:hard-light" filter="url(#filter2_f_54_6672)">
<path d="M63.0037 43.865L63.004 43.8654L63.0044 43.866L63.0084 43.8715L63.0272 43.8977C63.0444 43.9216 63.0707 43.9587 63.1054 44.0082C63.1749 44.1074 63.278 44.2567 63.4087 44.4521C63.6701 44.8431 64.0414 45.418 64.4744 46.1446C65.3415 47.5998 66.4504 49.6541 67.4207 52.052C69.3786 56.8906 70.6886 62.9203 68.5948 68.2505C66.4433 73.7274 61.2897 78.1327 53.7103 79.2963L44.508 46.5839C44.5197 46.5568 44.5321 46.5281 44.5454 46.4978C44.6627 46.2299 44.8421 45.8382 45.0858 45.3548C45.5573 44.4198 46.2668 43.1475 47.2295 41.7677C47.3679 41.6378 47.4562 41.4903 47.507 41.3783C49.3204 38.8676 51.9207 36.1289 55.3918 34.4033L55.3939 34.4022L55.7664 34.216C57.181 33.5542 58.7308 33.059 60.4305 32.815L63.5731 32.364L60.7822 30.8506L54.2378 27.302C54.2301 27.2799 54.2222 27.2568 54.2143 27.2326C54.132 26.9837 54.0443 26.6484 54.0098 26.2857C53.9403 25.5551 54.0882 24.8848 54.7234 24.4209L54.7237 24.4207C55.9953 23.4916 57.8546 23.8908 58.7264 25.4198C58.9323 25.7839 59.0633 26.1685 59.1423 26.4716C59.1812 26.6207 59.2059 26.7438 59.2204 26.8262C59.2277 26.8672 59.2323 26.8976 59.2349 26.9155L59.2369 26.9303L59.237 26.931L59.2372 26.9323L59.2372 26.9327L59.2373 26.9337L59.4269 28.5962L60.838 27.7018L60.8391 27.7011L60.8393 27.701L60.8453 27.6974C60.8544 27.692 60.8717 27.6819 60.8969 27.6681C60.9473 27.6404 61.028 27.5982 61.1346 27.5497C61.3494 27.452 61.66 27.3328 62.0326 27.2513C62.7739 27.0891 63.7204 27.0814 64.6852 27.6452L64.6854 27.6453C65.4678 28.1024 65.7957 28.6187 65.9593 29.1505C66.1425 29.7464 66.1392 30.4118 66.1239 31.2464L66.1238 31.2517C66.1204 31.4388 66.1168 31.6352 66.1168 31.8301V33.7996V34.3288L66.5419 34.644L68.9702 36.4442L66.6599 37.546L65.6097 38.0469L66.2143 39.0409L67.2226 40.6985L67.2468 40.7383L67.2744 40.7758C67.2866 40.7923 67.3061 40.8229 67.3369 40.8804C67.3751 40.9645 67.3958 41.0323 67.4049 41.0854L67.406 41.0916C67.4804 41.5121 67.1865 41.9957 66.6257 42.0951L66.6249 42.0952C66.2953 42.1538 65.9871 42.044 65.786 41.8476L65.7158 41.76L65.4003 41.3655H64.8951H64.8908H64.4765L64.1736 41.6482C63.8877 41.915 63.5862 42.1598 63.2696 42.3708L62.3567 42.9794L63.0037 43.865ZM37.9887 40.5032L37.993 40.5207L37.9978 40.538L51.9779 90.5296H50.1859L49.8437 89.4119L49.0343 86.7679C49.0341 86.7675 49.034 86.7671 49.0339 86.7666C48.9009 86.3291 48.6583 85.5372 48.4492 84.8557L48.1779 83.9715L48.0944 83.6996L48.0715 83.6252L48.0656 83.6058L48.064 83.6009L48.0637 83.5996L48.0636 83.5993L48.0635 83.5992L47.0588 83.9079L48.0635 83.5992L48.0564 83.576L48.0482 83.5531C47.6595 82.4694 47.2172 81.6226 46.6184 80.9382C46.0132 80.2465 45.3035 79.7838 44.4803 79.3888L44.4802 79.3887C42.8751 78.6187 41.399 78.2415 39.609 77.7841L39.5619 77.7721C38.8379 77.5871 38.0564 77.3873 37.1737 77.1409C33.7701 76.1903 28.7436 73.3349 27.0336 67.3262L27.0336 67.326C26.9082 66.8859 26.5365 65.0267 26.036 62.3876C25.5422 59.7845 24.9368 56.4988 24.3487 53.2733C23.7607 50.0482 23.1904 46.8853 22.7671 44.5284C22.5554 43.35 22.3805 42.3733 22.2586 41.6911L22.1173 40.9005L22.0802 40.6928L22.0708 40.6396L22.0684 40.6262L22.0678 40.6228L22.0676 40.622C22.0676 40.6218 22.0676 40.6217 21.0328 40.8061L22.0676 40.6217L22.0618 40.5896L22.0541 40.5578C22.0476 40.5312 22.0516 40.5033 22.0671 40.4775C22.0823 40.4523 22.1018 40.4398 22.1226 40.4347C22.1493 40.4282 22.1772 40.4321 22.2029 40.4477C22.2272 40.4623 22.2397 40.4809 22.2452 40.5008L27.263 62.1564L27.4515 62.9702H28.2869H30.1368H31.3903L31.1717 61.7358L27.4336 40.6228L27.4278 40.5901L27.42 40.5578C27.4135 40.5312 27.4174 40.5033 27.4329 40.4775C27.4481 40.4523 27.4677 40.4398 27.4885 40.4347C27.5152 40.4282 27.543 40.4321 27.5688 40.4477C27.5939 40.4628 27.6065 40.4822 27.6116 40.503C27.6116 40.5031 27.6116 40.5031 27.6116 40.5032L32.8576 62.1665L33.0523 62.9702H33.8792H35.9896H37.2932L37.0168 61.6963L32.4371 40.5833L32.4343 40.5705L32.4312 40.5578C32.4247 40.5311 32.4287 40.5033 32.4442 40.4775C32.4594 40.4523 32.4789 40.4398 32.4997 40.4347C32.5264 40.4282 32.5542 40.4321 32.58 40.4477C32.6052 40.4629 32.6178 40.4824 32.6229 40.5032L32.627 40.5202L32.6317 40.5371L38.6683 62.2012L38.8825 62.9702H39.6808H41.6374H42.9581L42.6617 61.6832L37.8 40.5702L37.8001 40.5702L37.7971 40.5578C37.7906 40.5312 37.7945 40.5033 37.81 40.4775C37.8252 40.4523 37.8447 40.4398 37.8656 40.4347C37.8923 40.4282 37.9201 40.4321 37.9459 40.4477C37.9711 40.4629 37.9837 40.4824 37.9887 40.5032ZM54.3527 27.5948C54.353 27.5954 54.353 27.5953 54.3526 27.5946L54.3527 27.5948Z" stroke="#FAAD19" stroke-width="2.10215"/>
</g>
<g style="mix-blend-mode:hard-light" filter="url(#filter3_ddi_54_6672)">
<path d="M46.5611 40.9106L46.5589 40.918C46.5563 40.9262 46.5537 40.9345 46.5504 40.9427M46.5611 40.9106L43.3975 46.5178C43.3975 46.5178 44.3716 43.9887 46.4735 41.0153C46.5077 41.011 46.5333 40.9854 46.5504 40.9427M46.5611 40.9106C46.5643 40.8999 46.5675 40.8893 46.5718 40.8786L46.5611 40.9106ZM46.5504 40.9427L46.8023 41.0434L46.8024 41.0435L46.5504 40.9427ZM68.825 68.3409C66.6181 73.9589 61.3084 78.4485 53.5312 79.573L44.2463 46.5668C44.2671 46.5177 44.2913 46.4615 44.3189 46.3986C44.4378 46.127 44.619 45.7312 44.865 45.2435C45.3432 44.2951 46.0637 43.0034 47.0426 41.6033C47.1721 41.4888 47.2501 41.3523 47.2911 41.2549C49.1191 38.719 51.7527 35.9362 55.2817 34.1818L55.2833 34.181L55.6586 33.9934C57.0942 33.3214 58.6684 32.8181 60.3953 32.5702L62.7985 32.2253L60.6643 31.068L54.037 27.4745C54.0191 27.4262 53.9996 27.3712 53.9794 27.3102C53.8933 27.0495 53.8004 26.6954 53.7636 26.3091C53.6897 25.5325 53.8441 24.7568 54.5776 24.2212L54.5778 24.221C55.9795 23.1968 58.0036 23.652 58.9416 25.298C59.1613 25.6864 59.2991 26.0927 59.3816 26.4092C59.4224 26.5657 59.4485 26.6953 59.464 26.7832C59.4717 26.827 59.4768 26.8601 59.4797 26.8805L59.4825 26.9013L59.4826 26.9014L59.4826 26.9017L59.4826 26.9021L59.4827 26.9026L59.4828 26.9034L59.4829 26.904L59.6279 28.176L60.7084 27.4912L60.7087 27.491L60.7089 27.4909L60.7095 27.4905L60.7103 27.4899L60.7109 27.4896L60.7191 27.4847C60.7304 27.478 60.7501 27.4666 60.7777 27.4514C60.833 27.421 60.9193 27.3759 61.0322 27.3246C61.2593 27.2213 61.5865 27.0958 61.9797 27.0097C62.7631 26.8383 63.7771 26.8282 64.81 27.4317L64.8101 27.4318C65.6462 27.9201 66.0139 28.4868 66.1956 29.0778C66.3925 29.7179 66.3863 30.4236 66.3712 31.2509L66.3711 31.2545C66.3677 31.4424 66.3641 31.6372 66.3641 31.8301V33.7996V34.2043L66.6892 34.4453L69.4478 36.4904L66.7663 37.7692L65.9633 38.1522L66.4256 38.9124L67.4339 40.57L67.4524 40.6004L67.4735 40.6291C67.4962 40.6599 67.5232 40.704 67.5586 40.7707C67.6053 40.872 67.6349 40.9629 67.6487 41.0437L67.6495 41.0485C67.7496 41.6144 67.353 42.2174 66.6688 42.3386L66.6682 42.3387C66.2528 42.4126 65.859 42.2717 65.6017 42.0132L65.5227 41.9145L65.2814 41.6128H64.8951H64.8908H64.574L64.3424 41.829C64.0484 42.1034 63.7364 42.3569 63.4068 42.5766L62.7087 43.042L63.2035 43.7193L63.2036 43.7194L63.2037 43.7195L63.2044 43.7205L63.2088 43.7266L63.2283 43.7537C63.2459 43.7783 63.2727 43.816 63.308 43.8663C63.3784 43.9669 63.4826 44.1177 63.6143 44.3147C63.8778 44.7088 64.2514 45.2873 64.6868 46.018C65.5586 47.4809 66.6738 49.5467 67.65 51.9593C69.6156 56.817 70.9539 62.9214 68.825 68.3409ZM38.229 40.4448L38.2323 40.4582L38.236 40.4714L52.3039 90.7769H50.003L49.6073 89.4843L48.7976 86.8398C48.7975 86.8396 48.7975 86.8393 48.7974 86.839C48.6645 86.4019 48.4219 85.6101 48.2128 84.9282L47.9415 84.044L47.858 83.7722L47.8351 83.6978L47.8292 83.6785L47.8276 83.6735L47.8273 83.6722L47.8272 83.6719L47.8271 83.6719L47.0588 83.9079L47.8271 83.6718L47.8217 83.6541L47.8154 83.6366C47.4327 82.5696 47.0035 81.754 46.4323 81.1011C45.8562 80.4425 45.1777 79.9978 44.3733 79.6117L44.3732 79.6117C42.7903 78.8523 41.3348 78.4804 39.5374 78.0211L39.5006 78.0117C38.7769 77.8267 37.9929 77.6264 37.1073 77.3792C33.6551 76.415 28.5377 73.5148 26.7957 67.3939L26.7957 67.3937C26.6664 66.9399 26.2921 65.0652 25.793 62.4337C25.2991 59.8298 24.6935 56.5434 24.1054 53.3177C23.5173 50.0923 22.947 46.9291 22.5237 44.5721C22.312 43.3937 22.1371 42.4169 22.0151 41.7347L21.8738 40.944L21.8368 40.7362L21.8273 40.683L21.8249 40.6696L21.8243 40.6662L21.8241 40.6653C21.8241 40.6652 21.8241 40.6651 21.0328 40.8061L21.8241 40.6651L21.8197 40.6405L21.8138 40.6162C21.7674 40.4255 21.8873 40.2374 22.0642 40.1944L21.8744 39.4134L22.0642 40.1944C22.2539 40.1483 22.441 40.2665 22.4854 40.4419C22.4856 40.4429 22.4859 40.4438 22.4861 40.4448L27.5039 62.1005L27.6481 62.7229H28.2869H30.1368H31.0953L30.9282 61.779L27.1901 40.666L27.1857 40.6409L27.1797 40.6162C27.1333 40.4255 27.2531 40.2374 27.4301 40.1944L27.2402 39.4134L27.4301 40.1944C27.6208 40.148 27.8089 40.2678 27.8519 40.4448L33.098 62.1083L33.2468 62.7229H33.8792H35.9896H36.9864L36.7751 61.7487L32.1954 40.6357L32.1933 40.6259L32.1909 40.6162C32.1445 40.4255 32.2644 40.2374 32.4413 40.1944L32.2515 39.4134L32.4413 40.1944C32.6321 40.148 32.8202 40.2678 32.8632 40.4448L32.8664 40.4578L32.87 40.4707L38.9065 62.1348L39.0704 62.7229H39.6808H41.6374H42.6473L42.4207 61.7387L37.559 40.6257L37.559 40.6257L37.5567 40.6162C37.5104 40.4255 37.6302 40.2374 37.8072 40.1944C37.9979 40.148 38.186 40.2678 38.229 40.4448Z" stroke="#FFC940" stroke-opacity="0.2" stroke-width="1.60753"/>
</g>
<g filter="url(#filter4_f_54_6672)">
<path d="M53.3067 79.9164C61.3303 78.8429 66.8363 74.2489 69.1127 68.454C71.2855 62.9228 69.9119 56.725 67.9365 51.8433C66.9529 49.4125 65.8299 47.3324 64.9524 45.8598C64.5139 45.1239 64.1374 44.5409 63.8713 44.1429C63.7382 43.9439 63.6328 43.7912 63.5611 43.6889C63.5253 43.6377 63.4979 43.5992 63.4796 43.5737L63.4593 43.5454L63.4545 43.5388L63.4534 43.5373L63.4533 43.5371L63.4532 43.5371L63.1487 43.1202L63.5783 42.8338C63.924 42.6033 64.2491 42.3389 64.5533 42.055L64.6959 41.9219H64.8908H64.8951H65.1328L65.2813 42.1076L65.3702 42.2186C65.6977 42.5561 66.1992 42.7361 66.7224 42.643L66.7227 42.643C67.5611 42.4944 68.0862 41.7422 67.9539 40.9947L67.9534 40.9917C67.9335 40.8751 67.8925 40.7552 67.8356 40.6332C67.7953 40.5567 67.7589 40.4953 67.7224 40.4457L67.7094 40.4281L67.698 40.4094L66.6897 38.7518L66.4052 38.284L66.8994 38.0483L70.0448 36.5482L66.8733 34.197L66.6732 34.0486V33.7996V31.8301C66.6732 31.6401 66.6768 31.4479 66.6802 31.2591L66.6803 31.2566C66.6952 30.4384 66.7049 29.6822 66.4911 28.9869C66.2866 28.3219 65.8691 27.6923 64.966 27.1648L64.966 27.1648C63.8481 26.5116 62.7496 26.5248 61.9136 26.7077C61.4947 26.7994 61.1465 26.933 60.9043 27.0432C60.7835 27.0981 60.6901 27.1467 60.6287 27.1805C60.598 27.1974 60.5754 27.2105 60.5614 27.2188L60.5469 27.2275L60.5459 27.2281L60.5456 27.2284L60.5453 27.2285L60.5449 27.2288L60.5447 27.2289L59.8791 27.6507L59.7898 26.8673L59.7898 26.867L59.7898 26.8669L59.7897 26.8668L59.7897 26.8666L59.7897 26.8664L59.7892 26.862L59.7857 26.8367C59.7823 26.8132 59.7768 26.7768 59.7684 26.7295C59.7517 26.6347 59.7239 26.4968 59.6808 26.3312C59.5938 25.9978 59.4474 25.5641 59.2103 25.1452C58.1894 23.3534 55.9596 22.8285 54.3954 23.9714L54.3953 23.9715C53.5388 24.5969 53.3765 25.5044 53.4559 26.3384C53.4954 26.7542 53.5949 27.1317 53.6859 27.4072C53.7244 27.5237 53.7608 27.6203 53.7896 27.692L60.5169 31.3398L61.8303 32.052L60.3514 32.2642C58.5903 32.517 56.9857 33.0305 55.5239 33.7151L55.1451 33.9045L55.144 33.905C51.5402 35.6966 48.8639 38.5372 47.0175 41.1057C47.0151 41.1124 47.0125 41.1193 47.0097 41.1264C47.0096 41.1264 47.0096 41.1264 47.0096 41.1264L47.0042 41.1242C46.9942 41.1382 46.9841 41.1523 46.9741 41.1663L46.8024 41.0435L46.5504 40.9427M53.3067 79.9164L46.5611 40.9106C46.5643 40.8999 46.5675 40.8893 46.5718 40.8786L46.6567 40.9393L46.6567 40.9393L46.8023 41.0434L46.5504 40.9427M53.3067 79.9164L43.9195 46.5466C43.948 46.4779 43.9867 46.3865 44.0357 46.2746C44.1566 45.9984 44.3403 45.5975 44.589 45.1043C45.0763 44.1378 45.812 42.8197 46.8133 41.3919L53.3067 79.9164ZM46.5504 40.9427C46.5333 40.9854 46.5077 41.011 46.4735 41.0153L46.5504 40.9427ZM38.5294 40.3718L38.5314 40.38L38.5337 40.3882L52.7113 91.0861H49.7744L49.7109 90.8789L49.3117 89.5748L48.5018 86.9297C48.5018 86.9294 48.5017 86.9291 48.5016 86.9288C48.3688 86.4921 48.1264 85.7007 47.9173 85.0189L47.6459 84.1348L47.5624 83.8629L47.5396 83.7886L47.5337 83.7692L47.5321 83.7643L47.5318 83.763L47.5317 83.7627L47.5316 83.7627L47.0588 83.9079L47.5316 83.7626L47.5283 83.7517L47.5244 83.7409C47.1493 82.6949 46.7364 81.9182 46.1996 81.3046C45.6598 80.6876 45.0205 80.2652 44.2396 79.8904L44.2395 79.8904C42.6842 79.1442 41.2546 78.7789 39.4474 78.3172L39.4241 78.3112C38.7004 78.1263 37.9135 77.9252 37.0241 77.6769C33.5113 76.6958 28.2802 73.7395 26.4984 67.4785L26.4984 67.4784C26.3642 67.0073 25.9866 65.1133 25.4893 62.4913C24.9951 59.8863 24.3894 56.599 23.8013 53.3731C23.2131 50.1474 22.6428 46.9839 22.2194 44.6268C22.0077 43.4483 21.8328 42.4713 21.7108 41.7891L21.5695 40.9983L21.5324 40.7905L21.5229 40.7373L21.5205 40.7238L21.5199 40.7204L21.5198 40.7196C21.5198 40.7194 21.5197 40.7193 21.0328 40.8061L21.5197 40.7193L21.517 40.7042L21.5134 40.6893C21.4274 40.3353 21.6457 39.978 21.9912 39.894C22.3445 39.8081 22.701 40.0253 22.786 40.3696C22.7861 40.3703 22.7863 40.3711 22.7865 40.3718L27.8051 62.0307L27.8938 62.4137H28.2869H30.1368H30.7267L30.6238 61.8329L26.8857 40.7198L26.8829 40.7045L26.8793 40.6893C26.7932 40.3353 27.0116 39.978 27.3571 39.894C27.7111 39.8079 28.0684 40.0263 28.1523 40.3718L33.3985 62.0355L33.49 62.4137H33.8792H35.9896H36.6031L36.473 61.8142L31.8933 40.7012L31.8934 40.7012L31.8905 40.6893C31.8045 40.3353 32.0228 39.978 32.3683 39.894C32.7223 39.8079 33.0796 40.0263 33.1636 40.3718L33.1655 40.3798L33.1677 40.3877L39.2043 62.0519L39.3051 62.4137H39.6808H41.6374H42.2589L42.1194 61.8081L37.2577 40.6951L37.2578 40.6951L37.2563 40.6893C37.1703 40.3353 37.3886 39.978 37.7342 39.894C38.0882 39.8079 38.4454 40.0263 38.5294 40.3718Z" stroke="#FFD56A" stroke-width="0.989247"/>
</g>
<g filter="url(#filter5_f_54_6672)">
<path d="M69.3429 68.5444C67.0107 74.4813 61.3467 79.1582 53.1265 80.1891L43.6583 46.5315C43.6625 46.5211 43.6672 46.5097 43.6723 46.4972C43.7024 46.4239 43.7479 46.3153 43.8091 46.1754C43.9317 45.8955 44.1172 45.4906 44.3681 44.9929C44.8637 44.0102 45.6136 42.6675 46.6357 41.2144C46.7121 41.1663 46.757 41.0921 46.78 41.0345C46.7866 41.0182 46.7916 41.0025 46.795 40.9917C48.656 38.3958 51.3675 35.5063 55.0339 33.6836L55.0345 33.6833L55.4161 33.4925C56.899 32.7977 58.5279 32.2761 60.3163 32.0194L61.0557 31.9133L60.399 31.5572L53.5946 27.8676C53.5888 27.8541 53.5824 27.8387 53.5753 27.8216C53.5429 27.7431 53.4984 27.628 53.4511 27.4848C53.3561 27.1974 53.2515 26.8012 53.2097 26.3619C53.1259 25.4818 53.2947 24.469 54.2494 23.7718L54.2495 23.7717C55.9436 22.5339 58.3378 23.1145 59.4251 25.0226C59.6762 25.466 59.8296 25.9217 59.9201 26.2688C59.9652 26.4417 59.9943 26.5861 60.012 26.6865C60.0208 26.7367 60.0268 26.7757 60.0305 26.8017L60.0345 26.8306L60.0353 26.8372L60.0354 26.8384L60.0354 26.8385L60.0354 26.8385L60.0354 26.8386L60.0801 27.2306L60.4132 27.0194L60.4133 27.0194L60.4134 27.0193L60.4135 27.0192L60.4138 27.0191L60.4176 27.0168L60.4352 27.0061C60.4514 26.9965 60.4763 26.9821 60.5095 26.9638C60.5759 26.9273 60.6748 26.8759 60.8019 26.8181C61.0563 26.7023 61.4213 26.5623 61.8608 26.4661C62.7388 26.274 63.9049 26.2583 65.0907 26.9513L65.0908 26.9513C66.0474 27.5101 66.5048 28.1899 66.7275 28.9142C66.9549 29.6536 66.9424 30.4502 66.9275 31.2611L66.9275 31.2624C66.924 31.452 66.9206 31.6424 66.9206 31.8301V33.7996V33.9241L67.0206 33.9983L70.5224 36.5944L67.0059 38.2715L66.7588 38.3893L66.901 38.6232L67.9093 40.2808L67.915 40.2902L67.9215 40.299C67.9695 40.3642 68.0133 40.4397 68.0572 40.5232C68.122 40.6612 68.1723 40.8044 68.1972 40.9501L68.1975 40.9516C68.3554 41.8444 67.7276 42.7161 66.7659 42.8865L66.7657 42.8865C66.156 42.995 65.5679 42.7833 65.1842 42.382L65.0882 42.2621L65.014 42.1692H64.8951H64.8908H64.7933L64.7221 42.2358C64.4098 42.5272 64.0742 42.8004 63.7155 43.0396L63.5007 43.1828L63.653 43.3913L63.8527 43.2454L63.653 43.3913L63.6533 43.3917L63.6545 43.3933L63.6597 43.4005L63.6807 43.4298C63.6994 43.4559 63.7273 43.4951 63.7637 43.547C63.8363 43.6507 63.9428 43.8048 64.0769 44.0054C64.3451 44.4066 64.7239 44.9932 65.1649 45.7332C66.047 47.2135 67.1763 49.3052 68.1658 51.7505C70.1489 56.6513 71.5507 62.9239 69.3429 68.5444ZM53.6261 27.9384C53.6261 27.9384 53.6261 27.9384 53.6261 27.9383L53.6261 27.9384ZM38.7697 40.3134L38.7696 40.3134L38.7719 40.3216L53.0373 91.3334H49.5914L49.4744 90.9512L49.0752 89.6472L48.2652 87.0017C48.1327 86.5655 47.8901 85.7738 47.6808 85.0914L47.4095 84.2074L47.326 83.9356L47.3032 83.8612L47.2973 83.8419L47.2957 83.8369L47.2953 83.8357L47.2953 83.8354L47.2952 83.8353L47.2955 83.8352L47.2916 83.8244C46.9225 82.7952 46.5227 82.0495 46.0135 81.4675C45.5028 80.8837 44.8947 80.4791 44.1326 80.1134L44.0256 80.3364L44.1326 80.1134C42.5993 79.3778 41.1903 79.0178 39.3749 78.5539L39.3629 78.5508C38.6393 78.3659 37.8499 78.1642 36.9576 77.9151C33.3962 76.9204 28.0742 73.9193 26.2605 67.5462L26.2605 67.5461C26.1224 67.0612 25.7422 65.1518 25.2463 62.5374C24.752 59.9315 24.1461 56.6436 23.558 53.4175C22.9698 50.1915 22.3994 47.0278 21.976 44.6705C21.7643 43.4919 21.5893 42.5149 21.4673 41.8326L21.326 41.0418L21.289 40.8339L21.2795 40.7807L21.2771 40.7672L21.2765 40.7638L21.2763 40.763C21.2763 40.7628 21.2763 40.7627 21.0328 40.8061L21.2763 40.7627L21.2749 40.7551L21.2731 40.7477C21.1553 40.2631 21.4525 39.7704 21.9328 39.6537C22.417 39.536 22.9092 39.8325 23.0265 40.3122C23.0266 40.3126 23.0267 40.313 23.0268 40.3134L28.046 61.9749L28.0904 62.1664H28.2869H30.1368H30.4317L30.3803 61.876L26.6422 40.763L26.6408 40.7553L26.6389 40.7477C26.5212 40.2631 26.8183 39.7704 27.2987 39.6537C27.7832 39.5359 28.2758 39.8329 28.3926 40.3132C28.3926 40.3132 28.3926 40.3133 28.3927 40.3134L33.6388 61.9773L33.6846 62.1664H33.8792H35.9896H36.2963L36.2313 61.8667L31.6516 40.7537L31.6516 40.7536L31.6502 40.7477C31.5324 40.2631 31.8295 39.7704 32.3099 39.6537C32.7945 39.5359 33.2872 39.833 33.4039 40.3134L33.4038 40.3134L33.406 40.3214L39.4426 61.9855L39.493 62.1664H39.6808H41.6374H41.9482L41.8784 61.8636L37.0167 40.7506L37.0167 40.7506L37.016 40.7477C36.8982 40.2631 37.1954 39.7704 37.6757 39.6537C38.1603 39.5359 38.653 39.833 38.7697 40.3134Z" stroke="white" stroke-width="0.494623"/>
</g>
<defs>
<filter id="filter0_f_54_6672" x="0.000198364" y="0.000198364" width="91.9996" height="114.451" filterUnits="userSpaceOnUse" color-interpolation-filters="sRGB">
<feFlood flood-opacity="0" result="BackgroundImageFix"/>
<feBlend mode="normal" in="SourceGraphic" in2="BackgroundImageFix" result="shape"/>
<feGaussianBlur stdDeviation="7.9999" result="effect1_foregroundBlur_54_6672"/>
</filter>
<filter id="filter1_f_54_6672" x="13.5806" y="15.4517" width="64.8387" height="83.5482" filterUnits="userSpaceOnUse" color-interpolation-filters="sRGB">
<feFlood flood-opacity="0" result="BackgroundImageFix"/>
<feBlend mode="normal" in="SourceGraphic" in2="BackgroundImageFix" result="shape"/>
<feGaussianBlur stdDeviation="3.70968" result="effect1_foregroundBlur_54_6672"/>
</filter>
<filter id="filter2_f_54_6672" x="18.5269" y="20.398" width="54.9462" height="73.6557" filterUnits="userSpaceOnUse" color-interpolation-filters="sRGB">
<feFlood flood-opacity="0" result="BackgroundImageFix"/>
<feBlend mode="normal" in="SourceGraphic" in2="BackgroundImageFix" result="shape"/>
<feGaussianBlur stdDeviation="1.23656" result="effect1_foregroundBlur_54_6672"/>
</filter>
<filter id="filter3_ddi_54_6672" x="17.7849" y="22.1292" width="56.4301" height="75.1396" filterUnits="userSpaceOnUse" color-interpolation-filters="sRGB">
<feFlood flood-opacity="0" result="BackgroundImageFix"/>
<feColorMatrix in="SourceAlpha" type="matrix" values="0 0 0 0 0 0 0 0 0 0 0 0 0 0 0 0 0 0 127 0" result="hardAlpha"/>
<feOffset dy="1.60753"/>
<feGaussianBlur stdDeviation="0.618279"/>
<feColorMatrix type="matrix" values="0 0 0 0 0.224 0 0 0 0 0.15 0 0 0 0 0 0 0 0 0.7 0"/>
<feBlend mode="multiply" in2="BackgroundImageFix" result="effect1_dropShadow_54_6672"/>
<feColorMatrix in="SourceAlpha" type="matrix" values="0 0 0 0 0 0 0 0 0 0 0 0 0 0 0 0 0 0 127 0" result="hardAlpha"/>
<feOffset dy="2.47312"/>
<feGaussianBlur stdDeviation="1.60753"/>
<feColorMatrix type="matrix" values="0 0 0 0 0.56 0 0 0 0 0.44 0 0 0 0 0 0 0 0 1 0"/>
<feBlend mode="color-dodge" in2="effect1_dropShadow_54_6672" result="effect2_dropShadow_54_6672"/>
<feBlend mode="normal" in="SourceGraphic" in2="effect2_dropShadow_54_6672" result="shape"/>
<feColorMatrix in="SourceAlpha" type="matrix" values="0 0 0 0 0 0 0 0 0 0 0 0 0 0 0 0 0 0 127 0" result="hardAlpha"/>
<feOffset dx="-0.160753" dy="0.321505"/>
<feGaussianBlur stdDeviation="0.0803763"/>
<feComposite in2="hardAlpha" operator="arithmetic" k2="-1" k3="1"/>
<feColorMatrix type="matrix" values="0 0 0 0 1 0 0 0 0 1 0 0 0 0 1 0 0 0 0.5 0"/>
<feBlend mode="normal" in2="shape" result="effect3_innerShadow_54_6672"/>
</filter>
<filter id="filter4_f_54_6672" x="20.7527" y="22.6238" width="50.4946" height="69.2041" filterUnits="userSpaceOnUse" color-interpolation-filters="sRGB">
<feFlood flood-opacity="0" result="BackgroundImageFix"/>
<feBlend mode="normal" in="SourceGraphic" in2="BackgroundImageFix" result="shape"/>
<feGaussianBlur stdDeviation="0.123656" result="effect1_foregroundBlur_54_6672"/>
</filter>
<filter id="filter5_f_54_6672" x="20.8351" y="22.7062" width="50.3297" height="69.0392" filterUnits="userSpaceOnUse" color-interpolation-filters="sRGB">
<feFlood flood-opacity="0" result="BackgroundImageFix"/>
<feBlend mode="normal" in="SourceGraphic" in2="BackgroundImageFix" result="shape"/>
<feGaussianBlur stdDeviation="0.0824372" result="effect1_foregroundBlur_54_6672"/>
</filter>
</defs>
</svg>
