<svg width="106" height="120" viewBox="0 0 106 120" fill="none" xmlns="http://www.w3.org/2000/svg">
<g style="mix-blend-mode:hard-light" filter="url(#filter0_f_54_6679)">
<ellipse cx="53.0704" cy="60.1248" rx="17.7579" ry="24.7342" fill="#912DA8" fill-opacity="0.15"/>
</g>
<g style="mix-blend-mode:hard-light" filter="url(#filter1_f_54_6679)">
<mask id="path-2-inside-1_54_6679" fill="white">
<path d="M69.4008 47.2514L69.3109 47.139H69.3072C69.0262 47.4012 68.7228 47.6485 68.3969 47.8658C68.3969 47.8658 77.3465 60.1157 73.413 70.1292C71.3189 75.46 66.2129 79.6333 58.8329 80.4986L50.4602 50.7353C50.4602 50.7353 51.3144 48.5176 53.1575 45.9103C53.1874 45.9065 53.2099 45.884 53.2249 45.8466C53.2286 45.8372 53.2315 45.8278 53.2343 45.8185C53.2371 45.8091 53.2399 45.7998 53.2436 45.7904C54.8882 43.4902 57.297 40.9129 60.5674 39.287L60.9045 39.1185C62.2232 38.5003 63.673 38.0358 65.2651 37.8073L59.2337 34.5369C59.2337 34.5369 58.0013 31.9633 59.8481 30.6147C61.4477 29.4459 63.6917 30.004 64.7032 31.7797C65.1677 32.6001 65.2651 33.4543 65.2651 33.4543C65.2651 33.4543 67.3929 32.1056 69.5919 33.3906C71.3637 34.4255 71.3358 35.9516 71.31 37.361C71.3069 37.528 71.3039 37.6933 71.3039 37.856V39.583L74.6642 42.0742L71.2552 43.7L72.1393 45.1535C72.1917 45.2247 72.2367 45.3034 72.2779 45.3821C72.3416 45.5169 72.394 45.663 72.4203 45.8166C72.5813 46.7269 71.9407 47.596 70.9892 47.7646C70.3786 47.8733 69.7867 47.6597 69.4008 47.2514Z"/>
<path d="M45.3917 44.5056C45.9311 44.3744 46.4818 44.7041 46.6129 45.2436L59.1476 90.0664C59.1505 90.0787 59.1534 90.0908 59.1562 90.1027C59.1682 90.1531 59.1797 90.2016 59.1888 90.25H55.7311C55.7311 90.25 54.8021 87.2156 54.5211 86.2978C54.2888 85.5336 53.6707 83.5219 53.6707 83.5219C53.0339 81.7462 52.3146 81.0157 51.0109 80.3901C49.6858 79.7544 48.4682 79.4432 46.8686 79.0345C46.2343 78.8724 45.5399 78.6949 44.7548 78.4758C41.5893 77.5917 36.8429 74.9207 35.2246 69.234C34.7263 67.4845 30.8491 45.7268 30.8491 45.7268C30.7179 45.1874 31.0476 44.6367 31.5871 44.5056C32.1265 44.3744 32.6772 44.7041 32.8083 45.2436L37.2101 64.2404H38.8321L35.5542 45.7268C35.4231 45.1874 35.7528 44.6367 36.2922 44.5056C36.8317 44.3744 37.3824 44.7041 37.5135 45.2436L42.1138 64.2404H43.9644L39.9485 45.7268C39.8174 45.1874 40.147 44.6367 40.6865 44.5056C41.2259 44.3744 41.7766 44.7041 41.9077 45.2436L47.2011 64.2404H48.9168L44.6537 45.7268C44.5226 45.1874 44.8522 44.6367 45.3917 44.5056Z"/>
</mask>
<path d="M69.4008 47.2514L69.3109 47.139H69.3072C69.0262 47.4012 68.7228 47.6485 68.3969 47.8658C68.3969 47.8658 77.3465 60.1157 73.413 70.1292C71.3189 75.46 66.2129 79.6333 58.8329 80.4986L50.4602 50.7353C50.4602 50.7353 51.3144 48.5176 53.1575 45.9103C53.1874 45.9065 53.2099 45.884 53.2249 45.8466C53.2286 45.8372 53.2315 45.8278 53.2343 45.8185C53.2371 45.8091 53.2399 45.7998 53.2436 45.7904C54.8882 43.4902 57.297 40.9129 60.5674 39.287L60.9045 39.1185C62.2232 38.5003 63.673 38.0358 65.2651 37.8073L59.2337 34.5369C59.2337 34.5369 58.0013 31.9633 59.8481 30.6147C61.4477 29.4459 63.6917 30.004 64.7032 31.7797C65.1677 32.6001 65.2651 33.4543 65.2651 33.4543C65.2651 33.4543 67.3929 32.1056 69.5919 33.3906C71.3637 34.4255 71.3358 35.9516 71.31 37.361C71.3069 37.528 71.3039 37.6933 71.3039 37.856V39.583L74.6642 42.0742L71.2552 43.7L72.1393 45.1535C72.1917 45.2247 72.2367 45.3034 72.2779 45.3821C72.3416 45.5169 72.394 45.663 72.4203 45.8166C72.5813 46.7269 71.9407 47.596 70.9892 47.7646C70.3786 47.8733 69.7867 47.6597 69.4008 47.2514Z" fill="#912DA8" fill-opacity="0.1"/>
<path d="M45.3917 44.5056C45.9311 44.3744 46.4818 44.7041 46.6129 45.2436L59.1476 90.0664C59.1505 90.0787 59.1534 90.0908 59.1562 90.1027C59.1682 90.1531 59.1797 90.2016 59.1888 90.25H55.7311C55.7311 90.25 54.8021 87.2156 54.5211 86.2978C54.2888 85.5336 53.6707 83.5219 53.6707 83.5219C53.0339 81.7462 52.3146 81.0157 51.0109 80.3901C49.6858 79.7544 48.4682 79.4432 46.8686 79.0345C46.2343 78.8724 45.5399 78.6949 44.7548 78.4758C41.5893 77.5917 36.8429 74.9207 35.2246 69.234C34.7263 67.4845 30.8491 45.7268 30.8491 45.7268C30.7179 45.1874 31.0476 44.6367 31.5871 44.5056C32.1265 44.3744 32.6772 44.7041 32.8083 45.2436L37.2101 64.2404H38.8321L35.5542 45.7268C35.4231 45.1874 35.7528 44.6367 36.2922 44.5056C36.8317 44.3744 37.3824 44.7041 37.5135 45.2436L42.1138 64.2404H43.9644L39.9485 45.7268C39.8174 45.1874 40.147 44.6367 40.6865 44.5056C41.2259 44.3744 41.7766 44.7041 41.9077 45.2436L47.2011 64.2404H48.9168L44.6537 45.7268C44.5226 45.1874 44.8522 44.6367 45.3917 44.5056Z" fill="#912DA8" fill-opacity="0.1"/>
<path d="M69.3109 47.139L70.8727 45.8896L70.2722 45.139H69.3109V47.139ZM69.4008 47.2514L67.8391 48.5008L67.8906 48.5651L67.9472 48.625L69.4008 47.2514ZM69.3072 47.139V45.139H68.5189L67.9426 45.6769L69.3072 47.139ZM68.3969 47.8658L67.2875 46.2017L65.5503 47.3598L66.7819 49.0456L68.3969 47.8658ZM73.413 70.1292L75.2745 70.8605L75.2745 70.8605L73.413 70.1292ZM58.8329 80.4986L56.9076 81.0402L57.37 82.6839L59.0658 82.485L58.8329 80.4986ZM50.4602 50.7353L48.5939 50.0165L48.3549 50.6369L48.535 51.2769L50.4602 50.7353ZM53.1575 45.9103L52.9094 43.9257L52.0337 44.0351L51.5243 44.7558L53.1575 45.9103ZM53.2249 45.8466L51.368 45.1037L51.3679 45.1039L53.2249 45.8466ZM53.2343 45.8185L51.3186 45.2439L51.3185 45.244L53.2343 45.8185ZM53.2436 45.7904L51.6167 44.6272L51.4763 44.8235L51.3867 45.0476L53.2436 45.7904ZM60.5674 39.287L61.4577 41.0779L61.4618 41.0759L60.5674 39.287ZM60.9045 39.1185L60.0557 37.3075L60.0327 37.3183L60.0101 37.3296L60.9045 39.1185ZM65.2651 37.8073L65.5492 39.787L71.529 38.9287L66.2184 36.0491L65.2651 37.8073ZM59.2337 34.5369L57.4299 35.4007L57.7101 35.9858L58.2804 36.2951L59.2337 34.5369ZM59.8481 30.6147L61.0276 32.2299L61.0281 32.2295L59.8481 30.6147ZM64.7032 31.7797L66.4435 30.7943L66.441 30.7898L64.7032 31.7797ZM65.2651 33.4543L63.278 33.6809L63.6396 36.8523L66.3357 35.1435L65.2651 33.4543ZM69.5919 33.3906L68.5829 35.1174L68.5831 35.1175L69.5919 33.3906ZM71.31 37.361L73.3096 37.3976V37.3976L71.31 37.361ZM71.3039 39.583H69.3039V40.5899L70.1128 41.1896L71.3039 39.583ZM74.6642 42.0742L75.5252 43.8794L78.5266 42.4479L75.8553 40.4676L74.6642 42.0742ZM71.2552 43.7L70.3943 41.8948L68.396 42.8479L69.5465 44.7394L71.2552 43.7ZM72.1393 45.1535L70.4306 46.1929L70.4766 46.2686L70.5292 46.3399L72.1393 45.1535ZM72.2779 45.3821L74.0864 44.528L74.0687 44.4906L74.0495 44.454L72.2779 45.3821ZM72.4203 45.8166L70.4487 46.1532L70.4509 46.1651L72.4203 45.8166ZM70.9892 47.7646L70.6403 45.7953L70.6389 45.7955L70.9892 47.7646ZM46.6129 45.2436L44.6695 45.7159L44.6776 45.7492L44.6868 45.7822L46.6129 45.2436ZM59.1476 90.0664L61.0944 89.6084L61.0849 89.5679L61.0737 89.5278L59.1476 90.0664ZM59.1562 90.1027L61.1019 89.6396L61.1019 89.6396L59.1562 90.1027ZM59.1888 90.25V92.25H61.5986L61.1546 89.8815L59.1888 90.25ZM55.7311 90.25L53.8187 90.8355L54.2518 92.25H55.7311V90.25ZM54.5211 86.2978L52.6075 86.8794L52.6087 86.8832L54.5211 86.2978ZM53.6707 83.5219L55.5825 82.9345L55.5689 82.8902L55.5533 82.8467L53.6707 83.5219ZM51.0109 80.3901L51.8762 78.587L51.876 78.5869L51.0109 80.3901ZM46.8686 79.0345L47.3638 77.0967H47.3638L46.8686 79.0345ZM44.7548 78.4758L44.2168 80.4021L44.2171 80.4022L44.7548 78.4758ZM35.2246 69.234L37.1482 68.6866L37.1481 68.6862L35.2246 69.234ZM30.8491 45.7268L32.818 45.3759L32.8071 45.3148L32.7925 45.2545L30.8491 45.7268ZM31.5871 44.5056L32.0594 46.449L31.5871 44.5056ZM32.8083 45.2436L34.7567 44.7921L34.7543 44.7816L34.7517 44.7712L32.8083 45.2436ZM37.2101 64.2404L35.2617 64.6918L35.6205 66.2404H37.2101V64.2404ZM38.8321 64.2404V66.2404H41.2174L40.8015 63.8917L38.8321 64.2404ZM35.5542 45.7268L37.5236 45.3781L37.5126 45.3159L37.4977 45.2545L35.5542 45.7268ZM37.5135 45.2436L39.4573 44.7728L39.4569 44.7712L37.5135 45.2436ZM42.1138 64.2404L40.17 64.7111L40.5403 66.2404H42.1138V64.2404ZM43.9644 64.2404V66.2404H46.4447L45.9189 63.8164L43.9644 64.2404ZM39.9485 45.7268L41.903 45.3028L41.8978 45.2786L41.8919 45.2545L39.9485 45.7268ZM40.6865 44.5056L40.2141 42.5621L40.2141 42.5621L40.6865 44.5056ZM41.9077 45.2436L39.9643 45.7159L39.9722 45.7483L39.9811 45.7804L41.9077 45.2436ZM47.2011 64.2404L45.2745 64.7772L45.6822 66.2404H47.2011V64.2404ZM48.9168 64.2404V66.2404H51.4297L50.8658 63.7916L48.9168 64.2404ZM44.6537 45.7268L46.6027 45.278L46.6 45.2662L46.5971 45.2545L44.6537 45.7268ZM67.7492 48.3884L67.8391 48.5008L70.9626 46.002L70.8727 45.8896L67.7492 48.3884ZM69.3072 49.139H69.3109V45.139H69.3072V49.139ZM69.5063 49.5299C69.9371 49.2427 70.3252 48.9246 70.6718 48.6011L67.9426 45.6769C67.7272 45.8779 67.5085 46.0543 67.2875 46.2017L69.5063 49.5299ZM75.2745 70.8605C77.5249 65.1316 76.0423 58.9612 74.234 54.4922C73.3133 52.2171 72.2668 50.2801 71.4519 48.9125C71.0434 48.2269 70.6903 47.6799 70.4364 47.3001C70.3093 47.11 70.2068 46.9615 70.1343 46.858C70.098 46.8063 70.0692 46.7657 70.0486 46.7369C70.0383 46.7225 70.03 46.711 70.0238 46.7025C70.0208 46.6982 70.0182 46.6947 70.0162 46.692C70.0152 46.6906 70.0143 46.6894 70.0136 46.6884C70.0132 46.6879 70.0128 46.6873 70.0126 46.687C70.0122 46.6864 70.0118 46.6859 68.3969 47.8658C66.7819 49.0456 66.7816 49.0452 66.7814 49.0448C66.7813 49.0447 66.7811 49.0444 66.781 49.0443C66.7808 49.044 66.7807 49.0439 66.7808 49.044C66.781 49.0442 66.7816 49.0452 66.7828 49.0469C66.7853 49.0502 66.7898 49.0564 66.7962 49.0655C66.8092 49.0836 66.8302 49.1131 66.8586 49.1536C66.9152 49.2344 67.0012 49.3588 67.1111 49.5233C67.3312 49.8525 67.6466 50.3407 68.0157 50.9601C68.7559 52.2022 69.7009 53.9536 70.526 55.9926C72.2091 60.1521 73.2345 65.1134 71.5515 69.398L75.2745 70.8605ZM59.0658 82.485C67.1147 81.5412 72.8879 76.936 75.2745 70.8605L71.5515 69.398C69.7499 73.9841 65.311 77.7253 58.6 78.5122L59.0658 82.485ZM48.535 51.2769L56.9076 81.0402L60.7582 79.957L52.3855 50.1937L48.535 51.2769ZM51.5243 44.7558C50.5342 46.1564 49.8104 47.451 49.3319 48.4C49.0921 48.8756 48.9124 49.2673 48.7904 49.5459C48.7294 49.6852 48.6827 49.7965 48.6501 49.8761C48.6337 49.9159 48.6209 49.9478 48.6116 49.9714C48.6069 49.9832 48.6031 49.9928 48.6001 50.0004C48.5987 50.0042 48.5974 50.0074 48.5964 50.0101C48.5958 50.0114 48.5954 50.0126 48.5949 50.0137C48.5947 50.0142 48.5945 50.0147 48.5944 50.0152C48.5943 50.0155 48.5941 50.0158 48.5941 50.0159C48.594 50.0162 48.5939 50.0165 50.4602 50.7353C52.3266 51.4541 52.3265 51.4544 52.3264 51.4547C52.3263 51.4548 52.3262 51.4551 52.3262 51.4552C52.326 51.4556 52.3259 51.4559 52.3258 51.4561C52.3256 51.4567 52.3255 51.4571 52.3254 51.4573C52.3251 51.4579 52.3251 51.4579 52.3253 51.4574C52.3257 51.4564 52.3269 51.4533 52.329 51.4482C52.333 51.438 52.3404 51.4197 52.351 51.3937C52.3723 51.3419 52.4067 51.2595 52.4546 51.1502C52.5503 50.9315 52.6994 50.6058 52.9035 50.201C53.3128 49.3894 53.9376 48.2715 54.7906 47.0647L51.5243 44.7558ZM51.3679 45.1039C51.4322 44.9432 51.5609 44.6887 51.813 44.4471C52.0871 44.1844 52.4641 43.9814 52.9094 43.9257L53.4055 47.8948C54.4556 47.7636 54.9302 46.9685 55.0819 46.5893L51.3679 45.1039ZM51.3185 45.244C51.3161 45.252 51.3212 45.2349 51.3279 45.2143C51.3355 45.191 51.3487 45.1518 51.368 45.1037L55.0818 46.5894C55.1048 46.532 55.1213 46.4835 55.132 46.4508C55.1417 46.4208 55.1496 46.3943 55.15 46.393L51.3185 45.244ZM51.3867 45.0476C51.3637 45.105 51.3472 45.1535 51.3366 45.1862C51.3268 45.2162 51.319 45.2426 51.3186 45.2439L55.15 46.393C55.1524 46.385 55.1473 46.4021 55.1406 46.4227C55.133 46.446 55.1198 46.4852 55.1006 46.5332L51.3867 45.0476ZM59.6771 37.4961C56.0126 39.3179 53.3732 42.1704 51.6167 44.6272L54.8706 46.9536C56.4032 44.8101 58.5813 42.5079 61.4577 41.0779L59.6771 37.4961ZM60.0101 37.3296L59.673 37.4982L61.4618 41.0759L61.799 40.9073L60.0101 37.3296ZM64.9809 35.8276C63.1772 36.0865 61.5379 36.6128 60.0557 37.3075L61.7534 40.9294C62.9085 40.3879 64.1687 39.9852 65.5492 39.787L64.9809 35.8276ZM58.2804 36.2951L64.3117 39.5655L66.2184 36.0491L60.1871 32.7787L58.2804 36.2951ZM58.6687 28.9995C56.9501 30.2544 56.7447 32.0873 56.8574 33.271C56.9142 33.8679 57.0527 34.3832 57.171 34.7412C57.2313 34.9237 57.2895 35.0747 57.3353 35.1859C57.3583 35.2417 57.3785 35.2881 57.3946 35.3241C57.4026 35.3421 57.4097 35.3576 57.4156 35.3704C57.4186 35.3768 57.4213 35.3825 57.4237 35.3876C57.4249 35.3901 57.426 35.3925 57.427 35.3947C57.4276 35.3958 57.4281 35.3968 57.4285 35.3978C57.4288 35.3983 57.4291 35.3991 57.4292 35.3993C57.4296 35.4 57.4299 35.4007 59.2337 34.5369C61.0376 33.6731 61.0379 33.6737 61.0382 33.6744C61.0383 33.6746 61.0386 33.6753 61.0388 33.6757C61.0393 33.6766 61.0396 33.6774 61.04 33.6782C61.0408 33.6798 61.0414 33.6812 61.042 33.6825C61.0433 33.6851 61.0442 33.6871 61.0449 33.6886C61.0463 33.6916 61.0467 33.6924 61.0461 33.6912C61.0451 33.6889 61.0406 33.6787 61.0335 33.6615C61.0191 33.6266 60.9954 33.566 60.969 33.4862C60.9139 33.3195 60.8598 33.1071 60.8394 32.8921C60.7975 32.4518 60.8993 32.3236 61.0276 32.2299L58.6687 28.9995ZM66.441 30.7898C64.8929 28.0721 61.3186 27.0632 58.6682 28.9998L61.0281 32.2295C61.5769 31.8285 62.4904 31.9359 62.9653 32.7696L66.441 30.7898ZM65.2651 33.4543C67.2522 33.2277 67.2521 33.2272 67.2521 33.2268C67.2521 33.2267 67.252 33.2262 67.252 33.2259C67.2519 33.2254 67.2519 33.2248 67.2518 33.2242C67.2517 33.2229 67.2515 33.2217 67.2514 33.2203C67.251 33.2177 67.2507 33.2148 67.2503 33.2117C67.2496 33.2054 67.2487 33.1984 67.2477 33.1904C67.2456 33.1745 67.243 33.1552 67.2398 33.1327C67.2334 33.0877 67.2244 33.0297 67.2122 32.9605C67.1879 32.8227 67.1502 32.6372 67.0936 32.42C66.9829 31.9954 66.7871 31.4011 66.4435 30.7943L62.9628 32.7651C63.0837 32.9787 63.1689 33.2217 63.223 33.4293C63.2488 33.5282 63.2646 33.6075 63.273 33.6555C63.2772 33.6792 63.2794 33.6943 63.2801 33.6992C63.2805 33.7017 63.2805 33.7015 63.2801 33.6985C63.2799 33.697 63.2796 33.6948 63.2793 33.6919C63.2791 33.6904 63.2789 33.6888 63.2787 33.6869C63.2785 33.686 63.2784 33.6851 63.2783 33.684C63.2783 33.6835 63.2782 33.683 63.2781 33.6825C63.2781 33.6822 63.2781 33.6818 63.278 33.6817C63.278 33.6813 63.278 33.6809 65.2651 33.4543ZM70.6009 31.6638C68.9515 30.6999 67.3234 30.7358 66.1764 30.9868C65.6065 31.1115 65.1365 31.2918 64.8039 31.4431C64.6361 31.5194 64.499 31.5903 64.3969 31.6464C64.3457 31.6746 64.3029 31.6993 64.2691 31.7193C64.2522 31.7294 64.2374 31.7383 64.225 31.7459C64.2187 31.7498 64.2131 31.7533 64.208 31.7564C64.2054 31.758 64.203 31.7595 64.2008 31.761C64.1996 31.7617 64.1985 31.7624 64.1975 31.763C64.1969 31.7634 64.1962 31.7639 64.1959 31.764C64.1952 31.7645 64.1944 31.765 65.2651 33.4543C66.3357 35.1435 66.335 35.144 66.3343 35.1445C66.3341 35.1446 66.3333 35.1451 66.3329 35.1454C66.3319 35.1459 66.331 35.1465 66.3302 35.1471C66.3284 35.1482 66.3268 35.1492 66.3253 35.1501C66.3222 35.152 66.3197 35.1536 66.3175 35.1549C66.3132 35.1575 66.3107 35.159 66.3099 35.1595C66.3083 35.1605 66.3134 35.1574 66.3247 35.1512C66.3475 35.1386 66.3939 35.1142 66.4599 35.0842C66.595 35.0227 66.7944 34.9462 67.0314 34.8943C67.4979 34.7923 68.0333 34.7963 68.5829 35.1174L70.6009 31.6638ZM73.3096 37.3976C73.3215 36.7517 73.3577 35.6915 73.0367 34.6475C72.6781 33.4814 71.9201 32.4343 70.6007 31.6636L68.5831 35.1175C69.0355 35.3818 69.1494 35.6152 69.2134 35.8232C69.3149 36.1534 69.3243 36.5609 69.3103 37.3244L73.3096 37.3976ZM73.3039 37.856C73.3039 37.7148 73.3065 37.5679 73.3096 37.3976L69.3103 37.3244C69.3073 37.488 69.3039 37.6719 69.3039 37.856H73.3039ZM73.3039 39.583V37.856H69.3039V39.583H73.3039ZM75.8553 40.4676L72.495 37.9763L70.1128 41.1896L73.4731 43.6808L75.8553 40.4676ZM72.1161 45.5052L75.5252 43.8794L73.8033 40.269L70.3943 41.8948L72.1161 45.5052ZM73.848 44.1142L72.9639 42.6607L69.5465 44.7394L70.4306 46.1929L73.848 44.1142ZM74.0495 44.454C73.9895 44.3393 73.8899 44.1579 73.7494 43.9672L70.5292 46.3399C70.5092 46.3128 70.4982 46.2946 70.496 46.2909C70.4938 46.2872 70.4966 46.2917 70.5063 46.3101L74.0495 44.454ZM74.3917 45.48C74.3271 45.1015 74.2049 44.779 74.0864 44.528L70.4694 46.2361C70.473 46.2437 70.4712 46.2408 70.467 46.2284C70.4628 46.2159 70.4551 46.1904 70.4488 46.1532L74.3917 45.48ZM71.3381 49.7339C73.2872 49.3886 74.7587 47.5537 74.3897 45.4681L70.4509 46.1651C70.43 46.0475 70.4668 45.9436 70.5107 45.8839C70.553 45.8265 70.6049 45.8016 70.6403 45.7953L71.3381 49.7339ZM67.9472 48.625C68.7896 49.5165 70.0569 49.9619 71.3395 49.7337L70.6389 45.7955C70.7002 45.7846 70.7838 45.803 70.8545 45.8778L67.9472 48.625ZM48.5564 44.7712C48.1602 43.1413 46.5149 42.1743 44.9193 42.5621L45.864 46.449C45.3474 46.5746 44.8034 46.2669 44.6695 45.7159L48.5564 44.7712ZM61.0737 89.5278L48.539 44.7049L44.6868 45.7822L57.2215 90.6051L61.0737 89.5278ZM61.1019 89.6396C61.0989 89.6274 61.0966 89.6177 61.0944 89.6084L57.2008 90.5245C57.2043 90.5396 57.2078 90.5541 57.2106 90.5659L61.1019 89.6396ZM61.1546 89.8815C61.135 89.7773 61.1118 89.6814 61.1019 89.6396L57.2106 90.5658C57.2137 90.5789 57.216 90.5885 57.2181 90.5976C57.2201 90.6063 57.2216 90.6125 57.2226 90.617C57.2247 90.6265 57.2244 90.6256 57.2231 90.6185L61.1546 89.8815ZM55.7311 92.25H59.1888V88.25H55.7311V92.25ZM52.6087 86.8832C52.7492 87.3422 53.0517 88.3303 53.3191 89.2036C53.4528 89.6403 53.5777 90.0482 53.6692 90.347C53.7149 90.4965 53.7523 90.6186 53.7783 90.7033C53.7912 90.7457 53.8014 90.7788 53.8082 90.8012C53.8117 90.8124 53.8143 90.821 53.8161 90.8268C53.8169 90.8297 53.8176 90.8319 53.8181 90.8333C53.8183 90.834 53.8184 90.8346 53.8186 90.835C53.8186 90.8352 53.8187 90.8353 53.8187 90.8354C53.8187 90.8354 53.8187 90.8355 53.8187 90.8355C53.8187 90.8355 53.8187 90.8355 55.7311 90.25C57.6435 89.6645 57.6435 89.6645 57.6435 89.6644C57.6435 89.6644 57.6434 89.6644 57.6434 89.6643C57.6434 89.6643 57.6434 89.6641 57.6433 89.6639C57.6432 89.6636 57.643 89.663 57.6428 89.6623C57.6424 89.6608 57.6417 89.6586 57.6408 89.6558C57.639 89.65 57.6364 89.6414 57.633 89.6302C57.6261 89.6077 57.616 89.5747 57.603 89.5323C57.5771 89.4475 57.5397 89.3254 57.4939 89.176C57.4024 88.8772 57.2775 88.4692 57.1438 88.0326C56.8764 87.1592 56.574 86.1712 56.4335 85.7124L52.6087 86.8832ZM53.6707 83.5219C51.7589 84.1093 51.7589 84.1093 51.7589 84.1093C51.7589 84.1093 51.7589 84.1094 51.7589 84.1094C51.759 84.1095 51.759 84.1095 51.759 84.1097C51.7591 84.1099 51.7592 84.1103 51.7594 84.1107C51.7597 84.1117 51.7601 84.1132 51.7607 84.1151C51.7619 84.1189 51.7636 84.1246 51.7659 84.132C51.7705 84.1469 51.7772 84.1689 51.7859 84.1971C51.8032 84.2535 51.8283 84.335 51.859 84.4352C51.9206 84.6356 52.005 84.9108 52.0967 85.2097C52.2804 85.8087 52.4923 86.5002 52.6075 86.8794L56.4347 85.7162C56.3177 85.3312 56.1043 84.6347 55.9209 84.0368C55.829 83.7373 55.7444 83.4618 55.6828 83.2611C55.652 83.1607 55.6269 83.0791 55.6096 83.0226C55.6009 82.9943 55.5941 82.9723 55.5895 82.9573C55.5872 82.9498 55.5855 82.9441 55.5843 82.9403C55.5837 82.9384 55.5833 82.9369 55.583 82.9359C55.5828 82.9355 55.5827 82.9351 55.5826 82.9348C55.5826 82.9347 55.5825 82.9346 55.5825 82.9346C55.5825 82.9345 55.5825 82.9345 55.5825 82.9345C55.5825 82.9345 55.5825 82.9345 53.6707 83.5219ZM50.1456 82.1932C50.6456 82.4331 50.8983 82.6275 51.0856 82.8416C51.2852 83.0698 51.5183 83.4447 51.7881 84.1971L55.5533 82.8467C55.1863 81.8234 54.7413 80.9452 54.0961 80.2078C53.4387 79.4564 52.68 78.9727 51.8762 78.587L50.1456 82.1932ZM46.3735 80.9722C47.9976 81.3872 49.0262 81.6561 50.1458 82.1933L51.876 78.5869C50.3455 77.8526 48.9389 77.4992 47.3638 77.0967L46.3735 80.9722ZM44.2171 80.4022C45.026 80.6279 45.7401 80.8104 46.3735 80.9722L47.3638 77.0967C46.7284 76.9344 46.0537 76.7619 45.2925 76.5494L44.2171 80.4022ZM33.301 69.7814C35.1773 76.3745 40.6586 79.4083 44.2168 80.4021L45.2928 76.5495C42.5201 75.7751 38.5086 73.4669 37.1482 68.6866L33.301 69.7814ZM30.8491 45.7268C28.8801 46.0777 28.8801 46.0778 28.8801 46.078C28.8802 46.0781 28.8802 46.0784 28.8803 46.0787C28.8804 46.0794 28.8806 46.0804 28.8808 46.0817C28.8813 46.0844 28.882 46.0883 28.8829 46.0936C28.8848 46.1041 28.8876 46.1198 28.8913 46.1404C28.8986 46.1817 28.9096 46.243 28.9238 46.323C28.9524 46.483 28.9943 46.7178 29.0479 47.0172C29.1549 47.616 29.3084 48.4732 29.4942 49.5074C29.8656 51.5755 30.3662 54.3517 30.8824 57.1831C31.3985 60.0136 31.9309 62.9028 32.3657 65.1957C32.7876 67.4199 33.1447 69.2327 33.3011 69.7818L37.1481 68.6862C37.0554 68.3605 36.7409 66.7976 36.2957 64.4502C35.8635 62.1715 35.3331 59.2932 34.8175 56.4656C34.3022 53.6389 33.8023 50.8663 33.4312 48.8002C33.2456 47.7672 33.0923 46.911 32.9854 46.3131C32.932 46.0141 32.8901 45.7798 32.8616 45.6202C32.8474 45.5404 32.8365 45.4793 32.8291 45.4381C32.8255 45.4176 32.8227 45.402 32.8208 45.3916C32.8199 45.3864 32.8192 45.3824 32.8187 45.3798C32.8185 45.3785 32.8183 45.3775 32.8182 45.3769C32.8182 45.3766 32.8181 45.3763 32.8181 45.3762C32.8181 45.376 32.818 45.3759 30.8491 45.7268ZM31.1147 42.5621C29.4848 42.9583 28.5178 44.6036 28.9056 46.1992L32.7925 45.2545C32.9181 45.7711 32.6104 46.3151 32.0594 46.449L31.1147 42.5621ZM34.7517 44.7712C34.3556 43.1413 32.7103 42.1743 31.1147 42.5621L32.0594 46.449C31.5427 46.5746 30.9988 46.2669 30.8649 45.7159L34.7517 44.7712ZM39.1584 63.7889L34.7567 44.7921L30.8599 45.695L35.2617 64.6918L39.1584 63.7889ZM38.8321 62.2404H37.2101V66.2404H38.8321V62.2404ZM33.5849 46.0755L36.8628 64.5891L40.8015 63.8917L37.5236 45.3781L33.5849 46.0755ZM35.8199 42.5621C34.19 42.9583 33.223 44.6036 33.6108 46.1992L37.4977 45.2545C37.6232 45.7711 37.3156 46.3151 36.7646 46.449L35.8199 42.5621ZM39.4569 44.7712C39.0608 43.1413 37.4155 42.1743 35.8199 42.5621L36.7646 46.449C36.2479 46.5746 35.704 46.2669 35.5701 45.7159L39.4569 44.7712ZM44.0576 63.7696L39.4573 44.7728L35.5697 45.7143L40.17 64.7111L44.0576 63.7696ZM43.9644 62.2404H42.1138V66.2404H43.9644V62.2404ZM37.994 46.1508L42.0098 64.6643L45.9189 63.8164L41.903 45.3028L37.994 46.1508ZM40.2141 42.5621C38.5842 42.9583 37.6173 44.6036 38.0051 46.1992L41.8919 45.2545C42.0175 45.7711 41.7099 46.3151 41.1589 46.449L40.2141 42.5621ZM43.8512 44.7712C43.455 43.1413 41.8097 42.1743 40.2141 42.5621L41.1589 46.449C40.6422 46.5746 40.0983 46.2669 39.9643 45.7159L43.8512 44.7712ZM49.1277 63.7035L43.8344 44.7067L39.9811 45.7804L45.2745 64.7772L49.1277 63.7035ZM48.9168 62.2404H47.2011V66.2404H48.9168V62.2404ZM42.7047 46.1756L46.9678 64.6892L50.8658 63.7916L46.6027 45.278L42.7047 46.1756ZM44.9193 42.5621C43.2894 42.9583 42.3225 44.6036 42.7103 46.1992L46.5971 45.2545C46.7227 45.7711 46.415 46.3151 45.864 46.449L44.9193 42.5621Z" fill="#912DA8" mask="url(#path-2-inside-1_54_6679)"/>
</g>
<g style="mix-blend-mode:hard-light" filter="url(#filter2_f_54_6679)">
<mask id="path-4-inside-2_54_6679" fill="white">
<path d="M69.4008 47.2514L69.3109 47.139H69.3072C69.0262 47.4012 68.7228 47.6485 68.3969 47.8658C68.3969 47.8658 77.3465 60.1157 73.413 70.1292C71.3189 75.46 66.2129 79.6333 58.8329 80.4986L50.4602 50.7353C50.4602 50.7353 51.3144 48.5176 53.1575 45.9103C53.1874 45.9065 53.2099 45.884 53.2249 45.8466C53.2286 45.8372 53.2315 45.8278 53.2343 45.8185C53.2371 45.8091 53.2399 45.7998 53.2436 45.7904C54.8882 43.4902 57.297 40.9129 60.5674 39.287L60.9045 39.1185C62.2232 38.5003 63.673 38.0358 65.2651 37.8073L59.2337 34.5369C59.2337 34.5369 58.0013 31.9633 59.8481 30.6147C61.4477 29.4459 63.6917 30.004 64.7032 31.7797C65.1677 32.6001 65.2651 33.4543 65.2651 33.4543C65.2651 33.4543 67.3929 32.1056 69.5919 33.3906C71.3637 34.4255 71.3358 35.9516 71.31 37.361C71.3069 37.528 71.3039 37.6933 71.3039 37.856V39.583L74.6642 42.0742L71.2552 43.7L72.1393 45.1535C72.1917 45.2247 72.2367 45.3034 72.2779 45.3821C72.3416 45.5169 72.394 45.663 72.4203 45.8166C72.5813 46.7269 71.9407 47.596 70.9892 47.7646C70.3786 47.8733 69.7867 47.6597 69.4008 47.2514Z"/>
<path d="M45.3917 44.5056C45.9311 44.3744 46.4818 44.7041 46.6129 45.2436L59.1476 90.0664C59.1505 90.0787 59.1534 90.0908 59.1562 90.1027C59.1682 90.1531 59.1797 90.2016 59.1888 90.25H55.7311C55.7311 90.25 54.8021 87.2156 54.5211 86.2978C54.2888 85.5336 53.6707 83.5219 53.6707 83.5219C53.0339 81.7462 52.3146 81.0157 51.0109 80.3901C49.6858 79.7544 48.4682 79.4432 46.8686 79.0345C46.2343 78.8724 45.5399 78.6949 44.7548 78.4758C41.5893 77.5917 36.8429 74.9207 35.2246 69.234C34.7263 67.4845 30.8491 45.7268 30.8491 45.7268C30.7179 45.1874 31.0476 44.6367 31.5871 44.5056C32.1265 44.3744 32.6772 44.7041 32.8083 45.2436L37.2101 64.2404H38.8321L35.5542 45.7268C35.4231 45.1874 35.7528 44.6367 36.2922 44.5056C36.8317 44.3744 37.3824 44.7041 37.5135 45.2436L42.1138 64.2404H43.9644L39.9485 45.7268C39.8174 45.1874 40.147 44.6367 40.6865 44.5056C41.2259 44.3744 41.7766 44.7041 41.9077 45.2436L47.2011 64.2404H48.9168L44.6537 45.7268C44.5226 45.1874 44.8522 44.6367 45.3917 44.5056Z"/>
</mask>
<path d="M69.4008 47.2514L69.3109 47.139H69.3072C69.0262 47.4012 68.7228 47.6485 68.3969 47.8658C68.3969 47.8658 77.3465 60.1157 73.413 70.1292C71.3189 75.46 66.2129 79.6333 58.8329 80.4986L50.4602 50.7353C50.4602 50.7353 51.3144 48.5176 53.1575 45.9103C53.1874 45.9065 53.2099 45.884 53.2249 45.8466C53.2286 45.8372 53.2315 45.8278 53.2343 45.8185C53.2371 45.8091 53.2399 45.7998 53.2436 45.7904C54.8882 43.4902 57.297 40.9129 60.5674 39.287L60.9045 39.1185C62.2232 38.5003 63.673 38.0358 65.2651 37.8073L59.2337 34.5369C59.2337 34.5369 58.0013 31.9633 59.8481 30.6147C61.4477 29.4459 63.6917 30.004 64.7032 31.7797C65.1677 32.6001 65.2651 33.4543 65.2651 33.4543C65.2651 33.4543 67.3929 32.1056 69.5919 33.3906C71.3637 34.4255 71.3358 35.9516 71.31 37.361C71.3069 37.528 71.3039 37.6933 71.3039 37.856V39.583L74.6642 42.0742L71.2552 43.7L72.1393 45.1535C72.1917 45.2247 72.2367 45.3034 72.2779 45.3821C72.3416 45.5169 72.394 45.663 72.4203 45.8166C72.5813 46.7269 71.9407 47.596 70.9892 47.7646C70.3786 47.8733 69.7867 47.6597 69.4008 47.2514Z" fill="#912DA8" fill-opacity="0.15"/>
<path d="M45.3917 44.5056C45.9311 44.3744 46.4818 44.7041 46.6129 45.2436L59.1476 90.0664C59.1505 90.0787 59.1534 90.0908 59.1562 90.1027C59.1682 90.1531 59.1797 90.2016 59.1888 90.25H55.7311C55.7311 90.25 54.8021 87.2156 54.5211 86.2978C54.2888 85.5336 53.6707 83.5219 53.6707 83.5219C53.0339 81.7462 52.3146 81.0157 51.0109 80.3901C49.6858 79.7544 48.4682 79.4432 46.8686 79.0345C46.2343 78.8724 45.5399 78.6949 44.7548 78.4758C41.5893 77.5917 36.8429 74.9207 35.2246 69.234C34.7263 67.4845 30.8491 45.7268 30.8491 45.7268C30.7179 45.1874 31.0476 44.6367 31.5871 44.5056C32.1265 44.3744 32.6772 44.7041 32.8083 45.2436L37.2101 64.2404H38.8321L35.5542 45.7268C35.4231 45.1874 35.7528 44.6367 36.2922 44.5056C36.8317 44.3744 37.3824 44.7041 37.5135 45.2436L42.1138 64.2404H43.9644L39.9485 45.7268C39.8174 45.1874 40.147 44.6367 40.6865 44.5056C41.2259 44.3744 41.7766 44.7041 41.9077 45.2436L47.2011 64.2404H48.9168L44.6537 45.7268C44.5226 45.1874 44.8522 44.6367 45.3917 44.5056Z" fill="#912DA8" fill-opacity="0.15"/>
<path d="M69.3109 47.139L70.8727 45.8896L70.2722 45.139H69.3109V47.139ZM69.4008 47.2514L67.8391 48.5008L67.8906 48.5651L67.9472 48.625L69.4008 47.2514ZM69.3072 47.139V45.139H68.5189L67.9426 45.6769L69.3072 47.139ZM68.3969 47.8658L67.2875 46.2017L65.5503 47.3598L66.7819 49.0456L68.3969 47.8658ZM73.413 70.1292L75.2745 70.8605L75.2745 70.8605L73.413 70.1292ZM58.8329 80.4986L56.9076 81.0402L57.37 82.6839L59.0658 82.485L58.8329 80.4986ZM50.4602 50.7353L48.5939 50.0165L48.3549 50.6369L48.535 51.2769L50.4602 50.7353ZM53.1575 45.9103L52.9094 43.9257L52.0337 44.0351L51.5243 44.7558L53.1575 45.9103ZM53.2249 45.8466L51.368 45.1037L51.3679 45.1039L53.2249 45.8466ZM53.2343 45.8185L51.3186 45.2439L51.3185 45.244L53.2343 45.8185ZM53.2436 45.7904L51.6167 44.6272L51.4763 44.8235L51.3867 45.0476L53.2436 45.7904ZM60.5674 39.287L61.4577 41.0779L61.4618 41.0759L60.5674 39.287ZM60.9045 39.1185L60.0557 37.3075L60.0327 37.3183L60.0101 37.3296L60.9045 39.1185ZM65.2651 37.8073L65.5492 39.787L71.529 38.9287L66.2184 36.0491L65.2651 37.8073ZM59.2337 34.5369L57.4299 35.4007L57.7101 35.9858L58.2804 36.2951L59.2337 34.5369ZM59.8481 30.6147L61.0276 32.2299L61.0281 32.2295L59.8481 30.6147ZM64.7032 31.7797L66.4435 30.7943L66.441 30.7898L64.7032 31.7797ZM65.2651 33.4543L63.278 33.6809L63.6396 36.8523L66.3357 35.1435L65.2651 33.4543ZM69.5919 33.3906L68.5829 35.1174L68.5831 35.1175L69.5919 33.3906ZM71.31 37.361L73.3096 37.3976V37.3976L71.31 37.361ZM71.3039 39.583H69.3039V40.5899L70.1128 41.1896L71.3039 39.583ZM74.6642 42.0742L75.5252 43.8794L78.5266 42.4479L75.8553 40.4676L74.6642 42.0742ZM71.2552 43.7L70.3943 41.8948L68.396 42.8479L69.5465 44.7394L71.2552 43.7ZM72.1393 45.1535L70.4306 46.1929L70.4766 46.2686L70.5292 46.3399L72.1393 45.1535ZM72.2779 45.3821L74.0864 44.528L74.0687 44.4906L74.0495 44.454L72.2779 45.3821ZM72.4203 45.8166L70.4487 46.1532L70.4509 46.1651L72.4203 45.8166ZM70.9892 47.7646L70.6403 45.7953L70.6389 45.7955L70.9892 47.7646ZM46.6129 45.2436L44.6695 45.7159L44.6776 45.7492L44.6868 45.7822L46.6129 45.2436ZM59.1476 90.0664L61.0944 89.6084L61.0849 89.5679L61.0737 89.5278L59.1476 90.0664ZM59.1562 90.1027L61.1019 89.6396L61.1019 89.6396L59.1562 90.1027ZM59.1888 90.25V92.25H61.5986L61.1546 89.8815L59.1888 90.25ZM55.7311 90.25L53.8187 90.8355L54.2518 92.25H55.7311V90.25ZM54.5211 86.2978L52.6075 86.8794L52.6087 86.8832L54.5211 86.2978ZM53.6707 83.5219L55.5825 82.9345L55.5689 82.8902L55.5533 82.8467L53.6707 83.5219ZM51.0109 80.3901L51.8762 78.587L51.876 78.5869L51.0109 80.3901ZM46.8686 79.0345L47.3638 77.0967H47.3638L46.8686 79.0345ZM44.7548 78.4758L44.2168 80.4021L44.2171 80.4022L44.7548 78.4758ZM35.2246 69.234L37.1482 68.6866L37.1481 68.6862L35.2246 69.234ZM30.8491 45.7268L32.818 45.3759L32.8071 45.3148L32.7925 45.2545L30.8491 45.7268ZM31.5871 44.5056L32.0594 46.449L31.5871 44.5056ZM32.8083 45.2436L34.7567 44.7921L34.7543 44.7816L34.7517 44.7712L32.8083 45.2436ZM37.2101 64.2404L35.2617 64.6918L35.6205 66.2404H37.2101V64.2404ZM38.8321 64.2404V66.2404H41.2174L40.8015 63.8917L38.8321 64.2404ZM35.5542 45.7268L37.5236 45.3781L37.5126 45.3159L37.4977 45.2545L35.5542 45.7268ZM37.5135 45.2436L39.4573 44.7728L39.4569 44.7712L37.5135 45.2436ZM42.1138 64.2404L40.17 64.7111L40.5403 66.2404H42.1138V64.2404ZM43.9644 64.2404V66.2404H46.4447L45.9189 63.8164L43.9644 64.2404ZM39.9485 45.7268L41.903 45.3028L41.8978 45.2786L41.8919 45.2545L39.9485 45.7268ZM40.6865 44.5056L40.2141 42.5621L40.2141 42.5621L40.6865 44.5056ZM41.9077 45.2436L39.9643 45.7159L39.9722 45.7483L39.9811 45.7804L41.9077 45.2436ZM47.2011 64.2404L45.2745 64.7772L45.6822 66.2404H47.2011V64.2404ZM48.9168 64.2404V66.2404H51.4297L50.8658 63.7916L48.9168 64.2404ZM44.6537 45.7268L46.6027 45.278L46.6 45.2662L46.5971 45.2545L44.6537 45.7268ZM67.7492 48.3884L67.8391 48.5008L70.9626 46.002L70.8727 45.8896L67.7492 48.3884ZM69.3072 49.139H69.3109V45.139H69.3072V49.139ZM69.5063 49.5299C69.9371 49.2427 70.3252 48.9246 70.6718 48.6011L67.9426 45.6769C67.7272 45.8779 67.5085 46.0543 67.2875 46.2017L69.5063 49.5299ZM75.2745 70.8605C77.5249 65.1316 76.0423 58.9612 74.234 54.4922C73.3133 52.2171 72.2668 50.2801 71.4519 48.9125C71.0434 48.2269 70.6903 47.6799 70.4364 47.3001C70.3093 47.11 70.2068 46.9615 70.1343 46.858C70.098 46.8063 70.0692 46.7657 70.0486 46.7369C70.0383 46.7225 70.03 46.711 70.0238 46.7025C70.0208 46.6982 70.0182 46.6947 70.0162 46.692C70.0152 46.6906 70.0143 46.6894 70.0136 46.6884C70.0132 46.6879 70.0128 46.6873 70.0126 46.687C70.0122 46.6864 70.0118 46.6859 68.3969 47.8658C66.7819 49.0456 66.7816 49.0452 66.7814 49.0448C66.7813 49.0447 66.7811 49.0444 66.781 49.0443C66.7808 49.044 66.7807 49.0439 66.7808 49.044C66.781 49.0442 66.7816 49.0452 66.7828 49.0469C66.7853 49.0502 66.7898 49.0564 66.7962 49.0655C66.8092 49.0836 66.8302 49.1131 66.8586 49.1536C66.9152 49.2344 67.0012 49.3588 67.1111 49.5233C67.3312 49.8525 67.6466 50.3407 68.0157 50.9601C68.7559 52.2022 69.7009 53.9536 70.526 55.9926C72.2091 60.1521 73.2345 65.1134 71.5515 69.398L75.2745 70.8605ZM59.0658 82.485C67.1147 81.5412 72.8879 76.936 75.2745 70.8605L71.5515 69.398C69.7499 73.9841 65.311 77.7253 58.6 78.5122L59.0658 82.485ZM48.535 51.2769L56.9076 81.0402L60.7582 79.957L52.3855 50.1937L48.535 51.2769ZM51.5243 44.7558C50.5342 46.1564 49.8104 47.451 49.3319 48.4C49.0921 48.8756 48.9124 49.2673 48.7904 49.5459C48.7294 49.6852 48.6827 49.7965 48.6501 49.8761C48.6337 49.9159 48.6209 49.9478 48.6116 49.9714C48.6069 49.9832 48.6031 49.9928 48.6001 50.0004C48.5987 50.0042 48.5974 50.0074 48.5964 50.0101C48.5958 50.0114 48.5954 50.0126 48.5949 50.0137C48.5947 50.0142 48.5945 50.0147 48.5944 50.0152C48.5943 50.0155 48.5941 50.0158 48.5941 50.0159C48.594 50.0162 48.5939 50.0165 50.4602 50.7353C52.3266 51.4541 52.3265 51.4544 52.3264 51.4547C52.3263 51.4548 52.3262 51.4551 52.3262 51.4552C52.326 51.4556 52.3259 51.4559 52.3258 51.4561C52.3256 51.4567 52.3255 51.4571 52.3254 51.4573C52.3251 51.4579 52.3251 51.4579 52.3253 51.4574C52.3257 51.4564 52.3269 51.4533 52.329 51.4482C52.333 51.438 52.3404 51.4197 52.351 51.3937C52.3723 51.3419 52.4067 51.2595 52.4546 51.1502C52.5503 50.9315 52.6994 50.6058 52.9035 50.201C53.3128 49.3894 53.9376 48.2715 54.7906 47.0647L51.5243 44.7558ZM51.3679 45.1039C51.4322 44.9432 51.5609 44.6887 51.813 44.4471C52.0871 44.1844 52.4641 43.9814 52.9094 43.9257L53.4055 47.8948C54.4556 47.7636 54.9302 46.9685 55.0819 46.5893L51.3679 45.1039ZM51.3185 45.244C51.3161 45.252 51.3212 45.2349 51.3279 45.2143C51.3355 45.191 51.3487 45.1518 51.368 45.1037L55.0818 46.5894C55.1048 46.532 55.1213 46.4835 55.132 46.4508C55.1417 46.4208 55.1496 46.3943 55.15 46.393L51.3185 45.244ZM51.3867 45.0476C51.3637 45.105 51.3472 45.1535 51.3366 45.1862C51.3268 45.2162 51.319 45.2426 51.3186 45.2439L55.15 46.393C55.1524 46.385 55.1473 46.4021 55.1406 46.4227C55.133 46.446 55.1198 46.4852 55.1006 46.5332L51.3867 45.0476ZM59.6771 37.4961C56.0126 39.3179 53.3732 42.1704 51.6167 44.6272L54.8706 46.9536C56.4032 44.8101 58.5813 42.5079 61.4577 41.0779L59.6771 37.4961ZM60.0101 37.3296L59.673 37.4982L61.4618 41.0759L61.799 40.9073L60.0101 37.3296ZM64.9809 35.8276C63.1772 36.0865 61.5379 36.6128 60.0557 37.3075L61.7534 40.9294C62.9085 40.3879 64.1687 39.9852 65.5492 39.787L64.9809 35.8276ZM58.2804 36.2951L64.3117 39.5655L66.2184 36.0491L60.1871 32.7787L58.2804 36.2951ZM58.6687 28.9995C56.9501 30.2544 56.7447 32.0873 56.8574 33.271C56.9142 33.8679 57.0527 34.3832 57.171 34.7412C57.2313 34.9237 57.2895 35.0747 57.3353 35.1859C57.3583 35.2417 57.3785 35.2881 57.3946 35.3241C57.4026 35.3421 57.4097 35.3576 57.4156 35.3704C57.4186 35.3768 57.4213 35.3825 57.4237 35.3876C57.4249 35.3901 57.426 35.3925 57.427 35.3947C57.4276 35.3958 57.4281 35.3968 57.4285 35.3978C57.4288 35.3983 57.4291 35.3991 57.4292 35.3993C57.4296 35.4 57.4299 35.4007 59.2337 34.5369C61.0376 33.6731 61.0379 33.6737 61.0382 33.6744C61.0383 33.6746 61.0386 33.6753 61.0388 33.6757C61.0393 33.6766 61.0396 33.6774 61.04 33.6782C61.0408 33.6798 61.0414 33.6812 61.042 33.6825C61.0433 33.6851 61.0442 33.6871 61.0449 33.6886C61.0463 33.6916 61.0467 33.6924 61.0461 33.6912C61.0451 33.6889 61.0406 33.6787 61.0335 33.6615C61.0191 33.6266 60.9954 33.566 60.969 33.4862C60.9139 33.3195 60.8598 33.1071 60.8394 32.8921C60.7975 32.4518 60.8993 32.3236 61.0276 32.2299L58.6687 28.9995ZM66.441 30.7898C64.8929 28.0721 61.3186 27.0632 58.6682 28.9998L61.0281 32.2295C61.5769 31.8285 62.4904 31.9359 62.9653 32.7696L66.441 30.7898ZM65.2651 33.4543C67.2522 33.2277 67.2521 33.2272 67.2521 33.2268C67.2521 33.2267 67.252 33.2262 67.252 33.2259C67.2519 33.2254 67.2519 33.2248 67.2518 33.2242C67.2517 33.2229 67.2515 33.2217 67.2514 33.2203C67.251 33.2177 67.2507 33.2148 67.2503 33.2117C67.2496 33.2054 67.2487 33.1984 67.2477 33.1904C67.2456 33.1745 67.243 33.1552 67.2398 33.1327C67.2334 33.0877 67.2244 33.0297 67.2122 32.9605C67.1879 32.8227 67.1502 32.6372 67.0936 32.42C66.9829 31.9954 66.7871 31.4011 66.4435 30.7943L62.9628 32.7651C63.0837 32.9787 63.1689 33.2217 63.223 33.4293C63.2488 33.5282 63.2646 33.6075 63.273 33.6555C63.2772 33.6792 63.2794 33.6943 63.2801 33.6992C63.2805 33.7017 63.2805 33.7015 63.2801 33.6985C63.2799 33.697 63.2796 33.6948 63.2793 33.6919C63.2791 33.6904 63.2789 33.6888 63.2787 33.6869C63.2785 33.686 63.2784 33.6851 63.2783 33.684C63.2783 33.6835 63.2782 33.683 63.2781 33.6825C63.2781 33.6822 63.2781 33.6818 63.278 33.6817C63.278 33.6813 63.278 33.6809 65.2651 33.4543ZM70.6009 31.6638C68.9515 30.6999 67.3234 30.7358 66.1764 30.9868C65.6065 31.1115 65.1365 31.2918 64.8039 31.4431C64.6361 31.5194 64.499 31.5903 64.3969 31.6464C64.3457 31.6746 64.3029 31.6993 64.2691 31.7193C64.2522 31.7294 64.2374 31.7383 64.225 31.7459C64.2187 31.7498 64.2131 31.7533 64.208 31.7564C64.2054 31.758 64.203 31.7595 64.2008 31.761C64.1996 31.7617 64.1985 31.7624 64.1975 31.763C64.1969 31.7634 64.1962 31.7639 64.1959 31.764C64.1952 31.7645 64.1944 31.765 65.2651 33.4543C66.3357 35.1435 66.335 35.144 66.3343 35.1445C66.3341 35.1446 66.3333 35.1451 66.3329 35.1454C66.3319 35.1459 66.331 35.1465 66.3302 35.1471C66.3284 35.1482 66.3268 35.1492 66.3253 35.1501C66.3222 35.152 66.3197 35.1536 66.3175 35.1549C66.3132 35.1575 66.3107 35.159 66.3099 35.1595C66.3083 35.1605 66.3134 35.1574 66.3247 35.1512C66.3475 35.1386 66.3939 35.1142 66.4599 35.0842C66.595 35.0227 66.7944 34.9462 67.0314 34.8943C67.4979 34.7923 68.0333 34.7963 68.5829 35.1174L70.6009 31.6638ZM73.3096 37.3976C73.3215 36.7517 73.3577 35.6915 73.0367 34.6475C72.6781 33.4814 71.9201 32.4343 70.6007 31.6636L68.5831 35.1175C69.0355 35.3818 69.1494 35.6152 69.2134 35.8232C69.3149 36.1534 69.3243 36.5609 69.3103 37.3244L73.3096 37.3976ZM73.3039 37.856C73.3039 37.7148 73.3065 37.5679 73.3096 37.3976L69.3103 37.3244C69.3073 37.488 69.3039 37.6719 69.3039 37.856H73.3039ZM73.3039 39.583V37.856H69.3039V39.583H73.3039ZM75.8553 40.4676L72.495 37.9763L70.1128 41.1896L73.4731 43.6808L75.8553 40.4676ZM72.1161 45.5052L75.5252 43.8794L73.8033 40.269L70.3943 41.8948L72.1161 45.5052ZM73.848 44.1142L72.9639 42.6607L69.5465 44.7394L70.4306 46.1929L73.848 44.1142ZM74.0495 44.454C73.9895 44.3393 73.8899 44.1579 73.7494 43.9672L70.5292 46.3399C70.5092 46.3128 70.4982 46.2946 70.496 46.2909C70.4938 46.2872 70.4966 46.2917 70.5063 46.3101L74.0495 44.454ZM74.3917 45.48C74.3271 45.1015 74.2049 44.779 74.0864 44.528L70.4694 46.2361C70.473 46.2437 70.4712 46.2408 70.467 46.2284C70.4628 46.2159 70.4551 46.1904 70.4488 46.1532L74.3917 45.48ZM71.3381 49.7339C73.2872 49.3886 74.7587 47.5537 74.3897 45.4681L70.4509 46.1651C70.43 46.0475 70.4668 45.9436 70.5107 45.8839C70.553 45.8265 70.6049 45.8016 70.6403 45.7953L71.3381 49.7339ZM67.9472 48.625C68.7896 49.5165 70.0569 49.9619 71.3395 49.7337L70.6389 45.7955C70.7002 45.7846 70.7838 45.803 70.8545 45.8778L67.9472 48.625ZM48.5564 44.7712C48.1602 43.1413 46.5149 42.1743 44.9193 42.5621L45.864 46.449C45.3474 46.5746 44.8034 46.2669 44.6695 45.7159L48.5564 44.7712ZM61.0737 89.5278L48.539 44.7049L44.6868 45.7822L57.2215 90.6051L61.0737 89.5278ZM61.1019 89.6396C61.0989 89.6274 61.0966 89.6177 61.0944 89.6084L57.2008 90.5245C57.2043 90.5396 57.2078 90.5541 57.2106 90.5659L61.1019 89.6396ZM61.1546 89.8815C61.135 89.7773 61.1118 89.6814 61.1019 89.6396L57.2106 90.5658C57.2137 90.5789 57.216 90.5885 57.2181 90.5976C57.2201 90.6063 57.2216 90.6125 57.2226 90.617C57.2247 90.6265 57.2244 90.6256 57.2231 90.6185L61.1546 89.8815ZM55.7311 92.25H59.1888V88.25H55.7311V92.25ZM52.6087 86.8832C52.7492 87.3422 53.0517 88.3303 53.3191 89.2036C53.4528 89.6403 53.5777 90.0482 53.6692 90.347C53.7149 90.4965 53.7523 90.6186 53.7783 90.7033C53.7912 90.7457 53.8014 90.7788 53.8082 90.8012C53.8117 90.8124 53.8143 90.821 53.8161 90.8268C53.8169 90.8297 53.8176 90.8319 53.8181 90.8333C53.8183 90.834 53.8184 90.8346 53.8186 90.835C53.8186 90.8352 53.8187 90.8353 53.8187 90.8354C53.8187 90.8354 53.8187 90.8355 53.8187 90.8355C53.8187 90.8355 53.8187 90.8355 55.7311 90.25C57.6435 89.6645 57.6435 89.6645 57.6435 89.6644C57.6435 89.6644 57.6434 89.6644 57.6434 89.6643C57.6434 89.6643 57.6434 89.6641 57.6433 89.6639C57.6432 89.6636 57.643 89.663 57.6428 89.6623C57.6424 89.6608 57.6417 89.6586 57.6408 89.6558C57.639 89.65 57.6364 89.6414 57.633 89.6302C57.6261 89.6077 57.616 89.5747 57.603 89.5323C57.5771 89.4475 57.5397 89.3254 57.4939 89.176C57.4024 88.8772 57.2775 88.4692 57.1438 88.0326C56.8764 87.1592 56.574 86.1712 56.4335 85.7124L52.6087 86.8832ZM53.6707 83.5219C51.7589 84.1093 51.7589 84.1093 51.7589 84.1093C51.7589 84.1093 51.7589 84.1094 51.7589 84.1094C51.759 84.1095 51.759 84.1095 51.759 84.1097C51.7591 84.1099 51.7592 84.1103 51.7594 84.1107C51.7597 84.1117 51.7601 84.1132 51.7607 84.1151C51.7619 84.1189 51.7636 84.1246 51.7659 84.132C51.7705 84.1469 51.7772 84.1689 51.7859 84.1971C51.8032 84.2535 51.8283 84.335 51.859 84.4352C51.9206 84.6356 52.005 84.9108 52.0967 85.2097C52.2804 85.8087 52.4923 86.5002 52.6075 86.8794L56.4347 85.7162C56.3177 85.3312 56.1043 84.6347 55.9209 84.0368C55.829 83.7373 55.7444 83.4618 55.6828 83.2611C55.652 83.1607 55.6269 83.0791 55.6096 83.0226C55.6009 82.9943 55.5941 82.9723 55.5895 82.9573C55.5872 82.9498 55.5855 82.9441 55.5843 82.9403C55.5837 82.9384 55.5833 82.9369 55.583 82.9359C55.5828 82.9355 55.5827 82.9351 55.5826 82.9348C55.5826 82.9347 55.5825 82.9346 55.5825 82.9346C55.5825 82.9345 55.5825 82.9345 55.5825 82.9345C55.5825 82.9345 55.5825 82.9345 53.6707 83.5219ZM50.1456 82.1932C50.6456 82.4331 50.8983 82.6275 51.0856 82.8416C51.2852 83.0698 51.5183 83.4447 51.7881 84.1971L55.5533 82.8467C55.1863 81.8234 54.7413 80.9452 54.0961 80.2078C53.4387 79.4564 52.68 78.9727 51.8762 78.587L50.1456 82.1932ZM46.3735 80.9722C47.9976 81.3872 49.0262 81.6561 50.1458 82.1933L51.876 78.5869C50.3455 77.8526 48.9389 77.4992 47.3638 77.0967L46.3735 80.9722ZM44.2171 80.4022C45.026 80.6279 45.7401 80.8104 46.3735 80.9722L47.3638 77.0967C46.7284 76.9344 46.0537 76.7619 45.2925 76.5494L44.2171 80.4022ZM33.301 69.7814C35.1773 76.3745 40.6586 79.4083 44.2168 80.4021L45.2928 76.5495C42.5201 75.7751 38.5086 73.4669 37.1482 68.6866L33.301 69.7814ZM30.8491 45.7268C28.8801 46.0777 28.8801 46.0778 28.8801 46.078C28.8802 46.0781 28.8802 46.0784 28.8803 46.0787C28.8804 46.0794 28.8806 46.0804 28.8808 46.0817C28.8813 46.0844 28.882 46.0883 28.8829 46.0936C28.8848 46.1041 28.8876 46.1198 28.8913 46.1404C28.8986 46.1817 28.9096 46.243 28.9238 46.323C28.9524 46.483 28.9943 46.7178 29.0479 47.0172C29.1549 47.616 29.3084 48.4732 29.4942 49.5074C29.8656 51.5755 30.3662 54.3517 30.8824 57.1831C31.3985 60.0136 31.9309 62.9028 32.3657 65.1957C32.7876 67.4199 33.1447 69.2327 33.3011 69.7818L37.1481 68.6862C37.0554 68.3605 36.7409 66.7976 36.2957 64.4502C35.8635 62.1715 35.3331 59.2932 34.8175 56.4656C34.3022 53.6389 33.8023 50.8663 33.4312 48.8002C33.2456 47.7672 33.0923 46.911 32.9854 46.3131C32.932 46.0141 32.8901 45.7798 32.8616 45.6202C32.8474 45.5404 32.8365 45.4793 32.8291 45.4381C32.8255 45.4176 32.8227 45.402 32.8208 45.3916C32.8199 45.3864 32.8192 45.3824 32.8187 45.3798C32.8185 45.3785 32.8183 45.3775 32.8182 45.3769C32.8182 45.3766 32.8181 45.3763 32.8181 45.3762C32.8181 45.376 32.818 45.3759 30.8491 45.7268ZM31.1147 42.5621C29.4848 42.9583 28.5178 44.6036 28.9056 46.1992L32.7925 45.2545C32.9181 45.7711 32.6104 46.3151 32.0594 46.449L31.1147 42.5621ZM34.7517 44.7712C34.3556 43.1413 32.7103 42.1743 31.1147 42.5621L32.0594 46.449C31.5427 46.5746 30.9988 46.2669 30.8649 45.7159L34.7517 44.7712ZM39.1584 63.7889L34.7567 44.7921L30.8599 45.695L35.2617 64.6918L39.1584 63.7889ZM38.8321 62.2404H37.2101V66.2404H38.8321V62.2404ZM33.5849 46.0755L36.8628 64.5891L40.8015 63.8917L37.5236 45.3781L33.5849 46.0755ZM35.8199 42.5621C34.19 42.9583 33.223 44.6036 33.6108 46.1992L37.4977 45.2545C37.6232 45.7711 37.3156 46.3151 36.7646 46.449L35.8199 42.5621ZM39.4569 44.7712C39.0608 43.1413 37.4155 42.1743 35.8199 42.5621L36.7646 46.449C36.2479 46.5746 35.704 46.2669 35.5701 45.7159L39.4569 44.7712ZM44.0576 63.7696L39.4573 44.7728L35.5697 45.7143L40.17 64.7111L44.0576 63.7696ZM43.9644 62.2404H42.1138V66.2404H43.9644V62.2404ZM37.994 46.1508L42.0098 64.6643L45.9189 63.8164L41.903 45.3028L37.994 46.1508ZM40.2141 42.5621C38.5842 42.9583 37.6173 44.6036 38.0051 46.1992L41.8919 45.2545C42.0175 45.7711 41.7099 46.3151 41.1589 46.449L40.2141 42.5621ZM43.8512 44.7712C43.455 43.1413 41.8097 42.1743 40.2141 42.5621L41.1589 46.449C40.6422 46.5746 40.0983 46.2669 39.9643 45.7159L43.8512 44.7712ZM49.1277 63.7035L43.8344 44.7067L39.9811 45.7804L45.2745 64.7772L49.1277 63.7035ZM48.9168 62.2404H47.2011V66.2404H48.9168V62.2404ZM42.7047 46.1756L46.9678 64.6892L50.8658 63.7916L46.6027 45.278L42.7047 46.1756ZM44.9193 42.5621C43.2894 42.9583 42.3225 44.6036 42.7103 46.1992L46.5971 45.2545C46.7227 45.7711 46.415 46.3151 45.864 46.449L44.9193 42.5621Z" fill="#912DA8" mask="url(#path-4-inside-2_54_6679)"/>
</g>
<g style="mix-blend-mode:hard-light" filter="url(#filter3_ddi_54_6679)">
<mask id="path-6-inside-3_54_6679" fill="white">
<path d="M69.4008 47.2514L69.3109 47.139H69.3072C69.0262 47.4012 68.7228 47.6485 68.3969 47.8658C68.3969 47.8658 77.3465 60.1157 73.413 70.1292C71.3189 75.46 66.2129 79.6333 58.8329 80.4986L50.4602 50.7353C50.4602 50.7353 51.3144 48.5176 53.1575 45.9103C53.1874 45.9065 53.2099 45.884 53.2249 45.8466C53.2286 45.8372 53.2315 45.8278 53.2343 45.8185C53.2371 45.8091 53.2399 45.7998 53.2436 45.7904C54.8882 43.4902 57.297 40.9129 60.5674 39.287L60.9045 39.1185C62.2232 38.5003 63.673 38.0358 65.2651 37.8073L59.2337 34.5369C59.2337 34.5369 58.0013 31.9633 59.8481 30.6147C61.4477 29.4459 63.6917 30.004 64.7032 31.7797C65.1677 32.6001 65.2651 33.4543 65.2651 33.4543C65.2651 33.4543 67.3929 32.1056 69.5919 33.3906C71.3637 34.4255 71.3358 35.9516 71.31 37.361C71.3069 37.528 71.3039 37.6933 71.3039 37.856V39.583L74.6642 42.0742L71.2552 43.7L72.1393 45.1535C72.1917 45.2247 72.2367 45.3034 72.2779 45.3821C72.3416 45.5169 72.394 45.663 72.4203 45.8166C72.5813 46.7269 71.9407 47.596 70.9892 47.7646C70.3786 47.8733 69.7867 47.6597 69.4008 47.2514Z"/>
<path d="M45.3917 44.5056C45.9311 44.3744 46.4818 44.7041 46.6129 45.2436L59.1476 90.0664C59.1505 90.0787 59.1534 90.0908 59.1562 90.1027C59.1682 90.1531 59.1797 90.2016 59.1888 90.25H55.7311C55.7311 90.25 54.8021 87.2156 54.5211 86.2978C54.2888 85.5336 53.6707 83.5219 53.6707 83.5219C53.0339 81.7462 52.3146 81.0157 51.0109 80.3901C49.6858 79.7544 48.4682 79.4432 46.8686 79.0345C46.2343 78.8724 45.5399 78.6949 44.7548 78.4758C41.5893 77.5917 36.8429 74.9207 35.2246 69.234C34.7263 67.4845 30.8491 45.7268 30.8491 45.7268C30.7179 45.1874 31.0476 44.6367 31.5871 44.5056C32.1265 44.3744 32.6772 44.7041 32.8083 45.2436L37.2101 64.2404H38.8321L35.5542 45.7268C35.4231 45.1874 35.7528 44.6367 36.2922 44.5056C36.8317 44.3744 37.3824 44.7041 37.5135 45.2436L42.1138 64.2404H43.9644L39.9485 45.7268C39.8174 45.1874 40.147 44.6367 40.6865 44.5056C41.2259 44.3744 41.7766 44.7041 41.9077 45.2436L47.2011 64.2404H48.9168L44.6537 45.7268C44.5226 45.1874 44.8522 44.6367 45.3917 44.5056Z"/>
</mask>
<path d="M69.4008 47.2514L69.3109 47.139H69.3072C69.0262 47.4012 68.7228 47.6485 68.3969 47.8658C68.3969 47.8658 77.3465 60.1157 73.413 70.1292C71.3189 75.46 66.2129 79.6333 58.8329 80.4986L50.4602 50.7353C50.4602 50.7353 51.3144 48.5176 53.1575 45.9103C53.1874 45.9065 53.2099 45.884 53.2249 45.8466C53.2286 45.8372 53.2315 45.8278 53.2343 45.8185C53.2371 45.8091 53.2399 45.7998 53.2436 45.7904C54.8882 43.4902 57.297 40.9129 60.5674 39.287L60.9045 39.1185C62.2232 38.5003 63.673 38.0358 65.2651 37.8073L59.2337 34.5369C59.2337 34.5369 58.0013 31.9633 59.8481 30.6147C61.4477 29.4459 63.6917 30.004 64.7032 31.7797C65.1677 32.6001 65.2651 33.4543 65.2651 33.4543C65.2651 33.4543 67.3929 32.1056 69.5919 33.3906C71.3637 34.4255 71.3358 35.9516 71.31 37.361C71.3069 37.528 71.3039 37.6933 71.3039 37.856V39.583L74.6642 42.0742L71.2552 43.7L72.1393 45.1535C72.1917 45.2247 72.2367 45.3034 72.2779 45.3821C72.3416 45.5169 72.394 45.663 72.4203 45.8166C72.5813 46.7269 71.9407 47.596 70.9892 47.7646C70.3786 47.8733 69.7867 47.6597 69.4008 47.2514Z" fill="#912DA8" fill-opacity="0.15"/>
<path d="M45.3917 44.5056C45.9311 44.3744 46.4818 44.7041 46.6129 45.2436L59.1476 90.0664C59.1505 90.0787 59.1534 90.0908 59.1562 90.1027C59.1682 90.1531 59.1797 90.2016 59.1888 90.25H55.7311C55.7311 90.25 54.8021 87.2156 54.5211 86.2978C54.2888 85.5336 53.6707 83.5219 53.6707 83.5219C53.0339 81.7462 52.3146 81.0157 51.0109 80.3901C49.6858 79.7544 48.4682 79.4432 46.8686 79.0345C46.2343 78.8724 45.5399 78.6949 44.7548 78.4758C41.5893 77.5917 36.8429 74.9207 35.2246 69.234C34.7263 67.4845 30.8491 45.7268 30.8491 45.7268C30.7179 45.1874 31.0476 44.6367 31.5871 44.5056C32.1265 44.3744 32.6772 44.7041 32.8083 45.2436L37.2101 64.2404H38.8321L35.5542 45.7268C35.4231 45.1874 35.7528 44.6367 36.2922 44.5056C36.8317 44.3744 37.3824 44.7041 37.5135 45.2436L42.1138 64.2404H43.9644L39.9485 45.7268C39.8174 45.1874 40.147 44.6367 40.6865 44.5056C41.2259 44.3744 41.7766 44.7041 41.9077 45.2436L47.2011 64.2404H48.9168L44.6537 45.7268C44.5226 45.1874 44.8522 44.6367 45.3917 44.5056Z" fill="#912DA8" fill-opacity="0.15"/>
<path d="M69.3109 47.139L70.8727 45.8896L70.2722 45.139H69.3109V47.139ZM69.4008 47.2514L67.8391 48.5008L67.8906 48.5651L67.9472 48.625L69.4008 47.2514ZM69.3072 47.139V45.139H68.5189L67.9426 45.6769L69.3072 47.139ZM68.3969 47.8658L67.2875 46.2017L65.5503 47.3598L66.7819 49.0456L68.3969 47.8658ZM73.413 70.1292L75.2745 70.8605L75.2745 70.8605L73.413 70.1292ZM58.8329 80.4986L56.9076 81.0402L57.37 82.6839L59.0658 82.485L58.8329 80.4986ZM50.4602 50.7353L48.5939 50.0165L48.3549 50.6369L48.535 51.2769L50.4602 50.7353ZM53.1575 45.9103L52.9094 43.9257L52.0337 44.0351L51.5243 44.7558L53.1575 45.9103ZM53.2249 45.8466L51.368 45.1037L51.3679 45.1039L53.2249 45.8466ZM53.2343 45.8185L51.3186 45.2439L51.3185 45.244L53.2343 45.8185ZM53.2436 45.7904L51.6167 44.6272L51.4763 44.8235L51.3867 45.0476L53.2436 45.7904ZM60.5674 39.287L61.4577 41.0779L61.4618 41.0759L60.5674 39.287ZM60.9045 39.1185L60.0557 37.3075L60.0327 37.3183L60.0101 37.3296L60.9045 39.1185ZM65.2651 37.8073L65.5492 39.787L71.529 38.9287L66.2184 36.0491L65.2651 37.8073ZM59.2337 34.5369L57.4299 35.4007L57.7101 35.9858L58.2804 36.2951L59.2337 34.5369ZM59.8481 30.6147L61.0276 32.2299L61.0281 32.2295L59.8481 30.6147ZM64.7032 31.7797L66.4435 30.7943L66.441 30.7898L64.7032 31.7797ZM65.2651 33.4543L63.278 33.6809L63.6396 36.8523L66.3357 35.1435L65.2651 33.4543ZM69.5919 33.3906L68.5829 35.1174L68.5831 35.1175L69.5919 33.3906ZM71.31 37.361L73.3096 37.3976V37.3976L71.31 37.361ZM71.3039 39.583H69.3039V40.5899L70.1128 41.1896L71.3039 39.583ZM74.6642 42.0742L75.5252 43.8794L78.5266 42.4479L75.8553 40.4676L74.6642 42.0742ZM71.2552 43.7L70.3943 41.8948L68.396 42.8479L69.5465 44.7394L71.2552 43.7ZM72.1393 45.1535L70.4306 46.1929L70.4766 46.2686L70.5292 46.3399L72.1393 45.1535ZM72.2779 45.3821L74.0864 44.528L74.0687 44.4906L74.0495 44.454L72.2779 45.3821ZM72.4203 45.8166L70.4487 46.1532L70.4509 46.1651L72.4203 45.8166ZM70.9892 47.7646L70.6403 45.7953L70.6389 45.7955L70.9892 47.7646ZM46.6129 45.2436L44.6695 45.7159L44.6776 45.7492L44.6868 45.7822L46.6129 45.2436ZM59.1476 90.0664L61.0944 89.6084L61.0849 89.5679L61.0737 89.5278L59.1476 90.0664ZM59.1562 90.1027L61.1019 89.6396L61.1019 89.6396L59.1562 90.1027ZM59.1888 90.25V92.25H61.5986L61.1546 89.8815L59.1888 90.25ZM55.7311 90.25L53.8187 90.8355L54.2518 92.25H55.7311V90.25ZM54.5211 86.2978L52.6075 86.8794L52.6087 86.8832L54.5211 86.2978ZM53.6707 83.5219L55.5825 82.9345L55.5689 82.8902L55.5533 82.8467L53.6707 83.5219ZM51.0109 80.3901L51.8762 78.587L51.876 78.5869L51.0109 80.3901ZM46.8686 79.0345L47.3638 77.0967H47.3638L46.8686 79.0345ZM44.7548 78.4758L44.2168 80.4021L44.2171 80.4022L44.7548 78.4758ZM35.2246 69.234L37.1482 68.6866L37.1481 68.6862L35.2246 69.234ZM30.8491 45.7268L32.818 45.3759L32.8071 45.3148L32.7925 45.2545L30.8491 45.7268ZM31.5871 44.5056L32.0594 46.449L31.5871 44.5056ZM32.8083 45.2436L34.7567 44.7921L34.7543 44.7816L34.7517 44.7712L32.8083 45.2436ZM37.2101 64.2404L35.2617 64.6918L35.6205 66.2404H37.2101V64.2404ZM38.8321 64.2404V66.2404H41.2174L40.8015 63.8917L38.8321 64.2404ZM35.5542 45.7268L37.5236 45.3781L37.5126 45.3159L37.4977 45.2545L35.5542 45.7268ZM37.5135 45.2436L39.4573 44.7728L39.4569 44.7712L37.5135 45.2436ZM42.1138 64.2404L40.17 64.7111L40.5403 66.2404H42.1138V64.2404ZM43.9644 64.2404V66.2404H46.4447L45.9189 63.8164L43.9644 64.2404ZM39.9485 45.7268L41.903 45.3028L41.8978 45.2786L41.8919 45.2545L39.9485 45.7268ZM40.6865 44.5056L40.2141 42.5621L40.2141 42.5621L40.6865 44.5056ZM41.9077 45.2436L39.9643 45.7159L39.9722 45.7483L39.9811 45.7804L41.9077 45.2436ZM47.2011 64.2404L45.2745 64.7772L45.6822 66.2404H47.2011V64.2404ZM48.9168 64.2404V66.2404H51.4297L50.8658 63.7916L48.9168 64.2404ZM44.6537 45.7268L46.6027 45.278L46.6 45.2662L46.5971 45.2545L44.6537 45.7268ZM67.7492 48.3884L67.8391 48.5008L70.9626 46.002L70.8727 45.8896L67.7492 48.3884ZM69.3072 49.139H69.3109V45.139H69.3072V49.139ZM69.5063 49.5299C69.9371 49.2427 70.3252 48.9246 70.6718 48.6011L67.9426 45.6769C67.7272 45.8779 67.5085 46.0543 67.2875 46.2017L69.5063 49.5299ZM75.2745 70.8605C77.5249 65.1316 76.0423 58.9612 74.234 54.4922C73.3133 52.2171 72.2668 50.2801 71.4519 48.9125C71.0434 48.2269 70.6903 47.6799 70.4364 47.3001C70.3093 47.11 70.2068 46.9615 70.1343 46.858C70.098 46.8063 70.0692 46.7657 70.0486 46.7369C70.0383 46.7225 70.03 46.711 70.0238 46.7025C70.0208 46.6982 70.0182 46.6947 70.0162 46.692C70.0152 46.6906 70.0143 46.6894 70.0136 46.6884C70.0132 46.6879 70.0128 46.6873 70.0126 46.687C70.0122 46.6864 70.0118 46.6859 68.3969 47.8658C66.7819 49.0456 66.7816 49.0452 66.7814 49.0448C66.7813 49.0447 66.7811 49.0444 66.781 49.0443C66.7808 49.044 66.7807 49.0439 66.7808 49.044C66.781 49.0442 66.7816 49.0452 66.7828 49.0469C66.7853 49.0502 66.7898 49.0564 66.7962 49.0655C66.8092 49.0836 66.8302 49.1131 66.8586 49.1536C66.9152 49.2344 67.0012 49.3588 67.1111 49.5233C67.3312 49.8525 67.6466 50.3407 68.0157 50.9601C68.7559 52.2022 69.7009 53.9536 70.526 55.9926C72.2091 60.1521 73.2345 65.1134 71.5515 69.398L75.2745 70.8605ZM59.0658 82.485C67.1147 81.5412 72.8879 76.936 75.2745 70.8605L71.5515 69.398C69.7499 73.9841 65.311 77.7253 58.6 78.5122L59.0658 82.485ZM48.535 51.2769L56.9076 81.0402L60.7582 79.957L52.3855 50.1937L48.535 51.2769ZM51.5243 44.7558C50.5342 46.1564 49.8104 47.451 49.3319 48.4C49.0921 48.8756 48.9124 49.2673 48.7904 49.5459C48.7294 49.6852 48.6827 49.7965 48.6501 49.8761C48.6337 49.9159 48.6209 49.9478 48.6116 49.9714C48.6069 49.9832 48.6031 49.9928 48.6001 50.0004C48.5987 50.0042 48.5974 50.0074 48.5964 50.0101C48.5958 50.0114 48.5954 50.0126 48.5949 50.0137C48.5947 50.0142 48.5945 50.0147 48.5944 50.0152C48.5943 50.0155 48.5941 50.0158 48.5941 50.0159C48.594 50.0162 48.5939 50.0165 50.4602 50.7353C52.3266 51.4541 52.3265 51.4544 52.3264 51.4547C52.3263 51.4548 52.3262 51.4551 52.3262 51.4552C52.326 51.4556 52.3259 51.4559 52.3258 51.4561C52.3256 51.4567 52.3255 51.4571 52.3254 51.4573C52.3251 51.4579 52.3251 51.4579 52.3253 51.4574C52.3257 51.4564 52.3269 51.4533 52.329 51.4482C52.333 51.438 52.3404 51.4197 52.351 51.3937C52.3723 51.3419 52.4067 51.2595 52.4546 51.1502C52.5503 50.9315 52.6994 50.6058 52.9035 50.201C53.3128 49.3894 53.9376 48.2715 54.7906 47.0647L51.5243 44.7558ZM51.3679 45.1039C51.4322 44.9432 51.5609 44.6887 51.813 44.4471C52.0871 44.1844 52.4641 43.9814 52.9094 43.9257L53.4055 47.8948C54.4556 47.7636 54.9302 46.9685 55.0819 46.5893L51.3679 45.1039ZM51.3185 45.244C51.3161 45.252 51.3212 45.2349 51.3279 45.2143C51.3355 45.191 51.3487 45.1518 51.368 45.1037L55.0818 46.5894C55.1048 46.532 55.1213 46.4835 55.132 46.4508C55.1417 46.4208 55.1496 46.3943 55.15 46.393L51.3185 45.244ZM51.3867 45.0476C51.3637 45.105 51.3472 45.1535 51.3366 45.1862C51.3268 45.2162 51.319 45.2426 51.3186 45.2439L55.15 46.393C55.1524 46.385 55.1473 46.4021 55.1406 46.4227C55.133 46.446 55.1198 46.4852 55.1006 46.5332L51.3867 45.0476ZM59.6771 37.4961C56.0126 39.3179 53.3732 42.1704 51.6167 44.6272L54.8706 46.9536C56.4032 44.8101 58.5813 42.5079 61.4577 41.0779L59.6771 37.4961ZM60.0101 37.3296L59.673 37.4982L61.4618 41.0759L61.799 40.9073L60.0101 37.3296ZM64.9809 35.8276C63.1772 36.0865 61.5379 36.6128 60.0557 37.3075L61.7534 40.9294C62.9085 40.3879 64.1687 39.9852 65.5492 39.787L64.9809 35.8276ZM58.2804 36.2951L64.3117 39.5655L66.2184 36.0491L60.1871 32.7787L58.2804 36.2951ZM58.6687 28.9995C56.9501 30.2544 56.7447 32.0873 56.8574 33.271C56.9142 33.8679 57.0527 34.3832 57.171 34.7412C57.2313 34.9237 57.2895 35.0747 57.3353 35.1859C57.3583 35.2417 57.3785 35.2881 57.3946 35.3241C57.4026 35.3421 57.4097 35.3576 57.4156 35.3704C57.4186 35.3768 57.4213 35.3825 57.4237 35.3876C57.4249 35.3901 57.426 35.3925 57.427 35.3947C57.4276 35.3958 57.4281 35.3968 57.4285 35.3978C57.4288 35.3983 57.4291 35.3991 57.4292 35.3993C57.4296 35.4 57.4299 35.4007 59.2337 34.5369C61.0376 33.6731 61.0379 33.6737 61.0382 33.6744C61.0383 33.6746 61.0386 33.6753 61.0388 33.6757C61.0393 33.6766 61.0396 33.6774 61.04 33.6782C61.0408 33.6798 61.0414 33.6812 61.042 33.6825C61.0433 33.6851 61.0442 33.6871 61.0449 33.6886C61.0463 33.6916 61.0467 33.6924 61.0461 33.6912C61.0451 33.6889 61.0406 33.6787 61.0335 33.6615C61.0191 33.6266 60.9954 33.566 60.969 33.4862C60.9139 33.3195 60.8598 33.1071 60.8394 32.8921C60.7975 32.4518 60.8993 32.3236 61.0276 32.2299L58.6687 28.9995ZM66.441 30.7898C64.8929 28.0721 61.3186 27.0632 58.6682 28.9998L61.0281 32.2295C61.5769 31.8285 62.4904 31.9359 62.9653 32.7696L66.441 30.7898ZM65.2651 33.4543C67.2522 33.2277 67.2521 33.2272 67.2521 33.2268C67.2521 33.2267 67.252 33.2262 67.252 33.2259C67.2519 33.2254 67.2519 33.2248 67.2518 33.2242C67.2517 33.2229 67.2515 33.2217 67.2514 33.2203C67.251 33.2177 67.2507 33.2148 67.2503 33.2117C67.2496 33.2054 67.2487 33.1984 67.2477 33.1904C67.2456 33.1745 67.243 33.1552 67.2398 33.1327C67.2334 33.0877 67.2244 33.0297 67.2122 32.9605C67.1879 32.8227 67.1502 32.6372 67.0936 32.42C66.9829 31.9954 66.7871 31.4011 66.4435 30.7943L62.9628 32.7651C63.0837 32.9787 63.1689 33.2217 63.223 33.4293C63.2488 33.5282 63.2646 33.6075 63.273 33.6555C63.2772 33.6792 63.2794 33.6943 63.2801 33.6992C63.2805 33.7017 63.2805 33.7015 63.2801 33.6985C63.2799 33.697 63.2796 33.6948 63.2793 33.6919C63.2791 33.6904 63.2789 33.6888 63.2787 33.6869C63.2785 33.686 63.2784 33.6851 63.2783 33.684C63.2783 33.6835 63.2782 33.683 63.2781 33.6825C63.2781 33.6822 63.2781 33.6818 63.278 33.6817C63.278 33.6813 63.278 33.6809 65.2651 33.4543ZM70.6009 31.6638C68.9515 30.6999 67.3234 30.7358 66.1764 30.9868C65.6065 31.1115 65.1365 31.2918 64.8039 31.4431C64.6361 31.5194 64.499 31.5903 64.3969 31.6464C64.3457 31.6746 64.3029 31.6993 64.2691 31.7193C64.2522 31.7294 64.2374 31.7383 64.225 31.7459C64.2187 31.7498 64.2131 31.7533 64.208 31.7564C64.2054 31.758 64.203 31.7595 64.2008 31.761C64.1996 31.7617 64.1985 31.7624 64.1975 31.763C64.1969 31.7634 64.1962 31.7639 64.1959 31.764C64.1952 31.7645 64.1944 31.765 65.2651 33.4543C66.3357 35.1435 66.335 35.144 66.3343 35.1445C66.3341 35.1446 66.3333 35.1451 66.3329 35.1454C66.3319 35.1459 66.331 35.1465 66.3302 35.1471C66.3284 35.1482 66.3268 35.1492 66.3253 35.1501C66.3222 35.152 66.3197 35.1536 66.3175 35.1549C66.3132 35.1575 66.3107 35.159 66.3099 35.1595C66.3083 35.1605 66.3134 35.1574 66.3247 35.1512C66.3475 35.1386 66.3939 35.1142 66.4599 35.0842C66.595 35.0227 66.7944 34.9462 67.0314 34.8943C67.4979 34.7923 68.0333 34.7963 68.5829 35.1174L70.6009 31.6638ZM73.3096 37.3976C73.3215 36.7517 73.3577 35.6915 73.0367 34.6475C72.6781 33.4814 71.9201 32.4343 70.6007 31.6636L68.5831 35.1175C69.0355 35.3818 69.1494 35.6152 69.2134 35.8232C69.3149 36.1534 69.3243 36.5609 69.3103 37.3244L73.3096 37.3976ZM73.3039 37.856C73.3039 37.7148 73.3065 37.5679 73.3096 37.3976L69.3103 37.3244C69.3073 37.488 69.3039 37.6719 69.3039 37.856H73.3039ZM73.3039 39.583V37.856H69.3039V39.583H73.3039ZM75.8553 40.4676L72.495 37.9763L70.1128 41.1896L73.4731 43.6808L75.8553 40.4676ZM72.1161 45.5052L75.5252 43.8794L73.8033 40.269L70.3943 41.8948L72.1161 45.5052ZM73.848 44.1142L72.9639 42.6607L69.5465 44.7394L70.4306 46.1929L73.848 44.1142ZM74.0495 44.454C73.9895 44.3393 73.8899 44.1579 73.7494 43.9672L70.5292 46.3399C70.5092 46.3128 70.4982 46.2946 70.496 46.2909C70.4938 46.2872 70.4966 46.2917 70.5063 46.3101L74.0495 44.454ZM74.3917 45.48C74.3271 45.1015 74.2049 44.779 74.0864 44.528L70.4694 46.2361C70.473 46.2437 70.4712 46.2408 70.467 46.2284C70.4628 46.2159 70.4551 46.1904 70.4488 46.1532L74.3917 45.48ZM71.3381 49.7339C73.2872 49.3886 74.7587 47.5537 74.3897 45.4681L70.4509 46.1651C70.43 46.0475 70.4668 45.9436 70.5107 45.8839C70.553 45.8265 70.6049 45.8016 70.6403 45.7953L71.3381 49.7339ZM67.9472 48.625C68.7896 49.5165 70.0569 49.9619 71.3395 49.7337L70.6389 45.7955C70.7002 45.7846 70.7838 45.803 70.8545 45.8778L67.9472 48.625ZM48.5564 44.7712C48.1602 43.1413 46.5149 42.1743 44.9193 42.5621L45.864 46.449C45.3474 46.5746 44.8034 46.2669 44.6695 45.7159L48.5564 44.7712ZM61.0737 89.5278L48.539 44.7049L44.6868 45.7822L57.2215 90.6051L61.0737 89.5278ZM61.1019 89.6396C61.0989 89.6274 61.0966 89.6177 61.0944 89.6084L57.2008 90.5245C57.2043 90.5396 57.2078 90.5541 57.2106 90.5659L61.1019 89.6396ZM61.1546 89.8815C61.135 89.7773 61.1118 89.6814 61.1019 89.6396L57.2106 90.5658C57.2137 90.5789 57.216 90.5885 57.2181 90.5976C57.2201 90.6063 57.2216 90.6125 57.2226 90.617C57.2247 90.6265 57.2244 90.6256 57.2231 90.6185L61.1546 89.8815ZM55.7311 92.25H59.1888V88.25H55.7311V92.25ZM52.6087 86.8832C52.7492 87.3422 53.0517 88.3303 53.3191 89.2036C53.4528 89.6403 53.5777 90.0482 53.6692 90.347C53.7149 90.4965 53.7523 90.6186 53.7783 90.7033C53.7912 90.7457 53.8014 90.7788 53.8082 90.8012C53.8117 90.8124 53.8143 90.821 53.8161 90.8268C53.8169 90.8297 53.8176 90.8319 53.8181 90.8333C53.8183 90.834 53.8184 90.8346 53.8186 90.835C53.8186 90.8352 53.8187 90.8353 53.8187 90.8354C53.8187 90.8354 53.8187 90.8355 53.8187 90.8355C53.8187 90.8355 53.8187 90.8355 55.7311 90.25C57.6435 89.6645 57.6435 89.6645 57.6435 89.6644C57.6435 89.6644 57.6434 89.6644 57.6434 89.6643C57.6434 89.6643 57.6434 89.6641 57.6433 89.6639C57.6432 89.6636 57.643 89.663 57.6428 89.6623C57.6424 89.6608 57.6417 89.6586 57.6408 89.6558C57.639 89.65 57.6364 89.6414 57.633 89.6302C57.6261 89.6077 57.616 89.5747 57.603 89.5323C57.5771 89.4475 57.5397 89.3254 57.4939 89.176C57.4024 88.8772 57.2775 88.4692 57.1438 88.0326C56.8764 87.1592 56.574 86.1712 56.4335 85.7124L52.6087 86.8832ZM53.6707 83.5219C51.7589 84.1093 51.7589 84.1093 51.7589 84.1093C51.7589 84.1093 51.7589 84.1094 51.7589 84.1094C51.759 84.1095 51.759 84.1095 51.759 84.1097C51.7591 84.1099 51.7592 84.1103 51.7594 84.1107C51.7597 84.1117 51.7601 84.1132 51.7607 84.1151C51.7619 84.1189 51.7636 84.1246 51.7659 84.132C51.7705 84.1469 51.7772 84.1689 51.7859 84.1971C51.8032 84.2535 51.8283 84.335 51.859 84.4352C51.9206 84.6356 52.005 84.9108 52.0967 85.2097C52.2804 85.8087 52.4923 86.5002 52.6075 86.8794L56.4347 85.7162C56.3177 85.3312 56.1043 84.6347 55.9209 84.0368C55.829 83.7373 55.7444 83.4618 55.6828 83.2611C55.652 83.1607 55.6269 83.0791 55.6096 83.0226C55.6009 82.9943 55.5941 82.9723 55.5895 82.9573C55.5872 82.9498 55.5855 82.9441 55.5843 82.9403C55.5837 82.9384 55.5833 82.9369 55.583 82.9359C55.5828 82.9355 55.5827 82.9351 55.5826 82.9348C55.5826 82.9347 55.5825 82.9346 55.5825 82.9346C55.5825 82.9345 55.5825 82.9345 55.5825 82.9345C55.5825 82.9345 55.5825 82.9345 53.6707 83.5219ZM50.1456 82.1932C50.6456 82.4331 50.8983 82.6275 51.0856 82.8416C51.2852 83.0698 51.5183 83.4447 51.7881 84.1971L55.5533 82.8467C55.1863 81.8234 54.7413 80.9452 54.0961 80.2078C53.4387 79.4564 52.68 78.9727 51.8762 78.587L50.1456 82.1932ZM46.3735 80.9722C47.9976 81.3872 49.0262 81.6561 50.1458 82.1933L51.876 78.5869C50.3455 77.8526 48.9389 77.4992 47.3638 77.0967L46.3735 80.9722ZM44.2171 80.4022C45.026 80.6279 45.7401 80.8104 46.3735 80.9722L47.3638 77.0967C46.7284 76.9344 46.0537 76.7619 45.2925 76.5494L44.2171 80.4022ZM33.301 69.7814C35.1773 76.3745 40.6586 79.4083 44.2168 80.4021L45.2928 76.5495C42.5201 75.7751 38.5086 73.4669 37.1482 68.6866L33.301 69.7814ZM30.8491 45.7268C28.8801 46.0777 28.8801 46.0778 28.8801 46.078C28.8802 46.0781 28.8802 46.0784 28.8803 46.0787C28.8804 46.0794 28.8806 46.0804 28.8808 46.0817C28.8813 46.0844 28.882 46.0883 28.8829 46.0936C28.8848 46.1041 28.8876 46.1198 28.8913 46.1404C28.8986 46.1817 28.9096 46.243 28.9238 46.323C28.9524 46.483 28.9943 46.7178 29.0479 47.0172C29.1549 47.616 29.3084 48.4732 29.4942 49.5074C29.8656 51.5755 30.3662 54.3517 30.8824 57.1831C31.3985 60.0136 31.9309 62.9028 32.3657 65.1957C32.7876 67.4199 33.1447 69.2327 33.3011 69.7818L37.1481 68.6862C37.0554 68.3605 36.7409 66.7976 36.2957 64.4502C35.8635 62.1715 35.3331 59.2932 34.8175 56.4656C34.3022 53.6389 33.8023 50.8663 33.4312 48.8002C33.2456 47.7672 33.0923 46.911 32.9854 46.3131C32.932 46.0141 32.8901 45.7798 32.8616 45.6202C32.8474 45.5404 32.8365 45.4793 32.8291 45.4381C32.8255 45.4176 32.8227 45.402 32.8208 45.3916C32.8199 45.3864 32.8192 45.3824 32.8187 45.3798C32.8185 45.3785 32.8183 45.3775 32.8182 45.3769C32.8182 45.3766 32.8181 45.3763 32.8181 45.3762C32.8181 45.376 32.818 45.3759 30.8491 45.7268ZM31.1147 42.5621C29.4848 42.9583 28.5178 44.6036 28.9056 46.1992L32.7925 45.2545C32.9181 45.7711 32.6104 46.3151 32.0594 46.449L31.1147 42.5621ZM34.7517 44.7712C34.3556 43.1413 32.7103 42.1743 31.1147 42.5621L32.0594 46.449C31.5427 46.5746 30.9988 46.2669 30.8649 45.7159L34.7517 44.7712ZM39.1584 63.7889L34.7567 44.7921L30.8599 45.695L35.2617 64.6918L39.1584 63.7889ZM38.8321 62.2404H37.2101V66.2404H38.8321V62.2404ZM33.5849 46.0755L36.8628 64.5891L40.8015 63.8917L37.5236 45.3781L33.5849 46.0755ZM35.8199 42.5621C34.19 42.9583 33.223 44.6036 33.6108 46.1992L37.4977 45.2545C37.6232 45.7711 37.3156 46.3151 36.7646 46.449L35.8199 42.5621ZM39.4569 44.7712C39.0608 43.1413 37.4155 42.1743 35.8199 42.5621L36.7646 46.449C36.2479 46.5746 35.704 46.2669 35.5701 45.7159L39.4569 44.7712ZM44.0576 63.7696L39.4573 44.7728L35.5697 45.7143L40.17 64.7111L44.0576 63.7696ZM43.9644 62.2404H42.1138V66.2404H43.9644V62.2404ZM37.994 46.1508L42.0098 64.6643L45.9189 63.8164L41.903 45.3028L37.994 46.1508ZM40.2141 42.5621C38.5842 42.9583 37.6173 44.6036 38.0051 46.1992L41.8919 45.2545C42.0175 45.7711 41.7099 46.3151 41.1589 46.449L40.2141 42.5621ZM43.8512 44.7712C43.455 43.1413 41.8097 42.1743 40.2141 42.5621L41.1589 46.449C40.6422 46.5746 40.0983 46.2669 39.9643 45.7159L43.8512 44.7712ZM49.1277 63.7035L43.8344 44.7067L39.9811 45.7804L45.2745 64.7772L49.1277 63.7035ZM48.9168 62.2404H47.2011V66.2404H48.9168V62.2404ZM42.7047 46.1756L46.9678 64.6892L50.8658 63.7916L46.6027 45.278L42.7047 46.1756ZM44.9193 42.5621C43.2894 42.9583 42.3225 44.6036 42.7103 46.1992L46.5971 45.2545C46.7227 45.7711 46.415 46.3151 45.864 46.449L44.9193 42.5621Z" fill="#912DA8" fill-opacity="0.2" mask="url(#path-6-inside-3_54_6679)"/>
</g>
<g filter="url(#filter4_f_54_6679)">
<path d="M69.4008 47.2514L69.3109 47.139H69.3072C69.0262 47.4012 68.7228 47.6485 68.3969 47.8658C68.3969 47.8658 77.3465 60.1157 73.413 70.1292C71.3189 75.46 66.2129 79.6333 58.8329 80.4986L50.4602 50.7353C50.4602 50.7353 51.3144 48.5176 53.1575 45.9103C53.1874 45.9065 53.2099 45.884 53.2249 45.8466C53.2286 45.8372 53.2315 45.8278 53.2343 45.8185C53.2371 45.8091 53.2399 45.7998 53.2436 45.7904C54.8882 43.4902 57.297 40.9129 60.5674 39.287L60.9045 39.1185C62.2232 38.5003 63.673 38.0358 65.2651 37.8073L59.2337 34.5369C59.2337 34.5369 58.0013 31.9633 59.8481 30.6147C61.4477 29.4459 63.6917 30.004 64.7032 31.7797C65.1677 32.6001 65.2651 33.4543 65.2651 33.4543C65.2651 33.4543 67.3929 32.1056 69.5919 33.3906C71.3637 34.4255 71.3358 35.9516 71.31 37.361C71.3069 37.528 71.3039 37.6933 71.3039 37.856V39.583L74.6642 42.0742L71.2552 43.7L72.1393 45.1535C72.1917 45.2247 72.2367 45.3034 72.2779 45.3821C72.3416 45.5169 72.394 45.663 72.4203 45.8166C72.5813 46.7269 71.9407 47.596 70.9892 47.7646C70.3786 47.8733 69.7867 47.6597 69.4008 47.2514Z" fill="#912DA8" fill-opacity="0.15"/>
<path d="M45.3917 44.5056C45.9311 44.3744 46.4818 44.7041 46.6129 45.2436L59.1476 90.0664C59.1505 90.0787 59.1534 90.0908 59.1562 90.1027C59.1682 90.1531 59.1797 90.2016 59.1888 90.25H55.7311C55.7311 90.25 54.8021 87.2156 54.5211 86.2978C54.2888 85.5336 53.6707 83.5219 53.6707 83.5219C53.0339 81.7462 52.3146 81.0157 51.0109 80.3901C49.6858 79.7544 48.4682 79.4432 46.8686 79.0345C46.2343 78.8724 45.5399 78.6949 44.7548 78.4758C41.5893 77.5917 36.8429 74.9207 35.2246 69.234C34.7263 67.4845 30.8491 45.7268 30.8491 45.7268C30.7179 45.1874 31.0476 44.6367 31.5871 44.5056C32.1265 44.3744 32.6772 44.7041 32.8083 45.2436L37.2101 64.2404H38.8321L35.5542 45.7268C35.4231 45.1874 35.7528 44.6367 36.2922 44.5056C36.8317 44.3744 37.3824 44.7041 37.5135 45.2436L42.1138 64.2404H43.9644L39.9485 45.7268C39.8174 45.1874 40.147 44.6367 40.6865 44.5056C41.2259 44.3744 41.7766 44.7041 41.9077 45.2436L47.2011 64.2404H48.9168L44.6537 45.7268C44.5226 45.1874 44.8522 44.6367 45.3917 44.5056Z" fill="#912DA8" fill-opacity="0.15"/>
<path d="M72.7149 69.855C70.7899 74.7555 66.1625 78.6769 59.379 79.6703L51.2523 50.7813C51.269 50.742 51.2881 50.6977 51.3095 50.6489C51.4135 50.4114 51.5721 50.0651 51.7874 49.6382C52.2055 48.8091 52.8352 47.6801 53.6905 46.4562C53.8057 46.3527 53.8762 46.2309 53.914 46.1427C55.5143 43.9236 57.8175 41.4917 60.9013 39.9586L60.9028 39.9579L61.2314 39.7936C62.4864 39.2062 63.8623 38.7663 65.3716 38.5497L67.6141 38.2278L65.6226 37.148L59.8262 34.005C59.8123 33.9671 59.7975 33.9247 59.7822 33.8784C59.7073 33.6519 59.6268 33.3449 59.595 33.0105C59.531 32.3379 59.6652 31.6769 60.2904 31.2204L60.2906 31.2202C61.4958 30.3396 63.2402 30.7283 64.0508 32.1497C64.2411 32.486 64.3608 32.8386 64.4326 33.1139C64.468 33.2498 64.4906 33.3622 64.504 33.4383C64.5107 33.4762 64.515 33.5047 64.5175 33.5222L64.5199 33.5392L64.5199 33.5395L64.5199 33.5397L64.52 33.5398L64.52 33.5403L64.5201 33.5411L64.5202 33.5418L64.6555 34.7285L65.6636 34.0896L65.6639 34.0894L65.6647 34.0889L65.6656 34.0884L65.6722 34.0845C65.6816 34.0788 65.6985 34.069 65.7223 34.056C65.7699 34.0298 65.8446 33.9908 65.9424 33.9463C66.1392 33.8568 66.4232 33.7478 66.7642 33.6732C67.4434 33.5246 68.3203 33.5162 69.2135 34.0381L69.2136 34.0382C69.9369 34.4607 70.2521 34.9484 70.4082 35.4558C70.5783 36.009 70.5734 36.6205 70.5601 37.3473L70.56 37.3501C70.557 37.515 70.5539 37.6862 70.5539 37.856V39.583V39.9606L70.8572 40.1855L73.2158 41.934L70.9323 43.0231L70.183 43.3805L70.6144 44.0898L71.4985 45.5433L71.5158 45.5717L71.5355 45.5984C71.5534 45.6228 71.5757 45.659 71.606 45.7158C71.6454 45.8015 71.6697 45.877 71.6809 45.9428L71.6817 45.9473C71.7648 46.4169 71.4358 46.9238 70.8584 47.0261L70.8578 47.0262C70.5093 47.0882 70.1796 46.9704 69.9643 46.7552L69.8966 46.6705L69.6714 46.389H69.3109H69.3072H69.0116L68.7954 46.5907C68.5391 46.83 68.2674 47.0507 67.9808 47.2417L67.3294 47.676L67.7911 48.308L67.7912 48.3081L67.7913 48.3082L67.7919 48.309L67.7957 48.3142L67.8126 48.3378C67.828 48.3593 67.8514 48.3922 67.8822 48.4362C67.9438 48.5241 68.035 48.6561 68.1503 48.8285C68.3809 49.1736 68.7081 49.6802 69.0895 50.3202C69.853 51.6016 70.8298 53.4109 71.6847 55.5238C73.407 59.7799 74.5753 65.1191 72.7149 69.855ZM45.8841 45.4207L45.8872 45.4332L45.8906 45.4455L58.2104 89.5H56.2858L55.9486 88.3985L55.2387 86.0797C55.2386 86.0794 55.2385 86.0791 55.2384 86.0788C55.1219 85.6954 54.9092 85.0011 54.7258 84.4033L54.4879 83.628L54.4147 83.3896L54.3946 83.3244L54.3894 83.3074L54.3881 83.3031L54.3877 83.302L54.3877 83.3017L54.3876 83.3016L53.6707 83.5219L54.3876 83.3016L54.3825 83.285L54.3767 83.2687C54.04 82.33 53.6613 81.6091 53.1553 81.0309C52.6448 80.4473 52.0442 80.0541 51.3354 79.7139L51.3353 79.7139C49.9432 79.046 48.6631 78.7189 47.0883 78.3165L47.0543 78.3078C46.4196 78.1456 45.7326 77.9701 44.9565 77.7534C41.9382 76.9104 37.4675 74.3754 35.9459 69.0287L35.9459 69.0286C35.8333 68.6331 35.5055 66.9921 35.0676 64.6832C34.6345 62.4 34.1035 59.5183 33.5878 56.6898C33.0722 53.8616 32.5721 51.0879 32.2009 49.0212C32.0153 47.9879 31.8619 47.1313 31.7549 46.5331L31.6311 45.8398L31.5986 45.6576L31.5902 45.611L31.5881 45.5992L31.5876 45.5962L31.5875 45.5955C31.5874 45.5953 31.5874 45.5952 30.8491 45.7268L31.5874 45.5952L31.5833 45.5723L31.5778 45.5497C31.543 45.4063 31.6337 45.2661 31.7642 45.2343C31.9067 45.1997 32.046 45.289 32.0789 45.4181C32.0791 45.419 32.0793 45.4198 32.0795 45.4207L36.4794 64.4097L36.614 64.9904H37.2101H38.8321H39.7266L39.5707 64.1096L36.2928 45.5961L36.2886 45.5727L36.283 45.5497C36.2482 45.4063 36.3388 45.2661 36.4694 45.2343C36.6127 45.1995 36.7528 45.2901 36.7847 45.4205C36.7847 45.4205 36.7847 45.4206 36.7847 45.4207L41.3849 64.4169L41.5237 64.9904H42.1138H43.9644H44.8945L44.6973 64.0814L40.6815 45.5678L40.6795 45.5587L40.6773 45.5497C40.6424 45.4063 40.7331 45.2661 40.8636 45.2343C41.007 45.1995 41.1472 45.2902 41.179 45.4207L41.1819 45.4328L41.1853 45.4449L46.4786 64.4417L46.6315 64.9904H47.2011H48.9168H49.8592L49.6477 64.0721L45.3846 45.5585L45.3846 45.5585L45.3825 45.5497C45.3476 45.4063 45.4383 45.2661 45.5688 45.2343C45.7122 45.1995 45.8524 45.2902 45.8841 45.4207Z" stroke="#E059FF" stroke-width="1.5"/>
</g>
<g filter="url(#filter5_f_54_6679)">
<path d="M69.4008 47.2514L69.3109 47.139H69.3072C69.0262 47.4012 68.7228 47.6485 68.3969 47.8658C68.3969 47.8658 77.3465 60.1157 73.413 70.1292C71.3189 75.46 66.2129 79.6333 58.8329 80.4986L50.4602 50.7353C50.4602 50.7353 51.3144 48.5176 53.1575 45.9103C53.1874 45.9065 53.2099 45.884 53.2249 45.8466C53.2286 45.8372 53.2315 45.8278 53.2343 45.8185C53.2371 45.8091 53.2399 45.7998 53.2436 45.7904C54.8882 43.4902 57.297 40.9129 60.5674 39.287L60.9045 39.1185C62.2232 38.5003 63.673 38.0358 65.2651 37.8073L59.2337 34.5369C59.2337 34.5369 58.0013 31.9633 59.8481 30.6147C61.4477 29.4459 63.6917 30.004 64.7032 31.7797C65.1677 32.6001 65.2651 33.4543 65.2651 33.4543C65.2651 33.4543 67.3929 32.1056 69.5919 33.3906C71.3637 34.4255 71.3358 35.9516 71.31 37.361C71.3069 37.528 71.3039 37.6933 71.3039 37.856V39.583L74.6642 42.0742L71.2552 43.7L72.1393 45.1535C72.1917 45.2247 72.2367 45.3034 72.2779 45.3821C72.3416 45.5169 72.394 45.663 72.4203 45.8166C72.5813 46.7269 71.9407 47.596 70.9892 47.7646C70.3786 47.8733 69.7867 47.6597 69.4008 47.2514Z" fill="#912DA8" fill-opacity="0.15"/>
<path d="M45.3917 44.5056C45.9311 44.3744 46.4818 44.7041 46.6129 45.2436L59.1476 90.0664C59.1505 90.0787 59.1534 90.0908 59.1562 90.1027C59.1682 90.1531 59.1797 90.2016 59.1888 90.25H55.7311C55.7311 90.25 54.8021 87.2156 54.5211 86.2978C54.2888 85.5336 53.6707 83.5219 53.6707 83.5219C53.0339 81.7462 52.3146 81.0157 51.0109 80.3901C49.6858 79.7544 48.4682 79.4432 46.8686 79.0345C46.2343 78.8724 45.5399 78.6949 44.7548 78.4758C41.5893 77.5917 36.8429 74.9207 35.2246 69.234C34.7263 67.4845 30.8491 45.7268 30.8491 45.7268C30.7179 45.1874 31.0476 44.6367 31.5871 44.5056C32.1265 44.3744 32.6772 44.7041 32.8083 45.2436L37.2101 64.2404H38.8321L35.5542 45.7268C35.4231 45.1874 35.7528 44.6367 36.2922 44.5056C36.8317 44.3744 37.3824 44.7041 37.5135 45.2436L42.1138 64.2404H43.9644L39.9485 45.7268C39.8174 45.1874 40.147 44.6367 40.6865 44.5056C41.2259 44.3744 41.7766 44.7041 41.9077 45.2436L47.2011 64.2404H48.9168L44.6537 45.7268C44.5226 45.1874 44.8522 44.6367 45.3917 44.5056Z" fill="#912DA8" fill-opacity="0.15"/>
<path d="M73.1803 70.0378C71.1427 75.2247 66.1973 79.3147 59.0155 80.2245L50.7239 50.7493C50.7264 50.7432 50.729 50.7367 50.7318 50.7298C50.7581 50.6658 50.7979 50.5708 50.8515 50.4483C50.9587 50.2034 51.1212 49.8489 51.3409 49.4131C51.7743 48.5537 52.4298 47.3798 53.323 46.1093C53.3942 46.0622 53.4358 45.9924 53.457 45.9394C53.4622 45.9265 53.4664 45.9141 53.4694 45.9045C55.0993 43.632 57.4722 41.1049 60.6787 39.5109L60.6792 39.5106L61.0135 39.3435C62.3109 38.7356 63.7361 38.2793 65.3006 38.0548L66.0481 37.9475L65.3842 37.5875L59.4278 34.3577C59.424 34.3487 59.4199 34.339 59.4155 34.3284C59.3874 34.2602 59.3486 34.16 59.3074 34.0353C59.2247 33.7849 59.1336 33.44 59.0972 33.0578C59.0244 32.2923 59.1715 31.4183 59.9956 30.8166L59.9956 30.8165C61.4637 29.7438 63.5411 30.2454 64.4856 31.9029C64.7039 32.2885 64.8375 32.6852 64.9164 32.9877C64.9557 33.1384 64.981 33.2641 64.9964 33.3514C65.0041 33.395 65.0093 33.4289 65.0125 33.4514L65.0159 33.4762L65.0166 33.4818L65.0167 33.4826L65.0167 33.4827L65.0167 33.4828L65.0167 33.4828L65.0167 33.4828L65.0619 33.879L65.3986 33.6656L65.3986 33.6656L65.3987 33.6655L65.3989 33.6654L65.399 33.6654L65.402 33.6635L65.4171 33.6544C65.431 33.6462 65.4525 33.6337 65.4813 33.6179C65.5388 33.5862 65.6248 33.5415 65.7354 33.4912C65.9569 33.3904 66.2747 33.2685 66.6573 33.1848C67.4216 33.0176 68.435 33.0041 69.4658 33.6064L69.4658 33.6064C70.2975 34.0923 70.6932 34.6817 70.8861 35.3088C71.0836 35.9513 71.0731 36.6444 71.06 37.3564L71.06 37.3569C71.057 37.5233 71.0539 37.6908 71.0539 37.856V39.583V39.7089L71.155 39.7838L74.1814 42.0275L71.1476 43.4744L70.8978 43.5935L71.0416 43.8299L71.9257 45.2835L71.9315 45.2929L71.938 45.3018C71.9786 45.3569 72.016 45.4211 72.054 45.4934C72.1098 45.6123 72.1527 45.7348 72.1738 45.8587L72.1741 45.8602C72.3092 46.6236 71.7724 47.372 70.9456 47.5184L70.9454 47.5185C70.4224 47.6115 69.9183 47.4302 69.5894 47.0868L69.5061 46.9828L69.4311 46.889H69.3109H69.3072H69.2086L69.1366 46.9562C68.8639 47.2108 68.571 47.4492 68.2582 47.6578L68.0411 47.8025L68.195 48.0132L68.3969 47.8658L68.195 48.0133L68.1952 48.0136L68.1963 48.015L68.2008 48.0212L68.2192 48.0467C68.2355 48.0696 68.2599 48.1039 68.2917 48.1493C68.3553 48.24 68.4485 48.375 68.5659 48.5506C68.8008 48.902 69.1327 49.4159 69.519 50.0643C70.2919 51.3613 71.2814 53.1939 72.1482 55.3362C73.8861 59.631 75.1116 65.1213 73.1803 70.0378ZM46.37 45.3026L46.3699 45.3026L46.3722 45.3109L58.8694 90H55.916L55.8206 89.6884L55.4705 88.5449L54.7603 86.2251C54.7603 86.2251 54.7603 86.225 54.7602 86.225C54.644 85.8425 54.4313 85.1483 54.2478 84.5499L54.0099 83.7748L53.9367 83.5364L53.9167 83.4712L53.9115 83.4543L53.9101 83.4499L53.9098 83.4488L53.9097 83.4486L53.9097 83.4485L53.9099 83.4484L53.906 83.4375C53.5815 82.5327 53.2293 81.8747 52.779 81.3601C52.3273 80.8437 51.7899 80.4866 51.1191 80.1647L51.0109 80.3901C49.6858 79.7544 48.4682 79.4432 46.8686 79.0345L46.8684 79.0344C46.2341 78.8723 45.5398 78.6949 44.7548 78.4758L44.8221 78.235C44.8221 78.235 44.8221 78.235 44.822 78.235C41.7056 77.3646 37.0511 74.7389 35.465 69.1656L35.465 69.1655C35.3444 68.7421 35.0114 67.0699 34.5763 64.7764C34.1429 62.4914 33.6117 59.6084 33.0959 56.7795C32.5802 53.9508 32.08 51.1766 31.7087 49.1096C31.5231 48.0761 31.3697 47.2194 31.2627 46.6211L31.1388 45.9277L31.1063 45.7454L31.098 45.6987L31.0959 45.6869L31.0954 45.6839L31.0952 45.6832C31.0952 45.683 31.0952 45.683 30.8491 45.7268L31.0952 45.683L31.0938 45.6753L31.092 45.6678C30.993 45.2603 31.243 44.8465 31.6461 44.7485C32.0531 44.6496 32.4666 44.899 32.5651 45.3014C32.5652 45.3018 32.5653 45.3022 32.5654 45.3026L36.9665 64.2968L37.0114 64.4904H37.2101H38.8321H39.1303L39.0783 64.1968L35.8004 45.6832L35.799 45.6754L35.7972 45.6678C35.6981 45.2603 35.9481 44.8465 36.3513 44.7485C36.7587 44.6495 37.1726 44.8995 37.2706 45.3026L41.8708 64.2992L41.9171 64.4904H42.1138H43.9644H44.2744L44.2087 64.1874L40.1928 45.6738L40.1929 45.6738L40.1914 45.6678C40.0924 45.2603 40.3424 44.8465 40.7455 44.7485C41.153 44.6495 41.5668 44.8995 41.6648 45.3026L41.6647 45.3026L41.6669 45.3107L46.9603 64.3075L47.0112 64.4904H47.2011H48.9168H49.2309L49.1604 64.1843L44.8973 45.6707L44.8973 45.6707L44.8966 45.6678C44.7976 45.2603 45.0476 44.8465 45.4507 44.7485C45.8582 44.6495 46.272 44.8995 46.37 45.3026Z" stroke="white" stroke-width="0.5"/>
</g>
<defs>
<filter id="filter0_f_54_6679" x="0.42025" y="0.498375" width="105.3" height="119.253" filterUnits="userSpaceOnUse" color-interpolation-filters="sRGB">
<feFlood flood-opacity="0" result="BackgroundImageFix"/>
<feBlend mode="normal" in="SourceGraphic" in2="BackgroundImageFix" result="shape"/>
<feGaussianBlur stdDeviation="17.4461" result="effect1_foregroundBlur_54_6679"/>
</filter>
<filter id="filter1_f_54_6679" x="14.6402" y="13.8199" width="76.2039" height="92.6101" filterUnits="userSpaceOnUse" color-interpolation-filters="sRGB">
<feFlood flood-opacity="0" result="BackgroundImageFix"/>
<feBlend mode="normal" in="SourceGraphic" in2="BackgroundImageFix" result="shape"/>
<feGaussianBlur stdDeviation="8.09003" result="effect1_foregroundBlur_54_6679"/>
</filter>
<filter id="filter2_f_54_6679" x="25.427" y="24.6066" width="54.6305" height="71.0367" filterUnits="userSpaceOnUse" color-interpolation-filters="sRGB">
<feFlood flood-opacity="0" result="BackgroundImageFix"/>
<feBlend mode="normal" in="SourceGraphic" in2="BackgroundImageFix" result="shape"/>
<feGaussianBlur stdDeviation="2.69668" result="effect1_foregroundBlur_54_6679"/>
</filter>
<filter id="filter3_ddi_54_6679" x="25.8203" y="30" width="53.8438" height="70.6434" filterUnits="userSpaceOnUse" color-interpolation-filters="sRGB">
<feFlood flood-opacity="0" result="BackgroundImageFix"/>
<feColorMatrix in="SourceAlpha" type="matrix" values="0 0 0 0 0 0 0 0 0 0 0 0 0 0 0 0 0 0 127 0" result="hardAlpha"/>
<feOffset dy="3.50568"/>
<feGaussianBlur stdDeviation="1.34834"/>
<feColorMatrix type="matrix" values="0 0 0 0 0.257806 0 0 0 0 0.0526125 0 0 0 0 0.305 0 0 0 0.15 0"/>
<feBlend mode="multiply" in2="BackgroundImageFix" result="effect1_dropShadow_54_6679"/>
<feColorMatrix in="SourceAlpha" type="matrix" values="0 0 0 0 0 0 0 0 0 0 0 0 0 0 0 0 0 0 127 0" result="hardAlpha"/>
<feOffset dy="5.39336"/>
<feGaussianBlur stdDeviation="2.5"/>
<feColorMatrix type="matrix" values="0 0 0 0 0.276405 0 0 0 0 0.0796125 0 0 0 0 0.321667 0 0 0 0.15 0"/>
<feBlend mode="color-dodge" in2="effect1_dropShadow_54_6679" result="effect2_dropShadow_54_6679"/>
<feBlend mode="normal" in="SourceGraphic" in2="effect2_dropShadow_54_6679" result="shape"/>
<feColorMatrix in="SourceAlpha" type="matrix" values="0 0 0 0 0 0 0 0 0 0 0 0 0 0 0 0 0 0 127 0" result="hardAlpha"/>
<feOffset dx="-0.350568" dy="0.701136"/>
<feGaussianBlur stdDeviation="0.175284"/>
<feComposite in2="hardAlpha" operator="arithmetic" k2="-1" k3="1"/>
<feColorMatrix type="matrix" values="0 0 0 0 1 0 0 0 0 1 0 0 0 0 1 0 0 0 0.25 0"/>
<feBlend mode="normal" in2="shape" result="effect3_innerShadow_54_6679"/>
</filter>
<filter id="filter4_f_54_6679" x="30.281" y="29.4607" width="44.9224" height="61.3287" filterUnits="userSpaceOnUse" color-interpolation-filters="sRGB">
<feFlood flood-opacity="0" result="BackgroundImageFix"/>
<feBlend mode="normal" in="SourceGraphic" in2="BackgroundImageFix" result="shape"/>
<feGaussianBlur stdDeviation="0.269668" result="effect1_foregroundBlur_54_6679"/>
</filter>
<filter id="filter5_f_54_6679" x="30.4608" y="29.6404" width="44.5629" height="60.9691" filterUnits="userSpaceOnUse" color-interpolation-filters="sRGB">
<feFlood flood-opacity="0" result="BackgroundImageFix"/>
<feBlend mode="normal" in="SourceGraphic" in2="BackgroundImageFix" result="shape"/>
<feGaussianBlur stdDeviation="0.179779" result="effect1_foregroundBlur_54_6679"/>
</filter>
</defs>
</svg>
